<svg width="811" height="306" viewBox="0 0 811 306" fill="none" xmlns="http://www.w3.org/2000/svg">
<rect width="811" height="306" fill="#F0FDF4"/>
<path d="M207.815 132.8C204.572 132.8 202.097 133.504 200.391 134.912C198.684 136.32 197.831 138.453 197.831 141.312V142.848H215.047V152.64H197.831V168H185.159V141.504C185.159 135.403 187.057 130.688 190.855 127.36C194.652 123.989 199.985 122.304 206.855 122.304C209.457 122.304 211.889 122.56 214.151 123.072C216.455 123.584 218.417 124.309 220.039 125.248L216.326 134.976C213.852 133.525 211.015 132.8 207.815 132.8ZM240.125 168.576C236.413 168.576 233.063 167.808 230.077 166.272C227.09 164.736 224.743 162.603 223.036 159.872C221.373 157.141 220.541 154.048 220.541 150.592C220.541 147.179 221.373 144.107 223.036 141.376C224.743 138.645 227.069 136.533 230.013 135.04C232.999 133.504 236.37 132.736 240.125 132.736C243.879 132.736 247.25 133.504 250.237 135.04C253.223 136.533 255.549 138.645 257.213 141.376C258.877 144.064 259.709 147.136 259.709 150.592C259.709 154.048 258.877 157.141 257.213 159.872C255.549 162.603 253.223 164.736 250.237 166.272C247.25 167.808 243.879 168.576 240.125 168.576ZM240.125 158.912C242.258 158.912 244.007 158.187 245.373 156.736C246.738 155.243 247.421 153.195 247.421 150.592C247.421 148.032 246.738 146.027 245.373 144.576C244.007 143.125 242.258 142.4 240.125 142.4C237.991 142.4 236.242 143.125 234.877 144.576C233.511 146.027 232.829 148.032 232.829 150.592C232.829 153.195 233.511 155.243 234.877 156.736C236.242 158.187 237.991 158.912 240.125 158.912ZM276.926 137.472C278.163 135.893 279.763 134.72 281.726 133.952C283.731 133.141 286.014 132.736 288.574 132.736V143.68C287.464 143.552 286.547 143.488 285.822 143.488C283.219 143.488 281.171 144.192 279.678 145.6C278.227 147.008 277.502 149.163 277.502 152.064V168H265.342V133.312H276.926V137.472ZM338.776 132.736C343.042 132.736 346.434 134.016 348.952 136.576C351.512 139.136 352.792 142.997 352.792 148.16V168H340.632V150.144C340.632 147.712 340.162 145.92 339.224 144.768C338.328 143.616 337.048 143.04 335.384 143.04C333.549 143.04 332.077 143.68 330.968 144.96C329.858 146.24 329.304 148.181 329.304 150.784V168H317.144V150.144C317.144 145.408 315.394 143.04 311.896 143.04C310.018 143.04 308.525 143.68 307.416 144.96C306.306 146.24 305.752 148.181 305.752 150.784V168H293.592V133.312H305.176V136.96C306.456 135.552 307.97 134.507 309.72 133.824C311.512 133.099 313.453 132.736 315.544 132.736C317.976 132.736 320.152 133.184 322.072 134.08C323.992 134.976 325.549 136.341 326.744 138.176C328.109 136.427 329.837 135.083 331.928 134.144C334.018 133.205 336.301 132.736 338.776 132.736ZM395.412 168.896C391.785 168.896 388.265 168.448 384.852 167.552C381.438 166.656 378.665 165.461 376.532 163.968L380.692 154.624C382.697 155.947 385.022 157.013 387.668 157.824C390.313 158.635 392.916 159.04 395.476 159.04C400.34 159.04 402.772 157.824 402.772 155.392C402.772 154.112 402.068 153.173 400.66 152.576C399.294 151.936 397.076 151.275 394.003 150.592C390.633 149.867 387.817 149.099 385.556 148.288C383.294 147.435 381.353 146.091 379.732 144.256C378.11 142.421 377.299 139.947 377.299 136.832C377.299 134.101 378.046 131.648 379.54 129.472C381.033 127.253 383.252 125.504 386.196 124.224C389.182 122.944 392.83 122.304 397.14 122.304C400.084 122.304 402.985 122.645 405.844 123.328C408.702 123.968 411.22 124.928 413.396 126.208L409.492 135.616C405.225 133.312 401.086 132.16 397.076 132.16C394.558 132.16 392.724 132.544 391.572 133.312C390.42 134.037 389.844 134.997 389.844 136.192C389.844 137.387 390.526 138.283 391.892 138.88C393.257 139.477 395.454 140.096 398.484 140.736C401.897 141.461 404.713 142.251 406.932 143.104C409.193 143.915 411.134 145.237 412.756 147.072C414.42 148.864 415.252 151.317 415.252 154.432C415.252 157.12 414.505 159.552 413.012 161.728C411.518 163.904 409.278 165.653 406.292 166.976C403.305 168.256 399.678 168.896 395.412 168.896ZM420.529 133.312H432.689V168H420.529V133.312ZM426.609 129.472C424.39 129.472 422.598 128.853 421.233 127.616C419.868 126.379 419.185 124.843 419.185 123.008C419.185 121.173 419.868 119.637 421.233 118.4C422.598 117.163 424.39 116.544 426.609 116.544C428.828 116.544 430.62 117.141 431.985 118.336C433.35 119.488 434.033 120.981 434.033 122.816C434.033 124.736 433.35 126.336 431.985 127.616C430.62 128.853 428.828 129.472 426.609 129.472ZM477.904 133.312V161.664C477.904 168.107 476.154 172.928 472.656 176.128C469.157 179.371 464.122 180.992 457.552 180.992C454.138 180.992 450.938 180.608 447.952 179.84C444.965 179.072 442.426 177.941 440.336 176.448L444.752 167.936C446.16 169.088 447.93 169.984 450.064 170.624C452.24 171.307 454.373 171.648 456.464 171.648C459.664 171.648 462.01 170.944 463.504 169.536C464.997 168.128 465.744 166.037 465.744 163.264V162.112C463.397 164.843 459.962 166.208 455.44 166.208C452.368 166.208 449.53 165.525 446.928 164.16C444.325 162.752 442.256 160.789 440.72 158.272C439.184 155.712 438.416 152.768 438.416 149.44C438.416 146.155 439.184 143.253 440.72 140.736C442.256 138.176 444.325 136.213 446.928 134.848C449.53 133.44 452.368 132.736 455.44 132.736C460.389 132.736 464.016 134.336 466.32 137.536V133.312H477.904ZM458.32 156.544C460.496 156.544 462.288 155.883 463.696 154.56C465.146 153.237 465.872 151.531 465.872 149.44C465.872 147.349 465.168 145.664 463.76 144.384C462.352 143.061 460.538 142.4 458.32 142.4C456.101 142.4 454.266 143.061 452.816 144.384C451.408 145.664 450.704 147.349 450.704 149.44C450.704 151.531 451.429 153.237 452.88 154.56C454.33 155.883 456.144 156.544 458.32 156.544ZM508.309 132.736C512.618 132.736 516.074 134.016 518.677 136.576C521.322 139.136 522.645 142.997 522.645 148.16V168H510.485V150.144C510.485 145.408 508.586 143.04 504.789 143.04C502.698 143.04 501.013 143.723 499.733 145.088C498.495 146.453 497.877 148.501 497.877 151.232V168H485.717V133.312H497.301V137.088C498.666 135.68 500.287 134.613 502.165 133.888C504.042 133.12 506.09 132.736 508.309 132.736ZM567.451 133.312V168H555.867V164.544C553.606 167.232 550.192 168.576 545.627 168.576C542.47 168.576 539.59 167.851 536.987 166.4C534.427 164.907 532.379 162.795 530.843 160.064C529.35 157.333 528.603 154.176 528.603 150.592C528.603 147.008 529.35 143.872 530.843 141.184C532.379 138.453 534.427 136.363 536.987 134.912C539.59 133.461 542.47 132.736 545.627 132.736C549.723 132.736 552.944 133.931 555.291 136.32V133.312H567.451ZM548.187 158.912C550.32 158.912 552.07 158.187 553.435 156.736C554.8 155.243 555.483 153.195 555.483 150.592C555.483 148.032 554.8 146.027 553.435 144.576C552.07 143.125 550.32 142.4 548.187 142.4C546.054 142.4 544.304 143.125 542.939 144.576C541.574 146.027 540.891 148.032 540.891 150.592C540.891 153.195 541.574 155.243 542.939 156.736C544.304 158.187 546.054 158.912 548.187 158.912ZM588.783 168.576C584.516 168.576 581.188 167.488 578.799 165.312C576.452 163.093 575.279 159.936 575.279 155.84V120.512H587.439V155.2C587.439 156.48 587.759 157.461 588.399 158.144C589.082 158.827 590.02 159.168 591.215 159.168C592.196 159.168 593.114 158.955 593.967 158.528L594.479 167.68C592.644 168.277 590.746 168.576 588.783 168.576ZM611.45 168.576C608.548 168.576 605.69 168.256 602.874 167.616C600.058 166.933 597.796 166.059 596.09 164.992L599.738 156.672C601.316 157.653 603.194 158.443 605.37 159.04C607.546 159.595 609.7 159.872 611.833 159.872C613.796 159.872 615.183 159.68 615.994 159.296C616.847 158.869 617.274 158.272 617.274 157.504C617.274 156.736 616.762 156.203 615.738 155.904C614.756 155.563 613.178 155.243 611.002 154.944C608.228 154.603 605.86 154.155 603.898 153.6C601.978 153.045 600.314 152.021 598.906 150.528C597.498 149.035 596.794 146.944 596.794 144.256C596.794 142.037 597.455 140.075 598.778 138.368C600.1 136.619 602.02 135.253 604.538 134.272C607.098 133.248 610.148 132.736 613.69 132.736C616.207 132.736 618.703 132.992 621.178 133.504C623.652 134.016 625.722 134.741 627.386 135.68L623.738 143.936C620.666 142.229 617.338 141.376 613.753 141.376C611.834 141.376 610.426 141.611 609.53 142.08C608.634 142.507 608.186 143.083 608.186 143.808C608.186 144.619 608.676 145.195 609.658 145.536C610.639 145.835 612.26 146.155 614.522 146.496C617.38 146.923 619.748 147.413 621.626 147.968C623.503 148.523 625.124 149.547 626.49 151.04C627.898 152.491 628.602 154.539 628.602 157.184C628.602 159.36 627.94 161.323 626.618 163.072C625.295 164.779 623.332 166.123 620.73 167.104C618.17 168.085 615.076 168.576 611.45 168.576Z" fill="#010C05"/>
<path d="M404.956 85.9575C404.956 79.8688 407.503 74.0295 412.037 69.7241C416.571 65.4187 420.588 64 427 64C433.412 64 437.429 65.4187 441.963 69.7241C446.497 74.0295 449.044 79.8688 449.044 85.9575C449.044 107.741 456 110 456 110H398C398 110 404.956 107.741 404.956 85.9575Z" fill="#BE123C" stroke="#BE123C" stroke-width="4" stroke-linecap="round" stroke-linejoin="round"/>
<ellipse cx="426.592" cy="122.719" rx="7.65444" ry="7.28129" fill="#BE123C"/>
<rect x="410" y="80" width="34" height="6" rx="1" fill="#F0FDF4"/>
<rect x="418" y="88" width="26" height="6" rx="1" fill="#F0FDF4"/>
<rect x="410" y="88" width="6" height="6" rx="1" fill="#F0FDF4"/>
<rect x="410" y="96" width="20" height="6" rx="1" fill="#F0FDF4"/>
<rect x="432" y="96" width="12" height="6" rx="1" fill="#F0FDF4"/>
<path d="M117.241 219L112.951 212.85C112.771 212.87 112.501 212.88 112.141 212.88H107.401V219H103.501V198H112.141C113.961 198 115.541 198.3 116.881 198.9C118.241 199.5 119.281 200.36 120.001 201.48C120.721 202.6 121.081 203.93 121.081 205.47C121.081 207.05 120.691 208.41 119.911 209.55C119.151 210.69 118.051 211.54 116.611 212.1L121.441 219H117.241ZM117.151 205.47C117.151 204.13 116.711 203.1 115.831 202.38C114.951 201.66 113.661 201.3 111.961 201.3H107.401V209.67H111.961C113.661 209.67 114.951 209.31 115.831 208.59C116.711 207.85 117.151 206.81 117.151 205.47ZM132.704 216.03C134.444 216.03 135.894 215.45 137.054 214.29L139.034 216.6C138.334 217.46 137.434 218.11 136.334 218.55C135.234 218.99 133.994 219.21 132.614 219.21C130.854 219.21 129.304 218.86 127.964 218.16C126.624 217.46 125.584 216.49 124.844 215.25C124.124 213.99 123.764 212.57 123.764 210.99C123.764 209.43 124.114 208.03 124.814 206.79C125.534 205.53 126.514 204.55 127.754 203.85C129.014 203.15 130.434 202.8 132.014 202.8C133.514 202.8 134.874 203.13 136.094 203.79C137.334 204.43 138.314 205.36 139.034 206.58C139.754 207.78 140.114 209.19 140.114 210.81L127.844 213.21C128.224 214.13 128.834 214.83 129.674 215.31C130.514 215.79 131.524 216.03 132.704 216.03ZM132.014 205.8C130.634 205.8 129.514 206.25 128.654 207.15C127.814 208.05 127.394 209.26 127.394 210.78V210.81L136.454 209.07C136.194 208.09 135.664 207.3 134.864 206.7C134.084 206.1 133.134 205.8 132.014 205.8ZM159.377 202.98V219H155.807V216.93C155.187 217.69 154.417 218.26 153.497 218.64C152.597 219.02 151.597 219.21 150.497 219.21C148.937 219.21 147.537 218.87 146.297 218.19C145.077 217.51 144.117 216.55 143.417 215.31C142.737 214.07 142.397 212.63 142.397 210.99C142.397 209.35 142.737 207.92 143.417 206.7C144.117 205.46 145.077 204.5 146.297 203.82C147.537 203.14 148.937 202.8 150.497 202.8C151.537 202.8 152.487 202.98 153.347 203.34C154.227 203.7 154.987 204.23 155.627 204.93V202.98H159.377ZM150.917 216C152.297 216 153.437 215.54 154.337 214.62C155.237 213.7 155.687 212.49 155.687 210.99C155.687 209.49 155.237 208.28 154.337 207.36C153.437 206.44 152.297 205.98 150.917 205.98C149.537 205.98 148.397 206.44 147.497 207.36C146.617 208.28 146.177 209.49 146.177 210.99C146.177 212.49 146.617 213.7 147.497 214.62C148.397 215.54 149.537 216 150.917 216ZM171.633 219.21C169.973 219.21 168.483 218.86 167.163 218.16C165.843 217.46 164.813 216.49 164.073 215.25C163.333 213.99 162.963 212.57 162.963 210.99C162.963 209.41 163.333 208 164.073 206.76C164.813 205.52 165.833 204.55 167.133 203.85C168.453 203.15 169.953 202.8 171.633 202.8C173.213 202.8 174.593 203.12 175.773 203.76C176.973 204.4 177.873 205.32 178.473 206.52L175.593 208.2C175.133 207.46 174.553 206.91 173.853 206.55C173.173 206.17 172.423 205.98 171.603 205.98C170.203 205.98 169.043 206.44 168.123 207.36C167.203 208.26 166.743 209.47 166.743 210.99C166.743 212.51 167.193 213.73 168.093 214.65C169.013 215.55 170.183 216 171.603 216C172.423 216 173.173 215.82 173.853 215.46C174.553 215.08 175.133 214.52 175.593 213.78L178.473 215.46C177.853 216.66 176.943 217.59 175.743 218.25C174.563 218.89 173.193 219.21 171.633 219.21ZM190.568 218.13C190.128 218.49 189.588 218.76 188.948 218.94C188.328 219.12 187.668 219.21 186.968 219.21C185.208 219.21 183.848 218.75 182.888 217.83C181.928 216.91 181.448 215.57 181.448 213.81V199.44H185.198V203.1H189.488V206.1H185.198V213.72C185.198 214.5 185.388 215.1 185.768 215.52C186.168 215.92 186.718 216.12 187.418 216.12C188.258 216.12 188.958 215.9 189.518 215.46L190.568 218.13ZM193.668 202.98H197.418V219H193.668V202.98ZM195.558 200.34C194.878 200.34 194.308 200.13 193.848 199.71C193.388 199.27 193.158 198.73 193.158 198.09C193.158 197.45 193.388 196.92 193.848 196.5C194.308 196.06 194.878 195.84 195.558 195.84C196.238 195.84 196.808 196.05 197.268 196.47C197.728 196.87 197.958 197.38 197.958 198C197.958 198.66 197.728 199.22 197.268 199.68C196.828 200.12 196.258 200.34 195.558 200.34ZM217.34 202.98L210.47 219H206.6L199.73 202.98H203.63L208.61 214.86L213.74 202.98H217.34ZM226.864 216.03C228.604 216.03 230.054 215.45 231.214 214.29L233.194 216.6C232.494 217.46 231.594 218.11 230.494 218.55C229.394 218.99 228.154 219.21 226.774 219.21C225.014 219.21 223.464 218.86 222.124 218.16C220.784 217.46 219.744 216.49 219.004 215.25C218.284 213.99 217.924 212.57 217.924 210.99C217.924 209.43 218.274 208.03 218.974 206.79C219.694 205.53 220.674 204.55 221.914 203.85C223.174 203.15 224.594 202.8 226.174 202.8C227.674 202.8 229.034 203.13 230.254 203.79C231.494 204.43 232.474 205.36 233.194 206.58C233.914 207.78 234.274 209.19 234.274 210.81L222.004 213.21C222.384 214.13 222.994 214.83 223.834 215.31C224.674 215.79 225.684 216.03 226.864 216.03ZM226.174 205.8C224.794 205.8 223.674 206.25 222.814 207.15C221.974 208.05 221.554 209.26 221.554 210.78V210.81L230.614 209.07C230.354 208.09 229.824 207.3 229.024 206.7C228.244 206.1 227.294 205.8 226.174 205.8ZM261.828 202.98V219H258.258V216.93C257.638 217.69 256.868 218.26 255.948 218.64C255.048 219.02 254.048 219.21 252.948 219.21C251.388 219.21 249.988 218.87 248.748 218.19C247.528 217.51 246.568 216.55 245.868 215.31C245.188 214.07 244.848 212.63 244.848 210.99C244.848 209.35 245.188 207.92 245.868 206.7C246.568 205.46 247.528 204.5 248.748 203.82C249.988 203.14 251.388 202.8 252.948 202.8C253.988 202.8 254.938 202.98 255.798 203.34C256.678 203.7 257.438 204.23 258.078 204.93V202.98H261.828ZM253.368 216C254.748 216 255.888 215.54 256.788 214.62C257.688 213.7 258.138 212.49 258.138 210.99C258.138 209.49 257.688 208.28 256.788 207.36C255.888 206.44 254.748 205.98 253.368 205.98C251.988 205.98 250.848 206.44 249.948 207.36C249.068 208.28 248.628 209.49 248.628 210.99C248.628 212.49 249.068 213.7 249.948 214.62C250.848 215.54 251.988 216 253.368 216ZM275.824 202.8C277.844 202.8 279.464 203.39 280.684 204.57C281.904 205.75 282.514 207.5 282.514 209.82V219H278.764V210.3C278.764 208.9 278.434 207.85 277.774 207.15C277.114 206.43 276.174 206.07 274.954 206.07C273.574 206.07 272.484 206.49 271.684 207.33C270.884 208.15 270.484 209.34 270.484 210.9V219H266.734V202.98H270.304V205.05C270.924 204.31 271.704 203.75 272.644 203.37C273.584 202.99 274.644 202.8 275.824 202.8ZM303.108 196.74V219H299.508V216.93C298.888 217.69 298.118 218.26 297.198 218.64C296.298 219.02 295.298 219.21 294.198 219.21C292.658 219.21 291.268 218.87 290.028 218.19C288.808 217.51 287.848 216.55 287.148 215.31C286.448 214.05 286.098 212.61 286.098 210.99C286.098 209.37 286.448 207.94 287.148 206.7C287.848 205.46 288.808 204.5 290.028 203.82C291.268 203.14 292.658 202.8 294.198 202.8C295.258 202.8 296.228 202.98 297.108 203.34C297.988 203.7 298.738 204.24 299.358 204.96V196.74H303.108ZM294.648 216C295.548 216 296.358 215.8 297.078 215.4C297.798 214.98 298.368 214.39 298.788 213.63C299.208 212.87 299.418 211.99 299.418 210.99C299.418 209.99 299.208 209.11 298.788 208.35C298.368 207.59 297.798 207.01 297.078 206.61C296.358 206.19 295.548 205.98 294.648 205.98C293.748 205.98 292.938 206.19 292.218 206.61C291.498 207.01 290.928 207.59 290.508 208.35C290.088 209.11 289.878 209.99 289.878 210.99C289.878 211.99 290.088 212.87 290.508 213.63C290.928 214.39 291.498 214.98 292.218 215.4C292.938 215.8 293.748 216 294.648 216ZM322.335 199.56C320.755 199.56 319.965 200.42 319.965 202.14V203.1H324.375V206.1H320.055V219H316.305V202.08C316.305 200.38 316.805 199.03 317.805 198.03C318.805 197.03 320.225 196.53 322.065 196.53C323.485 196.53 324.605 196.82 325.425 197.4L324.375 200.22C323.775 199.78 323.095 199.56 322.335 199.56ZM342.391 202.98V219H338.821V216.96C338.221 217.68 337.471 218.24 336.571 218.64C335.671 219.02 334.701 219.21 333.661 219.21C331.521 219.21 329.831 218.62 328.591 217.44C327.371 216.24 326.761 214.47 326.761 212.13V202.98H330.511V211.62C330.511 213.06 330.831 214.14 331.471 214.86C332.131 215.56 333.061 215.91 334.261 215.91C335.601 215.91 336.661 215.5 337.441 214.68C338.241 213.84 338.641 212.64 338.641 211.08V202.98H342.391ZM352.581 219.21C350.921 219.21 349.621 218.76 348.681 217.86C347.761 216.94 347.301 215.65 347.301 213.99V196.74H351.051V213.72C351.051 215.32 351.801 216.12 353.301 216.12C353.801 216.12 354.251 216.02 354.651 215.82L354.831 218.82C354.131 219.08 353.381 219.21 352.581 219.21ZM362.659 219.21C360.999 219.21 359.699 218.76 358.759 217.86C357.839 216.94 357.379 215.65 357.379 213.99V196.74H361.129V213.72C361.129 215.32 361.879 216.12 363.379 216.12C363.879 216.12 364.329 216.02 364.729 215.82L364.909 218.82C364.209 219.08 363.459 219.21 362.659 219.21ZM382.967 202.98V216.57C382.967 222.21 380.197 225.03 374.657 225.03C373.197 225.03 371.797 224.83 370.457 224.43C369.137 224.05 368.047 223.49 367.187 222.75L368.867 219.93C369.547 220.51 370.377 220.97 371.357 221.31C372.337 221.65 373.367 221.82 374.447 221.82C376.087 221.82 377.287 221.42 378.047 220.62C378.827 219.84 379.217 218.63 379.217 216.99V216.24C378.617 216.9 377.887 217.41 377.027 217.77C376.167 218.11 375.237 218.28 374.237 218.28C372.097 218.28 370.407 217.69 369.167 216.51C367.947 215.33 367.337 213.56 367.337 211.2V202.98H371.087V210.72C371.087 212.14 371.407 213.21 372.047 213.93C372.707 214.63 373.637 214.98 374.837 214.98C376.177 214.98 377.237 214.57 378.017 213.75C378.817 212.93 379.217 211.74 379.217 210.18V202.98H382.967ZM405.168 218.13C404.728 218.49 404.188 218.76 403.548 218.94C402.928 219.12 402.268 219.21 401.568 219.21C399.808 219.21 398.448 218.75 397.488 217.83C396.528 216.91 396.048 215.57 396.048 213.81V199.44H399.798V203.1H404.088V206.1H399.798V213.72C399.798 214.5 399.988 215.1 400.368 215.52C400.768 215.92 401.318 216.12 402.018 216.12C402.858 216.12 403.558 215.9 404.118 215.46L405.168 218.13ZM423.778 202.98V216.57C423.778 222.21 421.008 225.03 415.468 225.03C414.008 225.03 412.608 224.83 411.268 224.43C409.948 224.05 408.858 223.49 407.998 222.75L409.678 219.93C410.358 220.51 411.188 220.97 412.168 221.31C413.148 221.65 414.178 221.82 415.258 221.82C416.898 221.82 418.098 221.42 418.858 220.62C419.638 219.84 420.028 218.63 420.028 216.99V216.24C419.428 216.9 418.698 217.41 417.838 217.77C416.978 218.11 416.048 218.28 415.048 218.28C412.908 218.28 411.218 217.69 409.978 216.51C408.758 215.33 408.148 213.56 408.148 211.2V202.98H411.898V210.72C411.898 212.14 412.218 213.21 412.858 213.93C413.518 214.63 414.448 214.98 415.648 214.98C416.988 214.98 418.048 214.57 418.828 213.75C419.628 212.93 420.028 211.74 420.028 210.18V202.98H423.778ZM437.568 202.8C439.128 202.8 440.518 203.14 441.738 203.82C442.978 204.5 443.948 205.46 444.648 206.7C445.348 207.94 445.698 209.37 445.698 210.99C445.698 212.61 445.348 214.05 444.648 215.31C443.948 216.55 442.978 217.51 441.738 218.19C440.518 218.87 439.128 219.21 437.568 219.21C435.408 219.21 433.698 218.49 432.438 217.05V224.82H428.688V202.98H432.258V205.08C432.878 204.32 433.638 203.75 434.538 203.37C435.458 202.99 436.468 202.8 437.568 202.8ZM437.148 216C438.528 216 439.658 215.54 440.538 214.62C441.438 213.7 441.888 212.49 441.888 210.99C441.888 209.49 441.438 208.28 440.538 207.36C439.658 206.44 438.528 205.98 437.148 205.98C436.248 205.98 435.438 206.19 434.718 206.61C433.998 207.01 433.428 207.59 433.008 208.35C432.588 209.11 432.378 209.99 432.378 210.99C432.378 211.99 432.588 212.87 433.008 213.63C433.428 214.39 433.998 214.98 434.718 215.4C435.438 215.8 436.248 216 437.148 216ZM456.874 216.03C458.614 216.03 460.064 215.45 461.224 214.29L463.204 216.6C462.504 217.46 461.604 218.11 460.504 218.55C459.404 218.99 458.164 219.21 456.784 219.21C455.024 219.21 453.474 218.86 452.134 218.16C450.794 217.46 449.754 216.49 449.014 215.25C448.294 213.99 447.934 212.57 447.934 210.99C447.934 209.43 448.284 208.03 448.984 206.79C449.704 205.53 450.684 204.55 451.924 203.85C453.184 203.15 454.604 202.8 456.184 202.8C457.684 202.8 459.044 203.13 460.264 203.79C461.504 204.43 462.484 205.36 463.204 206.58C463.924 207.78 464.284 209.19 464.284 210.81L452.014 213.21C452.394 214.13 453.004 214.83 453.844 215.31C454.684 215.79 455.694 216.03 456.874 216.03ZM456.184 205.8C454.804 205.8 453.684 206.25 452.824 207.15C451.984 208.05 451.564 209.26 451.564 210.78V210.81L460.624 209.07C460.364 208.09 459.834 207.3 459.034 206.7C458.254 206.1 457.304 205.8 456.184 205.8ZM467.37 209.1H475.62V212.22H467.37V209.1ZM484.673 219.21C483.373 219.21 482.103 219.04 480.863 218.7C479.623 218.36 478.633 217.93 477.893 217.41L479.333 214.56C480.053 215.04 480.913 215.43 481.913 215.73C482.933 216.01 483.933 216.15 484.913 216.15C487.153 216.15 488.273 215.56 488.273 214.38C488.273 213.82 487.983 213.43 487.403 213.21C486.843 212.99 485.933 212.78 484.673 212.58C483.353 212.38 482.273 212.15 481.433 211.89C480.613 211.63 479.893 211.18 479.273 210.54C478.673 209.88 478.373 208.97 478.373 207.81C478.373 206.29 479.003 205.08 480.263 204.18C481.543 203.26 483.263 202.8 485.423 202.8C486.523 202.8 487.623 202.93 488.723 203.19C489.823 203.43 490.723 203.76 491.423 204.18L489.983 207.03C488.623 206.23 487.093 205.83 485.393 205.83C484.293 205.83 483.453 206 482.873 206.34C482.313 206.66 482.033 207.09 482.033 207.63C482.033 208.23 482.333 208.66 482.933 208.92C483.553 209.16 484.503 209.39 485.783 209.61C487.063 209.81 488.113 210.04 488.933 210.3C489.753 210.56 490.453 211 491.033 211.62C491.633 212.24 491.933 213.12 491.933 214.26C491.933 215.76 491.283 216.96 489.983 217.86C488.683 218.76 486.913 219.21 484.673 219.21ZM510.822 202.98V219H507.252V216.93C506.632 217.69 505.862 218.26 504.942 218.64C504.042 219.02 503.042 219.21 501.942 219.21C500.382 219.21 498.982 218.87 497.742 218.19C496.522 217.51 495.562 216.55 494.862 215.31C494.182 214.07 493.842 212.63 493.842 210.99C493.842 209.35 494.182 207.92 494.862 206.7C495.562 205.46 496.522 204.5 497.742 203.82C498.982 203.14 500.382 202.8 501.942 202.8C502.982 202.8 503.932 202.98 504.792 203.34C505.672 203.7 506.432 204.23 507.072 204.93V202.98H510.822ZM502.362 216C503.742 216 504.882 215.54 505.782 214.62C506.682 213.7 507.132 212.49 507.132 210.99C507.132 209.49 506.682 208.28 505.782 207.36C504.882 206.44 503.742 205.98 502.362 205.98C500.982 205.98 499.842 206.44 498.942 207.36C498.062 208.28 497.622 209.49 497.622 210.99C497.622 212.49 498.062 213.7 498.942 214.62C499.842 215.54 500.982 216 502.362 216ZM521.759 199.56C520.179 199.56 519.389 200.42 519.389 202.14V203.1H523.799V206.1H519.479V219H515.729V202.08C515.729 200.38 516.229 199.03 517.229 198.03C518.229 197.03 519.649 196.53 521.489 196.53C522.909 196.53 524.029 196.82 524.849 197.4L523.799 200.22C523.199 199.78 522.519 199.56 521.759 199.56ZM533.69 216.03C535.43 216.03 536.88 215.45 538.04 214.29L540.02 216.6C539.32 217.46 538.42 218.11 537.32 218.55C536.22 218.99 534.98 219.21 533.6 219.21C531.84 219.21 530.29 218.86 528.95 218.16C527.61 217.46 526.57 216.49 525.83 215.25C525.11 213.99 524.75 212.57 524.75 210.99C524.75 209.43 525.1 208.03 525.8 206.79C526.52 205.53 527.5 204.55 528.74 203.85C530 203.15 531.42 202.8 533 202.8C534.5 202.8 535.86 203.13 537.08 203.79C538.32 204.43 539.3 205.36 540.02 206.58C540.74 207.78 541.1 209.19 541.1 210.81L528.83 213.21C529.21 214.13 529.82 214.83 530.66 215.31C531.5 215.79 532.51 216.03 533.69 216.03ZM533 205.8C531.62 205.8 530.5 206.25 529.64 207.15C528.8 208.05 528.38 209.26 528.38 210.78V210.81L537.44 209.07C537.18 208.09 536.65 207.3 535.85 206.7C535.07 206.1 534.12 205.8 533 205.8ZM559.024 199.56C557.444 199.56 556.654 200.42 556.654 202.14V203.1H561.064V206.1H556.744V219H552.994V202.08C552.994 200.38 553.494 199.03 554.494 198.03C555.494 197.03 556.914 196.53 558.754 196.53C560.174 196.53 561.294 196.82 562.114 197.4L561.064 200.22C560.464 199.78 559.784 199.56 559.024 199.56ZM570.536 219.21C568.916 219.21 567.456 218.86 566.156 218.16C564.856 217.46 563.836 216.49 563.096 215.25C562.376 213.99 562.016 212.57 562.016 210.99C562.016 209.41 562.376 208 563.096 206.76C563.836 205.52 564.856 204.55 566.156 203.85C567.456 203.15 568.916 202.8 570.536 202.8C572.176 202.8 573.646 203.15 574.946 203.85C576.246 204.55 577.256 205.52 577.976 206.76C578.716 208 579.086 209.41 579.086 210.99C579.086 212.57 578.716 213.99 577.976 215.25C577.256 216.49 576.246 217.46 574.946 218.16C573.646 218.86 572.176 219.21 570.536 219.21ZM570.536 216C571.916 216 573.056 215.54 573.956 214.62C574.856 213.7 575.306 212.49 575.306 210.99C575.306 209.49 574.856 208.28 573.956 207.36C573.056 206.44 571.916 205.98 570.536 205.98C569.156 205.98 568.016 206.44 567.116 207.36C566.236 208.28 565.796 209.49 565.796 210.99C565.796 212.49 566.236 213.7 567.116 214.62C568.016 215.54 569.156 216 570.536 216ZM586.242 205.32C587.322 203.64 589.222 202.8 591.942 202.8V206.37C591.622 206.31 591.332 206.28 591.072 206.28C589.612 206.28 588.472 206.71 587.652 207.57C586.832 208.41 586.422 209.63 586.422 211.23V219H582.672V202.98H586.242V205.32ZM615.343 202.8C617.363 202.8 618.963 203.39 620.143 204.57C621.323 205.73 621.913 207.48 621.913 209.82V219H618.163V210.3C618.163 208.9 617.853 207.85 617.233 207.15C616.613 206.43 615.723 206.07 614.563 206.07C613.303 206.07 612.293 206.49 611.533 207.33C610.773 208.15 610.393 209.33 610.393 210.87V219H606.643V210.3C606.643 208.9 606.333 207.85 605.713 207.15C605.093 206.43 604.203 206.07 603.043 206.07C601.763 206.07 600.743 206.48 599.983 207.3C599.243 208.12 598.873 209.31 598.873 210.87V219H595.123V202.98H598.693V205.02C599.293 204.3 600.043 203.75 600.943 203.37C601.843 202.99 602.843 202.8 603.943 202.8C605.143 202.8 606.203 203.03 607.123 203.49C608.063 203.93 608.803 204.59 609.343 205.47C610.003 204.63 610.853 203.98 611.893 203.52C612.933 203.04 614.083 202.8 615.343 202.8ZM639.946 219.21C638.646 219.21 637.376 219.04 636.136 218.7C634.896 218.36 633.906 217.93 633.166 217.41L634.606 214.56C635.326 215.04 636.186 215.43 637.186 215.73C638.206 216.01 639.206 216.15 640.186 216.15C642.426 216.15 643.546 215.56 643.546 214.38C643.546 213.82 643.256 213.43 642.676 213.21C642.116 212.99 641.206 212.78 639.946 212.58C638.626 212.38 637.546 212.15 636.706 211.89C635.886 211.63 635.166 211.18 634.546 210.54C633.946 209.88 633.646 208.97 633.646 207.81C633.646 206.29 634.276 205.08 635.536 204.18C636.816 203.26 638.536 202.8 640.696 202.8C641.796 202.8 642.896 202.93 643.996 203.19C645.096 203.43 645.996 203.76 646.696 204.18L645.256 207.03C643.896 206.23 642.366 205.83 640.666 205.83C639.566 205.83 638.726 206 638.146 206.34C637.586 206.66 637.306 207.09 637.306 207.63C637.306 208.23 637.606 208.66 638.206 208.92C638.826 209.16 639.776 209.39 641.056 209.61C642.336 209.81 643.386 210.04 644.206 210.3C645.026 210.56 645.726 211 646.306 211.62C646.906 212.24 647.206 213.12 647.206 214.26C647.206 215.76 646.556 216.96 645.256 217.86C643.956 218.76 642.186 219.21 639.946 219.21ZM659.436 218.13C658.996 218.49 658.456 218.76 657.816 218.94C657.196 219.12 656.536 219.21 655.836 219.21C654.076 219.21 652.716 218.75 651.756 217.83C650.796 216.91 650.316 215.57 650.316 213.81V199.44H654.066V203.1H658.356V206.1H654.066V213.72C654.066 214.5 654.256 215.1 654.636 215.52C655.036 215.92 655.586 216.12 656.286 216.12C657.126 216.12 657.826 215.9 658.386 215.46L659.436 218.13ZM677.668 202.98V219H674.098V216.93C673.478 217.69 672.708 218.26 671.788 218.64C670.888 219.02 669.888 219.21 668.788 219.21C667.228 219.21 665.828 218.87 664.588 218.19C663.368 217.51 662.408 216.55 661.708 215.31C661.028 214.07 660.688 212.63 660.688 210.99C660.688 209.35 661.028 207.92 661.708 206.7C662.408 205.46 663.368 204.5 664.588 203.82C665.828 203.14 667.228 202.8 668.788 202.8C669.828 202.8 670.778 202.98 671.638 203.34C672.518 203.7 673.278 204.23 673.918 204.93V202.98H677.668ZM669.208 216C670.588 216 671.728 215.54 672.628 214.62C673.528 213.7 673.978 212.49 673.978 210.99C673.978 209.49 673.528 208.28 672.628 207.36C671.728 206.44 670.588 205.98 669.208 205.98C667.828 205.98 666.688 206.44 665.788 207.36C664.908 208.28 664.468 209.49 664.468 210.99C664.468 212.49 664.908 213.7 665.788 214.62C666.688 215.54 667.828 216 669.208 216ZM691.574 218.13C691.134 218.49 690.594 218.76 689.954 218.94C689.334 219.12 688.674 219.21 687.974 219.21C686.214 219.21 684.854 218.75 683.894 217.83C682.934 216.91 682.454 215.57 682.454 213.81V199.44H686.204V203.1H690.494V206.1H686.204V213.72C686.204 214.5 686.394 215.1 686.774 215.52C687.174 215.92 687.724 216.12 688.424 216.12C689.264 216.12 689.964 215.9 690.524 215.46L691.574 218.13ZM701.767 216.03C703.507 216.03 704.957 215.45 706.117 214.29L708.097 216.6C707.397 217.46 706.497 218.11 705.397 218.55C704.297 218.99 703.057 219.21 701.677 219.21C699.917 219.21 698.367 218.86 697.027 218.16C695.687 217.46 694.647 216.49 693.907 215.25C693.187 213.99 692.827 212.57 692.827 210.99C692.827 209.43 693.177 208.03 693.877 206.79C694.597 205.53 695.577 204.55 696.817 203.85C698.077 203.15 699.497 202.8 701.077 202.8C702.577 202.8 703.937 203.13 705.157 203.79C706.397 204.43 707.377 205.36 708.097 206.58C708.817 207.78 709.177 209.19 709.177 210.81L696.907 213.21C697.287 214.13 697.897 214.83 698.737 215.31C699.577 215.79 700.587 216.03 701.767 216.03ZM701.077 205.8C699.697 205.8 698.577 206.25 697.717 207.15C696.877 208.05 696.457 209.26 696.457 210.78V210.81L705.517 209.07C705.257 208.09 704.727 207.3 703.927 206.7C703.147 206.1 702.197 205.8 701.077 205.8ZM179.303 235.8C181.323 235.8 182.923 236.39 184.103 237.57C185.283 238.73 185.873 240.48 185.873 242.82V252H182.123V243.3C182.123 241.9 181.813 240.85 181.193 240.15C180.573 239.43 179.683 239.07 178.523 239.07C177.263 239.07 176.253 239.49 175.493 240.33C174.733 241.15 174.353 242.33 174.353 243.87V252H170.603V243.3C170.603 241.9 170.293 240.85 169.673 240.15C169.053 239.43 168.163 239.07 167.003 239.07C165.723 239.07 164.703 239.48 163.943 240.3C163.203 241.12 162.833 242.31 162.833 243.87V252H159.083V235.98H162.653V238.02C163.253 237.3 164.003 236.75 164.903 236.37C165.803 235.99 166.803 235.8 167.903 235.8C169.103 235.8 170.163 236.03 171.083 236.49C172.023 236.93 172.763 237.59 173.303 238.47C173.963 237.63 174.813 236.98 175.853 236.52C176.893 236.04 178.043 235.8 179.303 235.8ZM206.472 235.98V252H202.902V249.93C202.282 250.69 201.512 251.26 200.592 251.64C199.692 252.02 198.692 252.21 197.592 252.21C196.032 252.21 194.632 251.87 193.392 251.19C192.172 250.51 191.212 249.55 190.512 248.31C189.832 247.07 189.492 245.63 189.492 243.99C189.492 242.35 189.832 240.92 190.512 239.7C191.212 238.46 192.172 237.5 193.392 236.82C194.632 236.14 196.032 235.8 197.592 235.8C198.632 235.8 199.582 235.98 200.442 236.34C201.322 236.7 202.082 237.23 202.722 237.93V235.98H206.472ZM198.012 249C199.392 249 200.532 248.54 201.432 247.62C202.332 246.7 202.782 245.49 202.782 243.99C202.782 242.49 202.332 241.28 201.432 240.36C200.532 239.44 199.392 238.98 198.012 238.98C196.632 238.98 195.492 239.44 194.592 240.36C193.712 241.28 193.272 242.49 193.272 243.99C193.272 245.49 193.712 246.7 194.592 247.62C195.492 248.54 196.632 249 198.012 249ZM220.468 235.8C222.488 235.8 224.108 236.39 225.328 237.57C226.548 238.75 227.158 240.5 227.158 242.82V252H223.408V243.3C223.408 241.9 223.078 240.85 222.418 240.15C221.758 239.43 220.818 239.07 219.598 239.07C218.218 239.07 217.128 239.49 216.328 240.33C215.528 241.15 215.128 242.34 215.128 243.9V252H211.378V235.98H214.948V238.05C215.568 237.31 216.348 236.75 217.288 236.37C218.228 235.99 219.288 235.8 220.468 235.8ZM247.722 235.98V252H244.152V249.93C243.532 250.69 242.762 251.26 241.842 251.64C240.942 252.02 239.942 252.21 238.842 252.21C237.282 252.21 235.882 251.87 234.642 251.19C233.422 250.51 232.462 249.55 231.762 248.31C231.082 247.07 230.742 245.63 230.742 243.99C230.742 242.35 231.082 240.92 231.762 239.7C232.462 238.46 233.422 237.5 234.642 236.82C235.882 236.14 237.282 235.8 238.842 235.8C239.882 235.8 240.832 235.98 241.692 236.34C242.572 236.7 243.332 237.23 243.972 237.93V235.98H247.722ZM239.262 249C240.642 249 241.782 248.54 242.682 247.62C243.582 246.7 244.032 245.49 244.032 243.99C244.032 242.49 243.582 241.28 242.682 240.36C241.782 239.44 240.642 238.98 239.262 238.98C237.882 238.98 236.742 239.44 235.842 240.36C234.962 241.28 234.522 242.49 234.522 243.99C234.522 245.49 234.962 246.7 235.842 247.62C236.742 248.54 237.882 249 239.262 249ZM268.528 235.98V249.57C268.528 255.21 265.648 258.03 259.888 258.03C258.348 258.03 256.888 257.83 255.508 257.43C254.128 257.05 252.988 256.49 252.088 255.75L253.768 252.93C254.468 253.51 255.348 253.97 256.408 254.31C257.488 254.67 258.578 254.85 259.678 254.85C261.438 254.85 262.728 254.45 263.548 253.65C264.368 252.85 264.778 251.63 264.778 249.99V249.15C264.138 249.85 263.358 250.38 262.438 250.74C261.518 251.1 260.508 251.28 259.408 251.28C257.888 251.28 256.508 250.96 255.268 250.32C254.048 249.66 253.078 248.74 252.358 247.56C251.658 246.38 251.308 245.03 251.308 243.51C251.308 241.99 251.658 240.65 252.358 239.49C253.078 238.31 254.048 237.4 255.268 236.76C256.508 236.12 257.888 235.8 259.408 235.8C260.568 235.8 261.618 235.99 262.558 236.37C263.518 236.75 264.318 237.33 264.958 238.11V235.98H268.528ZM259.978 248.1C261.398 248.1 262.558 247.68 263.458 246.84C264.378 245.98 264.838 244.87 264.838 243.51C264.838 242.17 264.378 241.08 263.458 240.24C262.558 239.4 261.398 238.98 259.978 238.98C258.538 238.98 257.358 239.4 256.438 240.24C255.538 241.08 255.088 242.17 255.088 243.51C255.088 244.87 255.538 245.98 256.438 246.84C257.358 247.68 258.538 248.1 259.978 248.1ZM281.078 249.03C282.818 249.03 284.268 248.45 285.428 247.29L287.408 249.6C286.708 250.46 285.808 251.11 284.708 251.55C283.608 251.99 282.368 252.21 280.988 252.21C279.228 252.21 277.678 251.86 276.338 251.16C274.998 250.46 273.958 249.49 273.218 248.25C272.498 246.99 272.138 245.57 272.138 243.99C272.138 242.43 272.488 241.03 273.188 239.79C273.908 238.53 274.888 237.55 276.128 236.85C277.388 236.15 278.808 235.8 280.388 235.8C281.888 235.8 283.248 236.13 284.468 236.79C285.708 237.43 286.688 238.36 287.408 239.58C288.128 240.78 288.488 242.19 288.488 243.81L276.218 246.21C276.598 247.13 277.208 247.83 278.048 248.31C278.888 248.79 279.898 249.03 281.078 249.03ZM280.388 238.8C279.008 238.8 277.888 239.25 277.028 240.15C276.188 241.05 275.768 242.26 275.768 243.78V243.81L284.828 242.07C284.568 241.09 284.038 240.3 283.238 239.7C282.458 239.1 281.508 238.8 280.388 238.8ZM312.311 235.8C314.331 235.8 315.931 236.39 317.111 237.57C318.291 238.73 318.881 240.48 318.881 242.82V252H315.131V243.3C315.131 241.9 314.821 240.85 314.201 240.15C313.581 239.43 312.691 239.07 311.531 239.07C310.271 239.07 309.261 239.49 308.501 240.33C307.741 241.15 307.361 242.33 307.361 243.87V252H303.611V243.3C303.611 241.9 303.301 240.85 302.681 240.15C302.061 239.43 301.171 239.07 300.011 239.07C298.731 239.07 297.711 239.48 296.951 240.3C296.211 241.12 295.841 242.31 295.841 243.87V252H292.091V235.98H295.661V238.02C296.261 237.3 297.011 236.75 297.911 236.37C298.811 235.99 299.811 235.8 300.911 235.8C302.111 235.8 303.171 236.03 304.091 236.49C305.031 236.93 305.771 237.59 306.311 238.47C306.971 237.63 307.821 236.98 308.861 236.52C309.901 236.04 311.051 235.8 312.311 235.8ZM331.439 249.03C333.179 249.03 334.629 248.45 335.789 247.29L337.769 249.6C337.069 250.46 336.169 251.11 335.069 251.55C333.969 251.99 332.729 252.21 331.349 252.21C329.589 252.21 328.039 251.86 326.699 251.16C325.359 250.46 324.319 249.49 323.579 248.25C322.859 246.99 322.499 245.57 322.499 243.99C322.499 242.43 322.849 241.03 323.549 239.79C324.269 238.53 325.249 237.55 326.489 236.85C327.749 236.15 329.169 235.8 330.749 235.8C332.249 235.8 333.609 236.13 334.829 236.79C336.069 237.43 337.049 238.36 337.769 239.58C338.489 240.78 338.849 242.19 338.849 243.81L326.579 246.21C326.959 247.13 327.569 247.83 328.409 248.31C329.249 248.79 330.259 249.03 331.439 249.03ZM330.749 238.8C329.369 238.8 328.249 239.25 327.389 240.15C326.549 241.05 326.129 242.26 326.129 243.78V243.81L335.189 242.07C334.929 241.09 334.399 240.3 333.599 239.7C332.819 239.1 331.869 238.8 330.749 238.8ZM351.542 235.8C353.562 235.8 355.182 236.39 356.402 237.57C357.622 238.75 358.232 240.5 358.232 242.82V252H354.482V243.3C354.482 241.9 354.152 240.85 353.492 240.15C352.832 239.43 351.892 239.07 350.672 239.07C349.292 239.07 348.202 239.49 347.402 240.33C346.602 241.15 346.202 242.34 346.202 243.9V252H342.452V235.98H346.022V238.05C346.642 237.31 347.422 236.75 348.362 236.37C349.302 235.99 350.362 235.8 351.542 235.8ZM371.989 251.13C371.549 251.49 371.009 251.76 370.369 251.94C369.749 252.12 369.089 252.21 368.389 252.21C366.629 252.21 365.269 251.75 364.309 250.83C363.349 249.91 362.869 248.57 362.869 246.81V232.44H366.619V236.1H370.909V239.1H366.619V246.72C366.619 247.5 366.809 248.1 367.189 248.52C367.589 248.92 368.139 249.12 368.839 249.12C369.679 249.12 370.379 248.9 370.939 248.46L371.989 251.13ZM381.629 226.74H384.989L375.089 255H371.729L381.629 226.74ZM400.314 235.98L393.444 252H389.574L382.704 235.98H386.604L391.584 247.86L396.714 235.98H400.314ZM417.878 235.98V252H414.308V249.93C413.688 250.69 412.918 251.26 411.998 251.64C411.098 252.02 410.098 252.21 408.998 252.21C407.438 252.21 406.038 251.87 404.798 251.19C403.578 250.51 402.618 249.55 401.918 248.31C401.238 247.07 400.898 245.63 400.898 243.99C400.898 242.35 401.238 240.92 401.918 239.7C402.618 238.46 403.578 237.5 404.798 236.82C406.038 236.14 407.438 235.8 408.998 235.8C410.038 235.8 410.988 235.98 411.848 236.34C412.728 236.7 413.488 237.23 414.128 237.93V235.98H417.878ZM409.418 249C410.798 249 411.938 248.54 412.838 247.62C413.738 246.7 414.188 245.49 414.188 243.99C414.188 242.49 413.738 241.28 412.838 240.36C411.938 239.44 410.798 238.98 409.418 238.98C408.038 238.98 406.898 239.44 405.998 240.36C405.118 241.28 404.678 242.49 404.678 243.99C404.678 245.49 405.118 246.7 405.998 247.62C406.898 248.54 408.038 249 409.418 249ZM428.064 252.21C426.404 252.21 425.104 251.76 424.164 250.86C423.244 249.94 422.784 248.65 422.784 246.99V229.74H426.534V246.72C426.534 248.32 427.284 249.12 428.784 249.12C429.284 249.12 429.734 249.02 430.134 248.82L430.314 251.82C429.614 252.08 428.864 252.21 428.064 252.21ZM432.862 235.98H436.612V252H432.862V235.98ZM434.752 233.34C434.072 233.34 433.502 233.13 433.042 232.71C432.582 232.27 432.352 231.73 432.352 231.09C432.352 230.45 432.582 229.92 433.042 229.5C433.502 229.06 434.072 228.84 434.752 228.84C435.432 228.84 436.002 229.05 436.462 229.47C436.922 229.87 437.152 230.38 437.152 231C437.152 231.66 436.922 232.22 436.462 232.68C436.022 233.12 435.452 233.34 434.752 233.34ZM457.224 229.74V252H453.624V249.93C453.004 250.69 452.234 251.26 451.314 251.64C450.414 252.02 449.414 252.21 448.314 252.21C446.774 252.21 445.384 251.87 444.144 251.19C442.924 250.51 441.964 249.55 441.264 248.31C440.564 247.05 440.214 245.61 440.214 243.99C440.214 242.37 440.564 240.94 441.264 239.7C441.964 238.46 442.924 237.5 444.144 236.82C445.384 236.14 446.774 235.8 448.314 235.8C449.374 235.8 450.344 235.98 451.224 236.34C452.104 236.7 452.854 237.24 453.474 237.96V229.74H457.224ZM448.764 249C449.664 249 450.474 248.8 451.194 248.4C451.914 247.98 452.484 247.39 452.904 246.63C453.324 245.87 453.534 244.99 453.534 243.99C453.534 242.99 453.324 242.11 452.904 241.35C452.484 240.59 451.914 240.01 451.194 239.61C450.474 239.19 449.664 238.98 448.764 238.98C447.864 238.98 447.054 239.19 446.334 239.61C445.614 240.01 445.044 240.59 444.624 241.35C444.204 242.11 443.994 242.99 443.994 243.99C443.994 244.99 444.204 245.87 444.624 246.63C445.044 247.39 445.614 247.98 446.334 248.4C447.054 248.8 447.864 249 448.764 249ZM477.79 235.98V252H474.22V249.93C473.6 250.69 472.83 251.26 471.91 251.64C471.01 252.02 470.01 252.21 468.91 252.21C467.35 252.21 465.95 251.87 464.71 251.19C463.49 250.51 462.53 249.55 461.83 248.31C461.15 247.07 460.81 245.63 460.81 243.99C460.81 242.35 461.15 240.92 461.83 239.7C462.53 238.46 463.49 237.5 464.71 236.82C465.95 236.14 467.35 235.8 468.91 235.8C469.95 235.8 470.9 235.98 471.76 236.34C472.64 236.7 473.4 237.23 474.04 237.93V235.98H477.79ZM469.33 249C470.71 249 471.85 248.54 472.75 247.62C473.65 246.7 474.1 245.49 474.1 243.99C474.1 242.49 473.65 241.28 472.75 240.36C471.85 239.44 470.71 238.98 469.33 238.98C467.95 238.98 466.81 239.44 465.91 240.36C465.03 241.28 464.59 242.49 464.59 243.99C464.59 245.49 465.03 246.7 465.91 247.62C466.81 248.54 467.95 249 469.33 249ZM491.696 251.13C491.256 251.49 490.716 251.76 490.076 251.94C489.456 252.12 488.796 252.21 488.096 252.21C486.336 252.21 484.976 251.75 484.016 250.83C483.056 249.91 482.576 248.57 482.576 246.81V232.44H486.326V236.1H490.616V239.1H486.326V246.72C486.326 247.5 486.516 248.1 486.896 248.52C487.296 248.92 487.846 249.12 488.546 249.12C489.386 249.12 490.086 248.9 490.646 248.46L491.696 251.13ZM494.796 235.98H498.546V252H494.796V235.98ZM496.686 233.34C496.006 233.34 495.436 233.13 494.976 232.71C494.516 232.27 494.286 231.73 494.286 231.09C494.286 230.45 494.516 229.92 494.976 229.5C495.436 229.06 496.006 228.84 496.686 228.84C497.366 228.84 497.936 229.05 498.396 229.47C498.856 229.87 499.086 230.38 499.086 231C499.086 231.66 498.856 232.22 498.396 232.68C497.956 233.12 497.386 233.34 496.686 233.34ZM510.668 252.21C509.048 252.21 507.588 251.86 506.288 251.16C504.988 250.46 503.968 249.49 503.228 248.25C502.508 246.99 502.148 245.57 502.148 243.99C502.148 242.41 502.508 241 503.228 239.76C503.968 238.52 504.988 237.55 506.288 236.85C507.588 236.15 509.048 235.8 510.668 235.8C512.308 235.8 513.778 236.15 515.078 236.85C516.378 237.55 517.388 238.52 518.108 239.76C518.848 241 519.218 242.41 519.218 243.99C519.218 245.57 518.848 246.99 518.108 248.25C517.388 249.49 516.378 250.46 515.078 251.16C513.778 251.86 512.308 252.21 510.668 252.21ZM510.668 249C512.048 249 513.188 248.54 514.088 247.62C514.988 246.7 515.438 245.49 515.438 243.99C515.438 242.49 514.988 241.28 514.088 240.36C513.188 239.44 512.048 238.98 510.668 238.98C509.288 238.98 508.148 239.44 507.248 240.36C506.368 241.28 505.928 242.49 505.928 243.99C505.928 245.49 506.368 246.7 507.248 247.62C508.148 248.54 509.288 249 510.668 249ZM531.894 235.8C533.914 235.8 535.534 236.39 536.754 237.57C537.974 238.75 538.584 240.5 538.584 242.82V252H534.834V243.3C534.834 241.9 534.504 240.85 533.844 240.15C533.184 239.43 532.244 239.07 531.024 239.07C529.644 239.07 528.554 239.49 527.754 240.33C526.954 241.15 526.554 242.34 526.554 243.9V252H522.804V235.98H526.374V238.05C526.994 237.31 527.774 236.75 528.714 236.37C529.654 235.99 530.714 235.8 531.894 235.8ZM556.912 252.21C555.252 252.21 553.952 251.76 553.012 250.86C552.092 249.94 551.632 248.65 551.632 246.99V229.74H555.382V246.72C555.382 248.32 556.132 249.12 557.632 249.12C558.132 249.12 558.582 249.02 558.982 248.82L559.162 251.82C558.462 252.08 557.712 252.21 556.912 252.21ZM561.71 235.98H565.46V252H561.71V235.98ZM563.6 233.34C562.92 233.34 562.35 233.13 561.89 232.71C561.43 232.27 561.2 231.73 561.2 231.09C561.2 230.45 561.43 229.92 561.89 229.5C562.35 229.06 562.92 228.84 563.6 228.84C564.28 228.84 564.85 229.05 565.31 229.47C565.77 229.87 566 230.38 566 231C566 231.66 565.77 232.22 565.31 232.68C564.87 233.12 564.3 233.34 563.6 233.34ZM579.262 235.8C580.822 235.8 582.212 236.14 583.432 236.82C584.672 237.5 585.642 238.46 586.342 239.7C587.042 240.94 587.392 242.37 587.392 243.99C587.392 245.61 587.042 247.05 586.342 248.31C585.642 249.55 584.672 250.51 583.432 251.19C582.212 251.87 580.822 252.21 579.262 252.21C578.162 252.21 577.152 252.02 576.232 251.64C575.332 251.26 574.572 250.69 573.952 249.93V252H570.382V229.74H574.132V237.93C574.772 237.23 575.522 236.7 576.382 236.34C577.262 235.98 578.222 235.8 579.262 235.8ZM578.842 249C580.222 249 581.352 248.54 582.232 247.62C583.132 246.7 583.582 245.49 583.582 243.99C583.582 242.49 583.132 241.28 582.232 240.36C581.352 239.44 580.222 238.98 578.842 238.98C577.942 238.98 577.132 239.19 576.412 239.61C575.692 240.01 575.122 240.59 574.702 241.35C574.282 242.11 574.072 242.99 574.072 243.99C574.072 244.99 574.282 245.87 574.702 246.63C575.122 247.39 575.692 247.98 576.412 248.4C577.132 248.8 577.942 249 578.842 249ZM594.518 238.32C595.598 236.64 597.498 235.8 600.218 235.8V239.37C599.898 239.31 599.608 239.28 599.348 239.28C597.888 239.28 596.748 239.71 595.928 240.57C595.108 241.41 594.698 242.63 594.698 244.23V252H590.948V235.98H594.518V238.32ZM618.913 235.98V252H615.343V249.93C614.723 250.69 613.953 251.26 613.033 251.64C612.133 252.02 611.133 252.21 610.033 252.21C608.473 252.21 607.073 251.87 605.833 251.19C604.613 250.51 603.653 249.55 602.953 248.31C602.273 247.07 601.933 245.63 601.933 243.99C601.933 242.35 602.273 240.92 602.953 239.7C603.653 238.46 604.613 237.5 605.833 236.82C607.073 236.14 608.473 235.8 610.033 235.8C611.073 235.8 612.023 235.98 612.883 236.34C613.763 236.7 614.523 237.23 615.163 237.93V235.98H618.913ZM610.453 249C611.833 249 612.973 248.54 613.873 247.62C614.773 246.7 615.223 245.49 615.223 243.99C615.223 242.49 614.773 241.28 613.873 240.36C612.973 239.44 611.833 238.98 610.453 238.98C609.073 238.98 607.933 239.44 607.033 240.36C606.153 241.28 605.713 242.49 605.713 243.99C605.713 245.49 606.153 246.7 607.033 247.62C607.933 248.54 609.073 249 610.453 249ZM627.389 238.32C628.469 236.64 630.369 235.8 633.089 235.8V239.37C632.769 239.31 632.479 239.28 632.219 239.28C630.759 239.28 629.619 239.71 628.799 240.57C627.979 241.41 627.569 242.63 627.569 244.23V252H623.819V235.98H627.389V238.32ZM651.927 235.98V249.57C651.927 255.21 649.157 258.03 643.617 258.03C642.157 258.03 640.757 257.83 639.417 257.43C638.097 257.05 637.007 256.49 636.147 255.75L637.827 252.93C638.507 253.51 639.337 253.97 640.317 254.31C641.297 254.65 642.327 254.82 643.407 254.82C645.047 254.82 646.247 254.42 647.007 253.62C647.787 252.84 648.177 251.63 648.177 249.99V249.24C647.577 249.9 646.847 250.41 645.987 250.77C645.127 251.11 644.197 251.28 643.197 251.28C641.057 251.28 639.367 250.69 638.127 249.51C636.907 248.33 636.297 246.56 636.297 244.2V235.98H640.047V243.72C640.047 245.14 640.367 246.21 641.007 246.93C641.667 247.63 642.597 247.98 643.797 247.98C645.137 247.98 646.197 247.57 646.977 246.75C647.777 245.93 648.177 244.74 648.177 243.18V235.98H651.927Z" fill="#164E63"/>
</svg>
