<svg width="321" height="321" viewBox="0 0 321 321" fill="none" xmlns="http://www.w3.org/2000/svg">
<g filter="url(#filter0_f_8_151)">
<rect x="93.334" y="94.3333" width="133.333" height="33.3333" rx="2" fill="#020C12" fill-opacity="0.48"/>
<rect x="93.334" y="141" width="33.3333" height="33.3333" rx="2" fill="#020C12" fill-opacity="0.48"/>
<rect x="133.334" y="141" width="93.3333" height="33.3333" rx="2" fill="#020C12" fill-opacity="0.48"/>
<rect x="93.334" y="187.667" width="80" height="33.3333" rx="2" fill="#020C12" fill-opacity="0.48"/>
<rect x="180" y="187.667" width="46.6667" height="33.3333" rx="2" fill="#020C12" fill-opacity="0.48"/>
<path d="M76.783 243.5C67.4685 243.5 60.4516 241.166 55.7322 236.497C51.0129 231.951 48.6532 225.193 48.6532 216.224V173.837C48.6532 170.642 47.908 168.308 46.4177 166.833C44.9274 165.359 42.8782 164.622 40.2702 164.622H34.75C34.1977 164.622 33.75 164.174 33.75 163.622V150.878C33.75 150.326 34.1977 149.878 34.75 149.878H40.2702C42.8782 149.878 44.9274 149.141 46.4177 147.667C47.908 146.192 48.6532 143.858 48.6532 140.663V98.2756C48.6532 89.1838 51.0129 82.3648 55.7322 77.8189C60.4516 73.273 67.4685 71 76.783 71H83.9797C84.532 71 84.9797 71.4477 84.9797 72V84.5593C84.9797 85.1116 84.532 85.5593 83.9797 85.5593H80.3225C75.7273 85.5593 72.2499 86.7879 69.8903 89.2452C67.6548 91.7025 66.537 95.2655 66.537 99.9343V140.295C66.537 144.595 65.9782 147.974 64.8604 150.431C63.7427 152.765 62.0661 154.547 59.8306 155.776C57.948 156.762 55.5224 157.552 52.5536 158.147C51.9782 158.263 51.4475 157.818 51.4475 157.231V157.231C51.4475 156.657 51.9559 156.215 52.5215 156.311C55.5049 156.821 57.9412 157.625 59.8306 158.724C62.0661 159.953 63.7427 161.796 64.8604 164.253C65.9782 166.588 66.537 169.905 66.537 174.205V214.566C66.537 219.235 67.6548 222.798 69.8903 225.255C72.2499 227.712 75.7273 228.941 80.3225 228.941H83.9797C84.532 228.941 84.9797 229.388 84.9797 229.941V242.5C84.9797 243.052 84.532 243.5 83.9797 243.5H76.783Z" fill="#020C12" fill-opacity="0.48"/>
<path d="M243.403 243.5H236.207C235.654 243.5 235.207 243.052 235.207 242.5V229.941C235.207 229.388 235.654 228.941 236.207 228.941H239.677C244.521 228.941 248.061 227.712 250.296 225.255C252.656 222.798 253.836 219.235 253.836 214.566V174.205C253.836 169.905 254.332 166.588 255.326 164.253C256.444 161.796 258.12 159.953 260.356 158.724C262.348 157.629 264.785 156.827 267.666 156.317C268.23 156.218 268.739 156.658 268.739 157.23V157.23C268.739 157.816 268.207 158.259 267.633 158.14C264.767 157.546 262.341 156.758 260.356 155.776C258.12 154.547 256.444 152.765 255.326 150.431C254.332 147.974 253.836 144.595 253.836 140.295V99.9343C253.836 95.2655 252.656 91.7025 250.296 89.2452C248.061 86.7879 244.521 85.5593 239.677 85.5593H236.207C235.654 85.5593 235.207 85.1116 235.207 84.5593V72C235.207 71.4477 235.654 71 236.207 71H243.403C252.718 71 259.735 73.273 264.454 77.8189C269.298 82.3648 271.719 89.1838 271.719 98.2756V140.663C271.719 143.858 272.465 146.192 273.955 147.667C275.445 149.141 277.432 149.878 279.916 149.878H285.25C285.802 149.878 286.25 150.326 286.25 150.878V163.622C286.25 164.174 285.802 164.622 285.25 164.622H279.916C277.432 164.622 275.445 165.359 273.955 166.833C272.465 168.308 271.719 170.642 271.719 173.837V216.224C271.719 225.193 269.298 231.951 264.454 236.497C259.735 241.166 252.718 243.5 243.403 243.5Z" fill="#020C12" fill-opacity="0.48"/>
</g>
<rect x="94.334" y="93.3333" width="133.333" height="33.3333" rx="2" fill="#1C6FA6"/>
<rect x="94.334" y="140" width="33.3333" height="33.3333" rx="2" fill="#1C6FA6"/>
<rect x="134.334" y="140" width="93.3333" height="33.3333" rx="2" fill="#1C6FA6"/>
<rect x="94.334" y="186.667" width="80" height="33.3333" rx="2" fill="#E11D48"/>
<rect x="181" y="186.667" width="46.6667" height="33.3333" rx="2" fill="#1C6FA6"/>
<path d="M77.783 242.5C68.4685 242.5 61.4516 240.166 56.7322 235.497C52.0129 230.951 49.6532 224.193 49.6532 215.224V172.837C49.6532 169.642 48.908 167.308 47.4177 165.833C45.9274 164.359 43.8782 163.622 41.2702 163.622H35.75C35.1977 163.622 34.75 163.174 34.75 162.622V149.878C34.75 149.326 35.1977 148.878 35.75 148.878H41.2702C43.8782 148.878 45.9274 148.141 47.4177 146.667C48.908 145.192 49.6532 142.858 49.6532 139.663V97.2756C49.6532 88.1838 52.0129 81.3648 56.7322 76.8189C61.4516 72.273 68.4685 70 77.783 70H84.9797C85.532 70 85.9797 70.4477 85.9797 71V83.5593C85.9797 84.1116 85.532 84.5593 84.9797 84.5593H81.3225C76.7273 84.5593 73.2499 85.7879 70.8903 88.2452C68.6548 90.7025 67.537 94.2655 67.537 98.9343V139.295C67.537 143.595 66.9782 146.974 65.8604 149.431C64.7427 151.765 63.0661 153.547 60.8306 154.776C58.948 155.762 56.5224 156.552 53.5536 157.147C52.9782 157.263 52.4475 156.818 52.4475 156.231V156.231C52.4475 155.657 52.9559 155.215 53.5215 155.311C56.5049 155.821 58.9412 156.625 60.8306 157.724C63.0661 158.953 64.7427 160.796 65.8604 163.253C66.9782 165.588 67.537 168.905 67.537 173.205V213.566C67.537 218.235 68.6548 221.798 70.8903 224.255C73.2499 226.712 76.7273 227.941 81.3225 227.941H84.9797C85.532 227.941 85.9797 228.388 85.9797 228.941V241.5C85.9797 242.052 85.532 242.5 84.9797 242.5H77.783Z" fill="#1C6FA6"/>
<path d="M244.403 242.5H237.207C236.654 242.5 236.207 242.052 236.207 241.5V228.941C236.207 228.388 236.654 227.941 237.207 227.941H240.677C245.521 227.941 249.061 226.712 251.296 224.255C253.656 221.798 254.836 218.235 254.836 213.566V173.205C254.836 168.905 255.332 165.588 256.326 163.253C257.444 160.796 259.12 158.953 261.356 157.724C263.348 156.629 265.785 155.827 268.666 155.317C269.23 155.218 269.739 155.658 269.739 156.23V156.23C269.739 156.816 269.207 157.259 268.633 157.14C265.767 156.546 263.341 155.758 261.356 154.776C259.12 153.547 257.444 151.765 256.326 149.431C255.332 146.974 254.836 143.595 254.836 139.295V98.9343C254.836 94.2655 253.656 90.7025 251.296 88.2452C249.061 85.7879 245.521 84.5593 240.677 84.5593H237.207C236.654 84.5593 236.207 84.1116 236.207 83.5593V71C236.207 70.4477 236.654 70 237.207 70H244.403C253.718 70 260.735 72.273 265.454 76.8189C270.298 81.3648 272.719 88.1838 272.719 97.2756V139.663C272.719 142.858 273.465 145.192 274.955 146.667C276.445 148.141 278.432 148.878 280.916 148.878H286.25C286.802 148.878 287.25 149.326 287.25 149.878V162.622C287.25 163.174 286.802 163.622 286.25 163.622H280.916C278.432 163.622 276.445 164.359 274.955 165.833C273.465 167.308 272.719 169.642 272.719 172.837V215.224C272.719 224.193 270.298 230.951 265.454 235.497C260.735 240.166 253.718 242.5 244.403 242.5Z" fill="#1C6FA6"/>
<defs>
<filter id="filter0_f_8_151" x="30.75" y="68" width="258.5" height="178.5" filterUnits="userSpaceOnUse" color-interpolation-filters="sRGB">
<feFlood flood-opacity="0" result="BackgroundImageFix"/>
<feBlend mode="normal" in="SourceGraphic" in2="BackgroundImageFix" result="shape"/>
<feGaussianBlur stdDeviation="1.5" result="effect1_foregroundBlur_8_151"/>
</filter>
</defs>
</svg>
