<svg width="811" height="347" viewBox="0 0 811 347" fill="none" xmlns="http://www.w3.org/2000/svg">
<rect width="811" height="347" fill="#F0F9FF"/>
<path d="M202.162 184.36H223.666V192.68H202.162V184.36ZM202.93 209H192.562V164.2H226.418V172.52H202.93V209ZM248.305 209.512C244.635 209.512 241.371 208.744 238.513 207.208C235.697 205.672 233.457 203.581 231.793 200.936C230.171 198.248 229.361 195.197 229.361 191.784C229.361 188.328 230.171 185.277 231.793 182.632C233.457 179.944 235.697 177.853 238.513 176.36C241.371 174.824 244.635 174.056 248.305 174.056C251.931 174.056 255.174 174.824 258.033 176.36C260.891 177.853 263.131 179.923 264.753 182.568C266.374 185.213 267.185 188.285 267.185 191.784C267.185 195.197 266.374 198.248 264.753 200.936C263.131 203.581 260.891 205.672 258.033 207.208C255.174 208.744 251.931 209.512 248.305 209.512ZM248.305 201.32C249.969 201.32 251.462 200.936 252.785 200.168C254.107 199.4 255.153 198.312 255.921 196.904C256.689 195.453 257.073 193.747 257.073 191.784C257.073 189.779 256.689 188.072 255.921 186.664C255.153 185.256 254.107 184.168 252.785 183.4C251.462 182.632 249.969 182.248 248.305 182.248C246.641 182.248 245.147 182.632 243.825 183.4C242.502 184.168 241.435 185.256 240.625 186.664C239.857 188.072 239.473 189.779 239.473 191.784C239.473 193.747 239.857 195.453 240.625 196.904C241.435 198.312 242.502 199.4 243.825 200.168C245.147 200.936 246.641 201.32 248.305 201.32ZM273.858 209V174.568H283.394V184.296L282.05 181.48C283.074 179.048 284.717 177.213 286.978 175.976C289.239 174.696 291.991 174.056 295.234 174.056V183.272C294.807 183.229 294.423 183.208 294.082 183.208C293.741 183.165 293.378 183.144 292.994 183.144C290.263 183.144 288.045 183.933 286.338 185.512C284.674 187.048 283.842 189.459 283.842 192.744V209H273.858ZM345.329 174.056C348.06 174.056 350.47 174.611 352.561 175.72C354.694 176.787 356.358 178.451 357.553 180.712C358.79 182.931 359.409 185.789 359.409 189.288V209H349.425V190.824C349.425 188.051 348.849 186.003 347.697 184.68C346.545 183.357 344.924 182.696 342.833 182.696C341.382 182.696 340.081 183.037 338.929 183.72C337.777 184.36 336.881 185.341 336.241 186.664C335.601 187.987 335.281 189.672 335.281 191.72V209H325.297V190.824C325.297 188.051 324.721 186.003 323.569 184.68C322.46 183.357 320.86 182.696 318.769 182.696C317.318 182.696 316.017 183.037 314.865 183.72C313.713 184.36 312.817 185.341 312.177 186.664C311.537 187.987 311.217 189.672 311.217 191.72V209H301.233V174.568H310.769V183.976L308.977 181.224C310.172 178.877 311.857 177.107 314.033 175.912C316.252 174.675 318.769 174.056 321.585 174.056C324.742 174.056 327.494 174.867 329.841 176.488C332.23 178.067 333.809 180.499 334.577 183.784L331.057 182.824C332.209 180.136 334.044 178.003 336.561 176.424C339.121 174.845 342.044 174.056 345.329 174.056ZM401.907 209.768C398.323 209.768 394.888 209.299 391.603 208.36C388.318 207.379 385.672 206.12 383.667 204.584L387.187 196.776C389.107 198.141 391.368 199.272 393.971 200.168C396.616 201.021 399.283 201.448 401.971 201.448C404.019 201.448 405.662 201.256 406.899 200.872C408.179 200.445 409.118 199.869 409.715 199.144C410.312 198.419 410.611 197.587 410.611 196.648C410.611 195.453 410.142 194.515 409.203 193.832C408.264 193.107 407.027 192.531 405.491 192.104C403.955 191.635 402.248 191.208 400.371 190.824C398.536 190.397 396.68 189.885 394.803 189.288C392.968 188.691 391.283 187.923 389.747 186.984C388.211 186.045 386.952 184.808 385.971 183.272C385.032 181.736 384.563 179.773 384.563 177.384C384.563 174.824 385.246 172.499 386.611 170.408C388.019 168.275 390.11 166.589 392.883 165.352C395.699 164.072 399.219 163.432 403.443 163.432C406.259 163.432 409.032 163.773 411.763 164.456C414.494 165.096 416.904 166.077 418.995 167.4L415.795 175.272C413.704 174.077 411.614 173.203 409.523 172.648C407.432 172.051 405.384 171.752 403.379 171.752C401.374 171.752 399.731 171.987 398.451 172.456C397.171 172.925 396.254 173.544 395.699 174.312C395.144 175.037 394.867 175.891 394.867 176.872C394.867 178.024 395.336 178.963 396.275 179.688C397.214 180.371 398.451 180.925 399.987 181.352C401.523 181.779 403.208 182.205 405.043 182.632C406.92 183.059 408.776 183.549 410.611 184.104C412.488 184.659 414.195 185.405 415.731 186.344C417.267 187.283 418.504 188.52 419.443 190.056C420.424 191.592 420.915 193.533 420.915 195.88C420.915 198.397 420.211 200.701 418.803 202.792C417.395 204.883 415.283 206.568 412.467 207.848C409.694 209.128 406.174 209.768 401.907 209.768ZM427.296 209V174.568H437.28V209H427.296ZM432.288 169.768C430.453 169.768 428.96 169.235 427.808 168.168C426.656 167.101 426.08 165.779 426.08 164.2C426.08 162.621 426.656 161.299 427.808 160.232C428.96 159.165 430.453 158.632 432.288 158.632C434.122 158.632 435.616 159.144 436.768 160.168C437.92 161.149 438.496 162.429 438.496 164.008C438.496 165.672 437.92 167.059 436.768 168.168C435.658 169.235 434.165 169.768 432.288 169.768ZM462.738 221.928C459.495 221.928 456.359 221.523 453.33 220.712C450.343 219.944 447.847 218.771 445.842 217.192L449.81 210.024C451.26 211.219 453.095 212.157 455.314 212.84C457.575 213.565 459.794 213.928 461.97 213.928C465.511 213.928 468.071 213.139 469.65 211.56C471.271 209.981 472.082 207.635 472.082 204.52V199.336L472.722 190.696L472.594 181.992V174.568H482.066V203.24C482.066 209.64 480.402 214.355 477.074 217.384C473.746 220.413 468.967 221.928 462.738 221.928ZM461.202 207.336C458.002 207.336 455.1 206.653 452.498 205.288C449.938 203.88 447.868 201.939 446.29 199.464C444.754 196.947 443.986 194.024 443.986 190.696C443.986 187.325 444.754 184.403 446.29 181.928C447.868 179.411 449.938 177.469 452.498 176.104C455.1 174.739 458.002 174.056 461.202 174.056C464.103 174.056 466.663 174.653 468.882 175.848C471.1 177 472.828 178.813 474.066 181.288C475.303 183.72 475.922 186.856 475.922 190.696C475.922 194.493 475.303 197.629 474.066 200.104C472.828 202.536 471.1 204.349 468.882 205.544C466.663 206.739 464.103 207.336 461.202 207.336ZM463.186 199.144C464.935 199.144 466.492 198.803 467.858 198.12C469.223 197.395 470.29 196.392 471.058 195.112C471.826 193.832 472.21 192.36 472.21 190.696C472.21 188.989 471.826 187.517 471.058 186.28C470.29 185 469.223 184.019 467.858 183.336C466.492 182.611 464.935 182.248 463.186 182.248C461.436 182.248 459.879 182.611 458.514 183.336C457.148 184.019 456.06 185 455.25 186.28C454.482 187.517 454.098 188.989 454.098 190.696C454.098 192.36 454.482 193.832 455.25 195.112C456.06 196.392 457.148 197.395 458.514 198.12C459.879 198.803 461.436 199.144 463.186 199.144ZM512.286 174.056C515.017 174.056 517.449 174.611 519.582 175.72C521.758 176.787 523.465 178.451 524.702 180.712C525.939 182.931 526.558 185.789 526.558 189.288V209H516.574V190.824C516.574 188.051 515.955 186.003 514.718 184.68C513.523 183.357 511.817 182.696 509.598 182.696C508.019 182.696 506.59 183.037 505.31 183.72C504.073 184.36 503.091 185.363 502.366 186.728C501.683 188.093 501.342 189.843 501.342 191.976V209H491.358V174.568H500.894V184.104L499.102 181.224C500.339 178.92 502.11 177.149 504.414 175.912C506.718 174.675 509.342 174.056 512.286 174.056ZM556.728 209V202.28L556.088 200.808V188.776C556.088 186.643 555.427 184.979 554.104 183.784C552.824 182.589 550.84 181.992 548.152 181.992C546.317 181.992 544.504 182.291 542.712 182.888C540.963 183.443 539.469 184.211 538.232 185.192L534.648 178.216C536.525 176.893 538.787 175.869 541.432 175.144C544.077 174.419 546.765 174.056 549.496 174.056C554.744 174.056 558.819 175.293 561.72 177.768C564.621 180.243 566.072 184.104 566.072 189.352V209H556.728ZM546.232 209.512C543.544 209.512 541.24 209.064 539.32 208.168C537.4 207.229 535.928 205.971 534.904 204.392C533.88 202.813 533.368 201.043 533.368 199.08C533.368 197.032 533.859 195.24 534.84 193.704C535.864 192.168 537.464 190.973 539.64 190.12C541.816 189.224 544.653 188.776 548.152 188.776H557.304V194.6H549.24C546.893 194.6 545.272 194.984 544.376 195.752C543.523 196.52 543.096 197.48 543.096 198.632C543.096 199.912 543.587 200.936 544.568 201.704C545.592 202.429 546.979 202.792 548.728 202.792C550.392 202.792 551.885 202.408 553.208 201.64C554.531 200.829 555.491 199.656 556.088 198.12L557.624 202.728C556.899 204.947 555.576 206.632 553.656 207.784C551.736 208.936 549.261 209.512 546.232 209.512ZM575.108 209V161.512H585.092V209H575.108ZM605.942 209.512C602.998 209.512 600.161 209.171 597.43 208.488C594.742 207.763 592.609 206.867 591.03 205.8L594.358 198.632C595.937 199.613 597.793 200.424 599.926 201.064C602.102 201.661 604.235 201.96 606.326 201.96C608.63 201.96 610.251 201.683 611.19 201.128C612.171 200.573 612.662 199.805 612.662 198.824C612.662 198.013 612.278 197.416 611.51 197.032C610.785 196.605 609.803 196.285 608.566 196.072C607.329 195.859 605.963 195.645 604.47 195.432C603.019 195.219 601.547 194.941 600.054 194.6C598.561 194.216 597.195 193.661 595.958 192.936C594.721 192.211 593.718 191.229 592.95 189.992C592.225 188.755 591.862 187.155 591.862 185.192C591.862 183.016 592.481 181.096 593.718 179.432C594.998 177.768 596.833 176.467 599.222 175.528C601.611 174.547 604.47 174.056 607.798 174.056C610.145 174.056 612.534 174.312 614.966 174.824C617.398 175.336 619.425 176.083 621.046 177.064L617.718 184.168C616.054 183.187 614.369 182.525 612.662 182.184C610.998 181.8 609.377 181.608 607.798 181.608C605.579 181.608 603.958 181.907 602.934 182.504C601.91 183.101 601.398 183.869 601.398 184.808C601.398 185.661 601.761 186.301 602.486 186.728C603.254 187.155 604.257 187.496 605.494 187.752C606.731 188.008 608.075 188.243 609.526 188.456C611.019 188.627 612.513 188.904 614.006 189.288C615.499 189.672 616.843 190.227 618.038 190.952C619.275 191.635 620.278 192.595 621.046 193.832C621.814 195.027 622.198 196.605 622.198 198.568C622.198 200.701 621.558 202.6 620.278 204.264C618.998 205.885 617.142 207.165 614.71 208.104C612.321 209.043 609.398 209.512 605.942 209.512Z" fill="#020C12"/>
<rect x="378.833" y="69.3333" width="53.3333" height="13.3333" rx="2" fill="#1C6FA6"/>
<rect x="378.833" y="88" width="13.3333" height="13.3333" rx="2" fill="#1C6FA6"/>
<rect x="394.833" y="88" width="37.3333" height="13.3333" rx="2" fill="#1C6FA6"/>
<rect x="378.833" y="106.667" width="32" height="13.3333" rx="2" fill="#E11D48"/>
<rect x="413.5" y="106.667" width="18.6667" height="13.3333" rx="2" fill="#1C6FA6"/>
<path d="M372.213 129C368.487 129 365.681 128.066 363.793 126.199C361.905 124.38 360.961 121.677 360.961 118.09V101.135C360.961 99.8568 360.663 98.9231 360.067 98.3333C359.471 97.7436 358.651 97.4487 357.608 97.4487H356C355.448 97.4487 355 97.001 355 96.4487V92.5513C355 91.999 355.448 91.5513 356 91.5513H357.608C358.651 91.5513 359.471 91.2564 360.067 90.6667C360.663 90.0769 360.961 89.1432 360.961 87.8654V70.9103C360.961 67.2735 361.905 64.5459 363.793 62.7276C365.681 60.9092 368.487 60 372.213 60H374.492C375.044 60 375.492 60.4477 375.492 61V64.8237C375.492 65.376 375.044 65.8237 374.492 65.8237H373.629C371.791 65.8237 370.4 66.3152 369.456 67.2981C368.562 68.281 368.115 69.7062 368.115 71.5737V87.7179C368.115 89.438 367.891 90.7895 367.444 91.7724C366.997 92.7062 366.326 93.4188 365.432 93.9103C364.679 94.3047 363.709 94.6209 362.521 94.859C362.291 94.9051 362.079 94.727 362.079 94.4923V94.4923C362.079 94.2628 362.282 94.086 362.509 94.1246C363.702 94.3282 364.676 94.65 365.432 95.0897C366.326 95.5812 366.997 96.3184 367.444 97.3013C367.891 98.235 368.115 99.562 368.115 101.282V117.426C368.115 119.294 368.562 120.719 369.456 121.702C370.4 122.685 371.791 123.176 373.629 123.176H374.492C375.044 123.176 375.492 123.624 375.492 124.176V128C375.492 128.552 375.044 129 374.492 129H372.213Z" fill="#1C6FA6"/>
<path d="M438.861 129H436.583C436.03 129 435.583 128.552 435.583 128V124.176C435.583 123.624 436.03 123.176 436.583 123.176H437.371C439.308 123.176 440.724 122.685 441.618 121.702C442.562 120.719 443.034 119.294 443.034 117.426V101.282C443.034 99.562 443.233 98.235 443.63 97.3013C444.077 96.3184 444.748 95.5812 445.642 95.0897C446.439 94.6516 447.414 94.3307 448.567 94.1269C448.792 94.0871 448.995 94.2631 448.995 94.492V94.492C448.995 94.7264 448.783 94.9037 448.553 94.8561C447.407 94.6183 446.436 94.303 445.642 93.9103C444.748 93.4188 444.077 92.7062 443.63 91.7724C443.233 90.7895 443.034 89.438 443.034 87.7179V71.5737C443.034 69.7062 442.562 68.281 441.618 67.2981C440.724 66.3152 439.308 65.8237 437.371 65.8237H436.583C436.03 65.8237 435.583 65.376 435.583 64.8237V61C435.583 60.4477 436.03 60 436.583 60H438.861C442.587 60 445.394 60.9092 447.282 62.7276C449.219 64.5459 450.188 67.2735 450.188 70.9103V87.8654C450.188 89.1432 450.486 90.0769 451.082 90.6667C451.678 91.2564 452.473 91.5513 453.466 91.5513H455C455.552 91.5513 456 91.999 456 92.5513V96.4487C456 97.001 455.552 97.4487 455 97.4487H453.466C452.473 97.4487 451.678 97.7436 451.082 98.3333C450.486 98.9231 450.188 99.8568 450.188 101.135V118.09C450.188 121.677 449.219 124.38 447.282 126.199C445.394 128.066 442.587 129 438.861 129Z" fill="#1C6FA6"/>
<path d="M135.932 260V240.4H143.576C145.294 240.4 146.759 240.671 147.972 241.212C149.186 241.753 150.119 242.537 150.772 243.564C151.426 244.591 151.752 245.813 151.752 247.232C151.752 248.651 151.426 249.873 150.772 250.9C150.119 251.908 149.186 252.683 147.972 253.224C146.759 253.765 145.294 254.036 143.576 254.036H137.472L138.732 252.748V260H135.932ZM149.036 260L144.052 252.888H147.048L152.088 260H149.036ZM138.732 253.028L137.472 251.656H143.492C145.284 251.656 146.638 251.273 147.552 250.508C148.486 249.724 148.952 248.632 148.952 247.232C148.952 245.832 148.486 244.749 147.552 243.984C146.638 243.219 145.284 242.836 143.492 242.836H137.472L138.732 241.436V253.028ZM162.492 260.168C160.905 260.168 159.505 259.841 158.292 259.188C157.097 258.535 156.164 257.639 155.492 256.5C154.839 255.361 154.512 254.055 154.512 252.58C154.512 251.105 154.829 249.799 155.464 248.66C156.117 247.521 157.004 246.635 158.124 246C159.263 245.347 160.541 245.02 161.96 245.02C163.397 245.02 164.667 245.337 165.768 245.972C166.869 246.607 167.728 247.503 168.344 248.66C168.979 249.799 169.296 251.133 169.296 252.664C169.296 252.776 169.287 252.907 169.268 253.056C169.268 253.205 169.259 253.345 169.24 253.476H156.612V251.544H167.84L166.748 252.216C166.767 251.264 166.571 250.415 166.16 249.668C165.749 248.921 165.18 248.343 164.452 247.932C163.743 247.503 162.912 247.288 161.96 247.288C161.027 247.288 160.196 247.503 159.468 247.932C158.74 248.343 158.171 248.931 157.76 249.696C157.349 250.443 157.144 251.301 157.144 252.272V252.72C157.144 253.709 157.368 254.596 157.816 255.38C158.283 256.145 158.927 256.743 159.748 257.172C160.569 257.601 161.512 257.816 162.576 257.816C163.453 257.816 164.247 257.667 164.956 257.368C165.684 257.069 166.319 256.621 166.86 256.024L168.344 257.76C167.672 258.544 166.832 259.141 165.824 259.552C164.835 259.963 163.724 260.168 162.492 260.168ZM181.83 260V256.864L181.69 256.276V250.928C181.69 249.789 181.354 248.912 180.682 248.296C180.029 247.661 179.04 247.344 177.714 247.344C176.837 247.344 175.978 247.493 175.138 247.792C174.298 248.072 173.589 248.455 173.01 248.94L171.89 246.924C172.656 246.308 173.57 245.841 174.634 245.524C175.717 245.188 176.846 245.02 178.022 245.02C180.057 245.02 181.625 245.515 182.726 246.504C183.828 247.493 184.378 249.005 184.378 251.04V260H181.83ZM176.958 260.168C175.857 260.168 174.886 259.981 174.046 259.608C173.225 259.235 172.59 258.721 172.142 258.068C171.694 257.396 171.47 256.64 171.47 255.8C171.47 254.997 171.657 254.269 172.03 253.616C172.422 252.963 173.048 252.44 173.906 252.048C174.784 251.656 175.96 251.46 177.434 251.46H182.138V253.392H177.546C176.202 253.392 175.297 253.616 174.83 254.064C174.364 254.512 174.13 255.053 174.13 255.688C174.13 256.416 174.42 257.004 174.998 257.452C175.577 257.881 176.38 258.096 177.406 258.096C178.414 258.096 179.292 257.872 180.038 257.424C180.804 256.976 181.354 256.323 181.69 255.464L182.222 257.312C181.868 258.189 181.242 258.889 180.346 259.412C179.45 259.916 178.321 260.168 176.958 260.168ZM195.821 260.168C194.309 260.168 192.955 259.841 191.761 259.188C190.585 258.535 189.661 257.639 188.989 256.5C188.317 255.361 187.981 254.055 187.981 252.58C187.981 251.105 188.317 249.799 188.989 248.66C189.661 247.521 190.585 246.635 191.761 246C192.955 245.347 194.309 245.02 195.821 245.02C197.165 245.02 198.359 245.291 199.405 245.832C200.469 246.355 201.29 247.139 201.869 248.184L199.825 249.5C199.339 248.772 198.742 248.24 198.033 247.904C197.342 247.549 196.595 247.372 195.793 247.372C194.822 247.372 193.954 247.587 193.189 248.016C192.423 248.445 191.817 249.052 191.369 249.836C190.921 250.601 190.697 251.516 190.697 252.58C190.697 253.644 190.921 254.568 191.369 255.352C191.817 256.136 192.423 256.743 193.189 257.172C193.954 257.601 194.822 257.816 195.793 257.816C196.595 257.816 197.342 257.648 198.033 257.312C198.742 256.957 199.339 256.416 199.825 255.688L201.869 256.976C201.29 258.003 200.469 258.796 199.405 259.356C198.359 259.897 197.165 260.168 195.821 260.168ZM210.636 260.168C209.143 260.168 207.986 259.767 207.164 258.964C206.343 258.161 205.932 257.013 205.932 255.52V241.912H208.62V255.408C208.62 256.211 208.816 256.827 209.208 257.256C209.619 257.685 210.198 257.9 210.944 257.9C211.784 257.9 212.484 257.667 213.044 257.2L213.884 259.132C213.474 259.487 212.979 259.748 212.4 259.916C211.84 260.084 211.252 260.168 210.636 260.168ZM203.412 247.372V245.16H212.876V247.372H203.412ZM217.134 260V245.16H219.822V260H217.134ZM218.478 242.304C217.955 242.304 217.517 242.136 217.162 241.8C216.826 241.464 216.658 241.053 216.658 240.568C216.658 240.064 216.826 239.644 217.162 239.308C217.517 238.972 217.955 238.804 218.478 238.804C219.001 238.804 219.43 238.972 219.766 239.308C220.121 239.625 220.298 240.027 220.298 240.512C220.298 241.016 220.13 241.445 219.794 241.8C219.458 242.136 219.019 242.304 218.478 242.304ZM228.846 260L222.35 245.16H225.15L230.918 258.6H229.574L235.454 245.16H238.086L231.59 260H228.846ZM246.793 260.168C245.206 260.168 243.806 259.841 242.593 259.188C241.398 258.535 240.465 257.639 239.793 256.5C239.139 255.361 238.813 254.055 238.813 252.58C238.813 251.105 239.13 249.799 239.765 248.66C240.418 247.521 241.305 246.635 242.425 246C243.563 245.347 244.842 245.02 246.261 245.02C247.698 245.02 248.967 245.337 250.069 245.972C251.17 246.607 252.029 247.503 252.645 248.66C253.279 249.799 253.597 251.133 253.597 252.664C253.597 252.776 253.587 252.907 253.569 253.056C253.569 253.205 253.559 253.345 253.541 253.476H240.913V251.544H252.141L251.049 252.216C251.067 251.264 250.871 250.415 250.461 249.668C250.05 248.921 249.481 248.343 248.753 247.932C248.043 247.503 247.213 247.288 246.261 247.288C245.327 247.288 244.497 247.503 243.769 247.932C243.041 248.343 242.471 248.931 242.061 249.696C241.65 250.443 241.445 251.301 241.445 252.272V252.72C241.445 253.709 241.669 254.596 242.117 255.38C242.583 256.145 243.227 256.743 244.049 257.172C244.87 257.601 245.813 257.816 246.877 257.816C247.754 257.816 248.547 257.667 249.257 257.368C249.985 257.069 250.619 256.621 251.161 256.024L252.645 257.76C251.973 258.544 251.133 259.141 250.125 259.552C249.135 259.963 248.025 260.168 246.793 260.168ZM274.061 260V256.864L273.921 256.276V250.928C273.921 249.789 273.585 248.912 272.913 248.296C272.259 247.661 271.27 247.344 269.945 247.344C269.067 247.344 268.209 247.493 267.369 247.792C266.529 248.072 265.819 248.455 265.241 248.94L264.121 246.924C264.886 246.308 265.801 245.841 266.865 245.524C267.947 245.188 269.077 245.02 270.253 245.02C272.287 245.02 273.855 245.515 274.957 246.504C276.058 247.493 276.609 249.005 276.609 251.04V260H274.061ZM269.189 260.168C268.087 260.168 267.117 259.981 266.277 259.608C265.455 259.235 264.821 258.721 264.373 258.068C263.925 257.396 263.701 256.64 263.701 255.8C263.701 254.997 263.887 254.269 264.261 253.616C264.653 252.963 265.278 252.44 266.137 252.048C267.014 251.656 268.19 251.46 269.665 251.46H274.369V253.392H269.777C268.433 253.392 267.527 253.616 267.061 254.064C266.594 254.512 266.361 255.053 266.361 255.688C266.361 256.416 266.65 257.004 267.229 257.452C267.807 257.881 268.61 258.096 269.637 258.096C270.645 258.096 271.522 257.872 272.269 257.424C273.034 256.976 273.585 256.323 273.921 255.464L274.453 257.312C274.098 258.189 273.473 258.889 272.577 259.412C271.681 259.916 270.551 260.168 269.189 260.168ZM289.507 245.02C290.72 245.02 291.784 245.253 292.699 245.72C293.632 246.187 294.36 246.896 294.883 247.848C295.406 248.8 295.667 250.004 295.667 251.46V260H292.979V251.768C292.979 250.331 292.624 249.248 291.915 248.52C291.224 247.792 290.244 247.428 288.975 247.428C288.023 247.428 287.192 247.615 286.483 247.988C285.774 248.361 285.223 248.912 284.831 249.64C284.458 250.368 284.271 251.273 284.271 252.356V260H281.583V245.16H284.159V249.164L283.739 248.1C284.224 247.129 284.971 246.373 285.979 245.832C286.987 245.291 288.163 245.02 289.507 245.02ZM306.774 260.168C305.336 260.168 304.048 259.851 302.91 259.216C301.79 258.581 300.903 257.695 300.25 256.556C299.596 255.417 299.27 254.092 299.27 252.58C299.27 251.068 299.596 249.752 300.25 248.632C300.903 247.493 301.79 246.607 302.91 245.972C304.048 245.337 305.336 245.02 306.774 245.02C308.024 245.02 309.154 245.3 310.162 245.86C311.17 246.42 311.972 247.26 312.57 248.38C313.186 249.5 313.494 250.9 313.494 252.58C313.494 254.26 313.195 255.66 312.598 256.78C312.019 257.9 311.226 258.749 310.218 259.328C309.21 259.888 308.062 260.168 306.774 260.168ZM306.998 257.816C307.931 257.816 308.771 257.601 309.518 257.172C310.283 256.743 310.88 256.136 311.31 255.352C311.758 254.549 311.982 253.625 311.982 252.58C311.982 251.516 311.758 250.601 311.31 249.836C310.88 249.052 310.283 248.445 309.518 248.016C308.771 247.587 307.931 247.372 306.998 247.372C306.046 247.372 305.196 247.587 304.45 248.016C303.703 248.445 303.106 249.052 302.658 249.836C302.21 250.601 301.986 251.516 301.986 252.58C301.986 253.625 302.21 254.549 302.658 255.352C303.106 256.136 303.703 256.743 304.45 257.172C305.196 257.601 306.046 257.816 306.998 257.816ZM312.066 260V255.996L312.234 252.552L311.954 249.108V239.224H314.642V260H312.066ZM327.639 260V243.844C327.639 242.388 328.059 241.231 328.899 240.372C329.758 239.495 330.971 239.056 332.539 239.056C333.118 239.056 333.669 239.131 334.191 239.28C334.733 239.411 335.19 239.625 335.563 239.924L334.751 241.968C334.471 241.744 334.154 241.576 333.799 241.464C333.445 241.333 333.071 241.268 332.679 241.268C331.895 241.268 331.298 241.492 330.887 241.94C330.477 242.369 330.271 243.013 330.271 243.872V245.86L330.327 247.092V260H327.639ZM325.119 247.372V245.16H334.583V247.372H325.119ZM343.362 260.168C342.093 260.168 340.973 259.935 340.002 259.468C339.05 259.001 338.304 258.292 337.762 257.34C337.24 256.369 336.978 255.156 336.978 253.7V245.16H339.666V253.392C339.666 254.848 340.012 255.94 340.702 256.668C341.412 257.396 342.401 257.76 343.67 257.76C344.604 257.76 345.416 257.573 346.106 257.2C346.797 256.808 347.329 256.248 347.702 255.52C348.076 254.773 348.262 253.877 348.262 252.832V245.16H350.95V260H348.402V255.996L348.822 257.06C348.337 258.049 347.609 258.815 346.638 259.356C345.668 259.897 344.576 260.168 343.362 260.168ZM356.068 260V239.224H358.756V260H356.068ZM363.888 260V239.224H366.576V260H363.888ZM372.352 265.6C371.643 265.6 370.952 265.479 370.28 265.236C369.608 265.012 369.029 264.676 368.544 264.228L369.692 262.212C370.065 262.567 370.476 262.837 370.924 263.024C371.372 263.211 371.848 263.304 372.352 263.304C373.005 263.304 373.547 263.136 373.976 262.8C374.405 262.464 374.807 261.867 375.18 261.008L376.104 258.964L376.384 258.628L382.208 245.16H384.84L377.644 261.484C377.215 262.529 376.729 263.351 376.188 263.948C375.665 264.545 375.087 264.965 374.452 265.208C373.817 265.469 373.117 265.6 372.352 265.6ZM375.88 260.476L369.104 245.16H371.904L377.672 258.376L375.88 260.476ZM399.964 260.168C398.471 260.168 397.314 259.767 396.492 258.964C395.671 258.161 395.26 257.013 395.26 255.52V241.912H397.948V255.408C397.948 256.211 398.144 256.827 398.536 257.256C398.947 257.685 399.526 257.9 400.272 257.9C401.112 257.9 401.812 257.667 402.372 257.2L403.212 259.132C402.802 259.487 402.307 259.748 401.728 259.916C401.168 260.084 400.58 260.168 399.964 260.168ZM392.74 247.372V245.16H402.204V247.372H392.74ZM406.833 265.6C406.123 265.6 405.433 265.479 404.761 265.236C404.089 265.012 403.51 264.676 403.025 264.228L404.173 262.212C404.546 262.567 404.957 262.837 405.405 263.024C405.853 263.211 406.329 263.304 406.833 263.304C407.486 263.304 408.027 263.136 408.457 262.8C408.886 262.464 409.287 261.867 409.661 261.008L410.585 258.964L410.865 258.628L416.689 245.16H419.321L412.125 261.484C411.695 262.529 411.21 263.351 410.669 263.948C410.146 264.545 409.567 264.965 408.933 265.208C408.298 265.469 407.598 265.6 406.833 265.6ZM410.361 260.476L403.585 245.16H406.385L412.153 258.376L410.361 260.476ZM429.697 260.168C428.465 260.168 427.336 259.888 426.309 259.328C425.301 258.749 424.489 257.9 423.873 256.78C423.276 255.66 422.977 254.26 422.977 252.58C422.977 250.9 423.267 249.5 423.845 248.38C424.443 247.26 425.245 246.42 426.253 245.86C427.28 245.3 428.428 245.02 429.697 245.02C431.153 245.02 432.441 245.337 433.561 245.972C434.681 246.607 435.568 247.493 436.221 248.632C436.875 249.752 437.201 251.068 437.201 252.58C437.201 254.092 436.875 255.417 436.221 256.556C435.568 257.695 434.681 258.581 433.561 259.216C432.441 259.851 431.153 260.168 429.697 260.168ZM421.829 265.432V245.16H424.405V249.164L424.237 252.608L424.517 256.052V265.432H421.829ZM429.473 257.816C430.425 257.816 431.275 257.601 432.021 257.172C432.787 256.743 433.384 256.136 433.813 255.352C434.261 254.549 434.485 253.625 434.485 252.58C434.485 251.516 434.261 250.601 433.813 249.836C433.384 249.052 432.787 248.445 432.021 248.016C431.275 247.587 430.425 247.372 429.473 247.372C428.54 247.372 427.691 247.587 426.925 248.016C426.179 248.445 425.581 249.052 425.133 249.836C424.704 250.601 424.489 251.516 424.489 252.58C424.489 253.625 424.704 254.549 425.133 255.352C425.581 256.136 426.179 256.743 426.925 257.172C427.691 257.601 428.54 257.816 429.473 257.816ZM447.523 260.168C445.937 260.168 444.537 259.841 443.323 259.188C442.129 258.535 441.195 257.639 440.523 256.5C439.87 255.361 439.543 254.055 439.543 252.58C439.543 251.105 439.861 249.799 440.495 248.66C441.149 247.521 442.035 246.635 443.155 246C444.294 245.347 445.573 245.02 446.991 245.02C448.429 245.02 449.698 245.337 450.799 245.972C451.901 246.607 452.759 247.503 453.375 248.66C454.01 249.799 454.327 251.133 454.327 252.664C454.327 252.776 454.318 252.907 454.299 253.056C454.299 253.205 454.29 253.345 454.271 253.476H441.643V251.544H452.871L451.779 252.216C451.798 251.264 451.602 250.415 451.191 249.668C450.781 248.921 450.211 248.343 449.483 247.932C448.774 247.503 447.943 247.288 446.991 247.288C446.058 247.288 445.227 247.503 444.499 247.932C443.771 248.343 443.202 248.931 442.791 249.696C442.381 250.443 442.175 251.301 442.175 252.272V252.72C442.175 253.709 442.399 254.596 442.847 255.38C443.314 256.145 443.958 256.743 444.779 257.172C445.601 257.601 446.543 257.816 447.607 257.816C448.485 257.816 449.278 257.667 449.987 257.368C450.715 257.069 451.35 256.621 451.891 256.024L453.375 257.76C452.703 258.544 451.863 259.141 450.855 259.552C449.866 259.963 448.755 260.168 447.523 260.168ZM457.381 253.476V251.152H464.913V253.476H457.381ZM473.308 260.168C472.076 260.168 470.9 260 469.78 259.664C468.679 259.328 467.811 258.917 467.176 258.432L468.296 256.304C468.931 256.733 469.715 257.097 470.648 257.396C471.581 257.695 472.533 257.844 473.504 257.844C474.755 257.844 475.651 257.667 476.192 257.312C476.752 256.957 477.032 256.463 477.032 255.828C477.032 255.361 476.864 254.997 476.528 254.736C476.192 254.475 475.744 254.279 475.184 254.148C474.643 254.017 474.036 253.905 473.364 253.812C472.692 253.7 472.02 253.569 471.348 253.42C470.676 253.252 470.06 253.028 469.5 252.748C468.94 252.449 468.492 252.048 468.156 251.544C467.82 251.021 467.652 250.331 467.652 249.472C467.652 248.576 467.904 247.792 468.408 247.12C468.912 246.448 469.621 245.935 470.536 245.58C471.469 245.207 472.571 245.02 473.84 245.02C474.811 245.02 475.791 245.141 476.78 245.384C477.788 245.608 478.609 245.935 479.244 246.364L478.096 248.492C477.424 248.044 476.724 247.736 475.996 247.568C475.268 247.4 474.54 247.316 473.812 247.316C472.636 247.316 471.759 247.512 471.18 247.904C470.601 248.277 470.312 248.763 470.312 249.36C470.312 249.864 470.48 250.256 470.816 250.536C471.171 250.797 471.619 251.003 472.16 251.152C472.72 251.301 473.336 251.432 474.008 251.544C474.68 251.637 475.352 251.768 476.024 251.936C476.696 252.085 477.303 252.3 477.844 252.58C478.404 252.86 478.852 253.252 479.188 253.756C479.543 254.26 479.72 254.932 479.72 255.772C479.72 256.668 479.459 257.443 478.936 258.096C478.413 258.749 477.676 259.263 476.724 259.636C475.772 259.991 474.633 260.168 473.308 260.168ZM492.291 260V256.864L492.151 256.276V250.928C492.151 249.789 491.815 248.912 491.143 248.296C490.49 247.661 489.501 247.344 488.175 247.344C487.298 247.344 486.439 247.493 485.599 247.792C484.759 248.072 484.05 248.455 483.471 248.94L482.351 246.924C483.117 246.308 484.031 245.841 485.095 245.524C486.178 245.188 487.307 245.02 488.483 245.02C490.518 245.02 492.086 245.515 493.187 246.504C494.289 247.493 494.839 249.005 494.839 251.04V260H492.291ZM487.419 260.168C486.318 260.168 485.347 259.981 484.507 259.608C483.686 259.235 483.051 258.721 482.603 258.068C482.155 257.396 481.931 256.64 481.931 255.8C481.931 254.997 482.118 254.269 482.491 253.616C482.883 252.963 483.509 252.44 484.367 252.048C485.245 251.656 486.421 251.46 487.895 251.46H492.599V253.392H488.007C486.663 253.392 485.758 253.616 485.291 254.064C484.825 254.512 484.591 255.053 484.591 255.688C484.591 256.416 484.881 257.004 485.459 257.452C486.038 257.881 486.841 258.096 487.867 258.096C488.875 258.096 489.753 257.872 490.499 257.424C491.265 256.976 491.815 256.323 492.151 255.464L492.683 257.312C492.329 258.189 491.703 258.889 490.807 259.412C489.911 259.916 488.782 260.168 487.419 260.168ZM500.206 260V243.844C500.206 242.388 500.626 241.231 501.466 240.372C502.324 239.495 503.538 239.056 505.106 239.056C505.684 239.056 506.235 239.131 506.758 239.28C507.299 239.411 507.756 239.625 508.13 239.924L507.318 241.968C507.038 241.744 506.72 241.576 506.366 241.464C506.011 241.333 505.638 241.268 505.246 241.268C504.462 241.268 503.864 241.492 503.454 241.94C503.043 242.369 502.838 243.013 502.838 243.872V245.86L502.894 247.092V260H500.206ZM497.686 247.372V245.16H507.15V247.372H497.686ZM516.074 260.168C514.487 260.168 513.087 259.841 511.874 259.188C510.679 258.535 509.746 257.639 509.074 256.5C508.421 255.361 508.094 254.055 508.094 252.58C508.094 251.105 508.411 249.799 509.046 248.66C509.699 247.521 510.586 246.635 511.706 246C512.845 245.347 514.123 245.02 515.542 245.02C516.979 245.02 518.249 245.337 519.35 245.972C520.451 246.607 521.31 247.503 521.926 248.66C522.561 249.799 522.878 251.133 522.878 252.664C522.878 252.776 522.869 252.907 522.85 253.056C522.85 253.205 522.841 253.345 522.822 253.476H510.194V251.544H521.422L520.33 252.216C520.349 251.264 520.153 250.415 519.742 249.668C519.331 248.921 518.762 248.343 518.034 247.932C517.325 247.503 516.494 247.288 515.542 247.288C514.609 247.288 513.778 247.503 513.05 247.932C512.322 248.343 511.753 248.931 511.342 249.696C510.931 250.443 510.726 251.301 510.726 252.272V252.72C510.726 253.709 510.95 254.596 511.398 255.38C511.865 256.145 512.509 256.743 513.33 257.172C514.151 257.601 515.094 257.816 516.158 257.816C517.035 257.816 517.829 257.667 518.538 257.368C519.266 257.069 519.901 256.621 520.442 256.024L521.926 257.76C521.254 258.544 520.414 259.141 519.406 259.552C518.417 259.963 517.306 260.168 516.074 260.168ZM534.522 260V243.844C534.522 242.388 534.942 241.231 535.782 240.372C536.641 239.495 537.854 239.056 539.422 239.056C540.001 239.056 540.551 239.131 541.074 239.28C541.615 239.411 542.073 239.625 542.446 239.924L541.634 241.968C541.354 241.744 541.037 241.576 540.682 241.464C540.327 241.333 539.954 241.268 539.562 241.268C538.778 241.268 538.181 241.492 537.77 241.94C537.359 242.369 537.154 243.013 537.154 243.872V245.86L537.21 247.092V260H534.522ZM532.002 247.372V245.16H541.466V247.372H532.002ZM550.138 260.168C548.645 260.168 547.32 259.841 546.162 259.188C545.005 258.535 544.09 257.639 543.418 256.5C542.746 255.343 542.41 254.036 542.41 252.58C542.41 251.105 542.746 249.799 543.418 248.66C544.09 247.521 545.005 246.635 546.162 246C547.32 245.347 548.645 245.02 550.138 245.02C551.613 245.02 552.929 245.347 554.086 246C555.262 246.635 556.177 247.521 556.83 248.66C557.502 249.78 557.838 251.087 557.838 252.58C557.838 254.055 557.502 255.361 556.83 256.5C556.177 257.639 555.262 258.535 554.086 259.188C552.929 259.841 551.613 260.168 550.138 260.168ZM550.138 257.816C551.09 257.816 551.94 257.601 552.686 257.172C553.452 256.743 554.049 256.136 554.478 255.352C554.908 254.549 555.122 253.625 555.122 252.58C555.122 251.516 554.908 250.601 554.478 249.836C554.049 249.052 553.452 248.445 552.686 248.016C551.94 247.587 551.09 247.372 550.138 247.372C549.186 247.372 548.337 247.587 547.59 248.016C546.844 248.445 546.246 249.052 545.798 249.836C545.35 250.601 545.126 251.516 545.126 252.58C545.126 253.625 545.35 254.549 545.798 255.352C546.246 256.136 546.844 256.743 547.59 257.172C548.337 257.601 549.186 257.816 550.138 257.816ZM561.556 260V245.16H564.132V249.192L563.88 248.184C564.29 247.157 564.981 246.373 565.952 245.832C566.922 245.291 568.117 245.02 569.536 245.02V247.624C569.424 247.605 569.312 247.596 569.2 247.596C569.106 247.596 569.013 247.596 568.92 247.596C567.482 247.596 566.344 248.025 565.504 248.884C564.664 249.743 564.244 250.984 564.244 252.608V260H561.556ZM591.413 245.02C592.607 245.02 593.662 245.253 594.577 245.72C595.491 246.187 596.201 246.896 596.705 247.848C597.227 248.8 597.489 250.004 597.489 251.46V260H594.801V251.768C594.801 250.331 594.465 249.248 593.793 248.52C593.121 247.792 592.178 247.428 590.965 247.428C590.069 247.428 589.285 247.615 588.613 247.988C587.941 248.361 587.418 248.912 587.045 249.64C586.69 250.368 586.513 251.273 586.513 252.356V260H583.825V251.768C583.825 250.331 583.489 249.248 582.817 248.52C582.163 247.792 581.221 247.428 579.989 247.428C579.111 247.428 578.337 247.615 577.665 247.988C576.993 248.361 576.47 248.912 576.097 249.64C575.723 250.368 575.537 251.273 575.537 252.356V260H572.849V245.16H575.425V249.108L575.005 248.1C575.471 247.129 576.19 246.373 577.161 245.832C578.131 245.291 579.261 245.02 580.549 245.02C581.967 245.02 583.19 245.375 584.217 246.084C585.243 246.775 585.915 247.829 586.233 249.248L585.141 248.8C585.589 247.661 586.373 246.747 587.493 246.056C588.613 245.365 589.919 245.02 591.413 245.02ZM614.21 260.168C612.978 260.168 611.802 260 610.682 259.664C609.581 259.328 608.713 258.917 608.078 258.432L609.198 256.304C609.833 256.733 610.617 257.097 611.55 257.396C612.484 257.695 613.436 257.844 614.406 257.844C615.657 257.844 616.553 257.667 617.094 257.312C617.654 256.957 617.934 256.463 617.934 255.828C617.934 255.361 617.766 254.997 617.43 254.736C617.094 254.475 616.646 254.279 616.086 254.148C615.545 254.017 614.938 253.905 614.266 253.812C613.594 253.7 612.922 253.569 612.25 253.42C611.578 253.252 610.962 253.028 610.402 252.748C609.842 252.449 609.394 252.048 609.058 251.544C608.722 251.021 608.554 250.331 608.554 249.472C608.554 248.576 608.806 247.792 609.31 247.12C609.814 246.448 610.524 245.935 611.438 245.58C612.372 245.207 613.473 245.02 614.742 245.02C615.713 245.02 616.693 245.141 617.682 245.384C618.69 245.608 619.512 245.935 620.146 246.364L618.998 248.492C618.326 248.044 617.626 247.736 616.898 247.568C616.17 247.4 615.442 247.316 614.714 247.316C613.538 247.316 612.661 247.512 612.082 247.904C611.504 248.277 611.214 248.763 611.214 249.36C611.214 249.864 611.382 250.256 611.718 250.536C612.073 250.797 612.521 251.003 613.062 251.152C613.622 251.301 614.238 251.432 614.91 251.544C615.582 251.637 616.254 251.768 616.926 251.936C617.598 252.085 618.205 252.3 618.746 252.58C619.306 252.86 619.754 253.252 620.09 253.756C620.445 254.26 620.622 254.932 620.622 255.772C620.622 256.668 620.361 257.443 619.838 258.096C619.316 258.749 618.578 259.263 617.626 259.636C616.674 259.991 615.536 260.168 614.21 260.168ZM629.078 260.168C627.584 260.168 626.427 259.767 625.606 258.964C624.784 258.161 624.374 257.013 624.374 255.52V241.912H627.062V255.408C627.062 256.211 627.258 256.827 627.65 257.256C628.06 257.685 628.639 257.9 629.386 257.9C630.226 257.9 630.926 257.667 631.486 257.2L632.326 259.132C631.915 259.487 631.42 259.748 630.842 259.916C630.282 260.084 629.694 260.168 629.078 260.168ZM621.854 247.372V245.16H631.318V247.372H621.854ZM644.787 260V256.864L644.647 256.276V250.928C644.647 249.789 644.311 248.912 643.639 248.296C642.986 247.661 641.997 247.344 640.671 247.344C639.794 247.344 638.935 247.493 638.095 247.792C637.255 248.072 636.546 248.455 635.967 248.94L634.847 246.924C635.613 246.308 636.527 245.841 637.591 245.524C638.674 245.188 639.803 245.02 640.979 245.02C643.014 245.02 644.582 245.515 645.683 246.504C646.785 247.493 647.335 249.005 647.335 251.04V260H644.787ZM639.915 260.168C638.814 260.168 637.843 259.981 637.003 259.608C636.182 259.235 635.547 258.721 635.099 258.068C634.651 257.396 634.427 256.64 634.427 255.8C634.427 254.997 634.614 254.269 634.987 253.616C635.379 252.963 636.005 252.44 636.863 252.048C637.741 251.656 638.917 251.46 640.391 251.46H645.095V253.392H640.503C639.159 253.392 638.254 253.616 637.787 254.064C637.321 254.512 637.087 255.053 637.087 255.688C637.087 256.416 637.377 257.004 637.955 257.452C638.534 257.881 639.337 258.096 640.363 258.096C641.371 258.096 642.249 257.872 642.995 257.424C643.761 256.976 644.311 256.323 644.647 255.464L645.179 257.312C644.825 258.189 644.199 258.889 643.303 259.412C642.407 259.916 641.278 260.168 639.915 260.168ZM657.406 260.168C655.912 260.168 654.755 259.767 653.934 258.964C653.112 258.161 652.702 257.013 652.702 255.52V241.912H655.39V255.408C655.39 256.211 655.586 256.827 655.978 257.256C656.388 257.685 656.967 257.9 657.714 257.9C658.554 257.9 659.254 257.667 659.814 257.2L660.654 259.132C660.243 259.487 659.748 259.748 659.17 259.916C658.61 260.084 658.022 260.168 657.406 260.168ZM650.182 247.372V245.16H659.646V247.372H650.182ZM670.019 260.168C668.433 260.168 667.033 259.841 665.819 259.188C664.625 258.535 663.691 257.639 663.019 256.5C662.366 255.361 662.039 254.055 662.039 252.58C662.039 251.105 662.357 249.799 662.991 248.66C663.645 247.521 664.531 246.635 665.651 246C666.79 245.347 668.069 245.02 669.487 245.02C670.925 245.02 672.194 245.337 673.295 245.972C674.397 246.607 675.255 247.503 675.871 248.66C676.506 249.799 676.823 251.133 676.823 252.664C676.823 252.776 676.814 252.907 676.795 253.056C676.795 253.205 676.786 253.345 676.767 253.476H664.139V251.544H675.367L674.275 252.216C674.294 251.264 674.098 250.415 673.687 249.668C673.277 248.921 672.707 248.343 671.979 247.932C671.27 247.503 670.439 247.288 669.487 247.288C668.554 247.288 667.723 247.503 666.995 247.932C666.267 248.343 665.698 248.931 665.287 249.696C664.877 250.443 664.671 251.301 664.671 252.272V252.72C664.671 253.709 664.895 254.596 665.343 255.38C665.81 256.145 666.454 256.743 667.275 257.172C668.097 257.601 669.039 257.816 670.103 257.816C670.981 257.816 671.774 257.667 672.483 257.368C673.211 257.069 673.846 256.621 674.387 256.024L675.871 257.76C675.199 258.544 674.359 259.141 673.351 259.552C672.362 259.963 671.251 260.168 670.019 260.168ZM205.962 278.02C207.156 278.02 208.211 278.253 209.126 278.72C210.04 279.187 210.75 279.896 211.254 280.848C211.776 281.8 212.038 283.004 212.038 284.46V293H209.35V284.768C209.35 283.331 209.014 282.248 208.342 281.52C207.67 280.792 206.727 280.428 205.514 280.428C204.618 280.428 203.834 280.615 203.162 280.988C202.49 281.361 201.967 281.912 201.594 282.64C201.239 283.368 201.062 284.273 201.062 285.356V293H198.374V284.768C198.374 283.331 198.038 282.248 197.366 281.52C196.712 280.792 195.77 280.428 194.538 280.428C193.66 280.428 192.886 280.615 192.214 280.988C191.542 281.361 191.019 281.912 190.646 282.64C190.272 283.368 190.086 284.273 190.086 285.356V293H187.398V278.16H189.974V282.108L189.554 281.1C190.02 280.129 190.739 279.373 191.71 278.832C192.68 278.291 193.81 278.02 195.098 278.02C196.516 278.02 197.739 278.375 198.766 279.084C199.792 279.775 200.464 280.829 200.782 282.248L199.69 281.8C200.138 280.661 200.922 279.747 202.042 279.056C203.162 278.365 204.468 278.02 205.962 278.02ZM226.196 293V289.864L226.056 289.276V283.928C226.056 282.789 225.72 281.912 225.048 281.296C224.394 280.661 223.405 280.344 222.08 280.344C221.202 280.344 220.344 280.493 219.504 280.792C218.664 281.072 217.954 281.455 217.376 281.94L216.256 279.924C217.021 279.308 217.936 278.841 219 278.524C220.082 278.188 221.212 278.02 222.388 278.02C224.422 278.02 225.99 278.515 227.092 279.504C228.193 280.493 228.744 282.005 228.744 284.04V293H226.196ZM221.324 293.168C220.222 293.168 219.252 292.981 218.412 292.608C217.59 292.235 216.956 291.721 216.508 291.068C216.06 290.396 215.836 289.64 215.836 288.8C215.836 287.997 216.022 287.269 216.396 286.616C216.788 285.963 217.413 285.44 218.272 285.048C219.149 284.656 220.325 284.46 221.8 284.46H226.504V286.392H221.912C220.568 286.392 219.662 286.616 219.196 287.064C218.729 287.512 218.496 288.053 218.496 288.688C218.496 289.416 218.785 290.004 219.364 290.452C219.942 290.881 220.745 291.096 221.772 291.096C222.78 291.096 223.657 290.872 224.404 290.424C225.169 289.976 225.72 289.323 226.056 288.464L226.588 290.312C226.233 291.189 225.608 291.889 224.712 292.412C223.816 292.916 222.686 293.168 221.324 293.168ZM241.642 278.02C242.855 278.02 243.919 278.253 244.834 278.72C245.767 279.187 246.495 279.896 247.018 280.848C247.541 281.8 247.802 283.004 247.802 284.46V293H245.114V284.768C245.114 283.331 244.759 282.248 244.05 281.52C243.359 280.792 242.379 280.428 241.11 280.428C240.158 280.428 239.327 280.615 238.618 280.988C237.909 281.361 237.358 281.912 236.966 282.64C236.593 283.368 236.406 284.273 236.406 285.356V293H233.718V278.16H236.294V282.164L235.874 281.1C236.359 280.129 237.106 279.373 238.114 278.832C239.122 278.291 240.298 278.02 241.642 278.02ZM261.989 293V289.864L261.849 289.276V283.928C261.849 282.789 261.513 281.912 260.841 281.296C260.187 280.661 259.198 280.344 257.873 280.344C256.995 280.344 256.137 280.493 255.297 280.792C254.457 281.072 253.747 281.455 253.169 281.94L252.049 279.924C252.814 279.308 253.729 278.841 254.793 278.524C255.875 278.188 257.005 278.02 258.181 278.02C260.215 278.02 261.783 278.515 262.885 279.504C263.986 280.493 264.537 282.005 264.537 284.04V293H261.989ZM257.117 293.168C256.015 293.168 255.045 292.981 254.205 292.608C253.383 292.235 252.749 291.721 252.301 291.068C251.853 290.396 251.629 289.64 251.629 288.8C251.629 287.997 251.815 287.269 252.189 286.616C252.581 285.963 253.206 285.44 254.065 285.048C254.942 284.656 256.118 284.46 257.593 284.46H262.297V286.392H257.705C256.361 286.392 255.455 286.616 254.989 287.064C254.522 287.512 254.289 288.053 254.289 288.688C254.289 289.416 254.578 290.004 255.157 290.452C255.735 290.881 256.538 291.096 257.565 291.096C258.573 291.096 259.45 290.872 260.197 290.424C260.962 289.976 261.513 289.323 261.849 288.464L262.381 290.312C262.026 291.189 261.401 291.889 260.505 292.412C259.609 292.916 258.479 293.168 257.117 293.168ZM276.007 298.6C274.644 298.6 273.319 298.404 272.031 298.012C270.762 297.639 269.726 297.097 268.923 296.388L270.211 294.316C270.902 294.913 271.751 295.38 272.759 295.716C273.767 296.071 274.822 296.248 275.923 296.248C277.678 296.248 278.966 295.837 279.787 295.016C280.608 294.195 281.019 292.944 281.019 291.264V288.128L281.299 285.188L281.159 282.22V278.16H283.707V290.984C283.707 293.597 283.054 295.52 281.747 296.752C280.44 297.984 278.527 298.6 276.007 298.6ZM275.671 292.384C274.234 292.384 272.946 292.085 271.807 291.488C270.687 290.872 269.791 290.023 269.119 288.94C268.466 287.857 268.139 286.607 268.139 285.188C268.139 283.751 268.466 282.5 269.119 281.436C269.791 280.353 270.687 279.513 271.807 278.916C272.946 278.319 274.234 278.02 275.671 278.02C276.94 278.02 278.098 278.281 279.143 278.804C280.188 279.308 281.019 280.092 281.635 281.156C282.27 282.22 282.587 283.564 282.587 285.188C282.587 286.793 282.27 288.128 281.635 289.192C281.019 290.256 280.188 291.059 279.143 291.6C278.098 292.123 276.94 292.384 275.671 292.384ZM275.979 290.032C276.968 290.032 277.846 289.827 278.611 289.416C279.376 289.005 279.974 288.436 280.403 287.708C280.851 286.98 281.075 286.14 281.075 285.188C281.075 284.236 280.851 283.396 280.403 282.668C279.974 281.94 279.376 281.38 278.611 280.988C277.846 280.577 276.968 280.372 275.979 280.372C274.99 280.372 274.103 280.577 273.319 280.988C272.554 281.38 271.947 281.94 271.499 282.668C271.07 283.396 270.855 284.236 270.855 285.188C270.855 286.14 271.07 286.98 271.499 287.708C271.947 288.436 272.554 289.005 273.319 289.416C274.103 289.827 274.99 290.032 275.979 290.032ZM295.451 293.168C293.864 293.168 292.464 292.841 291.251 292.188C290.056 291.535 289.123 290.639 288.451 289.5C287.798 288.361 287.471 287.055 287.471 285.58C287.471 284.105 287.788 282.799 288.423 281.66C289.076 280.521 289.963 279.635 291.083 279C292.222 278.347 293.5 278.02 294.919 278.02C296.356 278.02 297.626 278.337 298.727 278.972C299.828 279.607 300.687 280.503 301.303 281.66C301.938 282.799 302.255 284.133 302.255 285.664C302.255 285.776 302.246 285.907 302.227 286.056C302.227 286.205 302.218 286.345 302.199 286.476H289.571V284.544H300.799L299.707 285.216C299.726 284.264 299.53 283.415 299.119 282.668C298.708 281.921 298.139 281.343 297.411 280.932C296.702 280.503 295.871 280.288 294.919 280.288C293.986 280.288 293.155 280.503 292.427 280.932C291.699 281.343 291.13 281.931 290.719 282.696C290.308 283.443 290.103 284.301 290.103 285.272V285.72C290.103 286.709 290.327 287.596 290.775 288.38C291.242 289.145 291.886 289.743 292.707 290.172C293.528 290.601 294.471 290.816 295.535 290.816C296.412 290.816 297.206 290.667 297.915 290.368C298.643 290.069 299.278 289.621 299.819 289.024L301.303 290.76C300.631 291.544 299.791 292.141 298.783 292.552C297.794 292.963 296.683 293.168 295.451 293.168ZM324.551 278.02C325.746 278.02 326.801 278.253 327.715 278.72C328.63 279.187 329.339 279.896 329.843 280.848C330.366 281.8 330.627 283.004 330.627 284.46V293H327.939V284.768C327.939 283.331 327.603 282.248 326.931 281.52C326.259 280.792 325.317 280.428 324.103 280.428C323.207 280.428 322.423 280.615 321.751 280.988C321.079 281.361 320.557 281.912 320.183 282.64C319.829 283.368 319.651 284.273 319.651 285.356V293H316.963V284.768C316.963 283.331 316.627 282.248 315.955 281.52C315.302 280.792 314.359 280.428 313.127 280.428C312.25 280.428 311.475 280.615 310.803 280.988C310.131 281.361 309.609 281.912 309.235 282.64C308.862 283.368 308.675 284.273 308.675 285.356V293H305.987V278.16H308.563V282.108L308.143 281.1C308.61 280.129 309.329 279.373 310.299 278.832C311.27 278.291 312.399 278.02 313.687 278.02C315.106 278.02 316.329 278.375 317.355 279.084C318.382 279.775 319.054 280.829 319.371 282.248L318.279 281.8C318.727 280.661 319.511 279.747 320.631 279.056C321.751 278.365 323.058 278.02 324.551 278.02ZM342.181 293.168C340.595 293.168 339.195 292.841 337.981 292.188C336.787 291.535 335.853 290.639 335.181 289.5C334.528 288.361 334.201 287.055 334.201 285.58C334.201 284.105 334.519 282.799 335.153 281.66C335.807 280.521 336.693 279.635 337.813 279C338.952 278.347 340.231 278.02 341.649 278.02C343.087 278.02 344.356 278.337 345.457 278.972C346.559 279.607 347.417 280.503 348.033 281.66C348.668 282.799 348.985 284.133 348.985 285.664C348.985 285.776 348.976 285.907 348.957 286.056C348.957 286.205 348.948 286.345 348.929 286.476H336.301V284.544H347.529L346.437 285.216C346.456 284.264 346.26 283.415 345.849 282.668C345.439 281.921 344.869 281.343 344.141 280.932C343.432 280.503 342.601 280.288 341.649 280.288C340.716 280.288 339.885 280.503 339.157 280.932C338.429 281.343 337.86 281.931 337.449 282.696C337.039 283.443 336.833 284.301 336.833 285.272V285.72C336.833 286.709 337.057 287.596 337.505 288.38C337.972 289.145 338.616 289.743 339.437 290.172C340.259 290.601 341.201 290.816 342.265 290.816C343.143 290.816 343.936 290.667 344.645 290.368C345.373 290.069 346.008 289.621 346.549 289.024L348.033 290.76C347.361 291.544 346.521 292.141 345.513 292.552C344.524 292.963 343.413 293.168 342.181 293.168ZM360.642 278.02C361.855 278.02 362.919 278.253 363.834 278.72C364.767 279.187 365.495 279.896 366.018 280.848C366.541 281.8 366.802 283.004 366.802 284.46V293H364.114V284.768C364.114 283.331 363.759 282.248 363.05 281.52C362.359 280.792 361.379 280.428 360.11 280.428C359.158 280.428 358.327 280.615 357.618 280.988C356.909 281.361 356.358 281.912 355.966 282.64C355.593 283.368 355.406 284.273 355.406 285.356V293H352.718V278.16H355.294V282.164L354.874 281.1C355.359 280.129 356.106 279.373 357.114 278.832C358.122 278.291 359.298 278.02 360.642 278.02ZM376.873 293.168C375.379 293.168 374.222 292.767 373.401 291.964C372.579 291.161 372.169 290.013 372.169 288.52V274.912H374.857V288.408C374.857 289.211 375.053 289.827 375.445 290.256C375.855 290.685 376.434 290.9 377.181 290.9C378.021 290.9 378.721 290.667 379.281 290.2L380.121 292.132C379.71 292.487 379.215 292.748 378.637 292.916C378.077 293.084 377.489 293.168 376.873 293.168ZM369.649 280.372V278.16H379.113V280.372H369.649ZM380.038 295.8L389.278 269.424H391.714L382.474 295.8H380.038ZM396.258 293L389.762 278.16H392.562L398.33 291.6H396.986L402.866 278.16H405.498L399.002 293H396.258ZM416.754 293V289.864L416.614 289.276V283.928C416.614 282.789 416.278 281.912 415.606 281.296C414.953 280.661 413.963 280.344 412.638 280.344C411.761 280.344 410.902 280.493 410.062 280.792C409.222 281.072 408.513 281.455 407.934 281.94L406.814 279.924C407.579 279.308 408.494 278.841 409.558 278.524C410.641 278.188 411.77 278.02 412.946 278.02C414.981 278.02 416.549 278.515 417.65 279.504C418.751 280.493 419.302 282.005 419.302 284.04V293H416.754ZM411.882 293.168C410.781 293.168 409.81 292.981 408.97 292.608C408.149 292.235 407.514 291.721 407.066 291.068C406.618 290.396 406.394 289.64 406.394 288.8C406.394 287.997 406.581 287.269 406.954 286.616C407.346 285.963 407.971 285.44 408.83 285.048C409.707 284.656 410.883 284.46 412.358 284.46H417.062V286.392H412.47C411.126 286.392 410.221 286.616 409.754 287.064C409.287 287.512 409.054 288.053 409.054 288.688C409.054 289.416 409.343 290.004 409.922 290.452C410.501 290.881 411.303 291.096 412.33 291.096C413.338 291.096 414.215 290.872 414.962 290.424C415.727 289.976 416.278 289.323 416.614 288.464L417.146 290.312C416.791 291.189 416.166 291.889 415.27 292.412C414.374 292.916 413.245 293.168 411.882 293.168ZM424.277 293V272.224H426.965V293H424.277ZM432.097 293V278.16H434.785V293H432.097ZM433.441 275.304C432.918 275.304 432.479 275.136 432.125 274.8C431.789 274.464 431.621 274.053 431.621 273.568C431.621 273.064 431.789 272.644 432.125 272.308C432.479 271.972 432.918 271.804 433.441 271.804C433.963 271.804 434.393 271.972 434.729 272.308C435.083 272.625 435.261 273.027 435.261 273.512C435.261 274.016 435.093 274.445 434.757 274.8C434.421 275.136 433.982 275.304 433.441 275.304ZM446.049 293.168C444.612 293.168 443.324 292.851 442.185 292.216C441.065 291.581 440.178 290.695 439.525 289.556C438.872 288.417 438.545 287.092 438.545 285.58C438.545 284.068 438.872 282.752 439.525 281.632C440.178 280.493 441.065 279.607 442.185 278.972C443.324 278.337 444.612 278.02 446.049 278.02C447.3 278.02 448.429 278.3 449.437 278.86C450.445 279.42 451.248 280.26 451.845 281.38C452.461 282.5 452.769 283.9 452.769 285.58C452.769 287.26 452.47 288.66 451.873 289.78C451.294 290.9 450.501 291.749 449.493 292.328C448.485 292.888 447.337 293.168 446.049 293.168ZM446.273 290.816C447.206 290.816 448.046 290.601 448.793 290.172C449.558 289.743 450.156 289.136 450.585 288.352C451.033 287.549 451.257 286.625 451.257 285.58C451.257 284.516 451.033 283.601 450.585 282.836C450.156 282.052 449.558 281.445 448.793 281.016C448.046 280.587 447.206 280.372 446.273 280.372C445.321 280.372 444.472 280.587 443.725 281.016C442.978 281.445 442.381 282.052 441.933 282.836C441.485 283.601 441.261 284.516 441.261 285.58C441.261 286.625 441.485 287.549 441.933 288.352C442.381 289.136 442.978 289.743 443.725 290.172C444.472 290.601 445.321 290.816 446.273 290.816ZM451.341 293V288.996L451.509 285.552L451.229 282.108V272.224H453.917V293H451.341ZM468.215 293V289.864L468.075 289.276V283.928C468.075 282.789 467.739 281.912 467.067 281.296C466.414 280.661 465.424 280.344 464.099 280.344C463.222 280.344 462.363 280.493 461.523 280.792C460.683 281.072 459.974 281.455 459.395 281.94L458.275 279.924C459.04 279.308 459.955 278.841 461.019 278.524C462.102 278.188 463.231 278.02 464.407 278.02C466.442 278.02 468.01 278.515 469.111 279.504C470.212 280.493 470.763 282.005 470.763 284.04V293H468.215ZM463.343 293.168C462.242 293.168 461.271 292.981 460.431 292.608C459.61 292.235 458.975 291.721 458.527 291.068C458.079 290.396 457.855 289.64 457.855 288.8C457.855 287.997 458.042 287.269 458.415 286.616C458.807 285.963 459.432 285.44 460.291 285.048C461.168 284.656 462.344 284.46 463.819 284.46H468.523V286.392H463.931C462.587 286.392 461.682 286.616 461.215 287.064C460.748 287.512 460.515 288.053 460.515 288.688C460.515 289.416 460.804 290.004 461.383 290.452C461.962 290.881 462.764 291.096 463.791 291.096C464.799 291.096 465.676 290.872 466.423 290.424C467.188 289.976 467.739 289.323 468.075 288.464L468.607 290.312C468.252 291.189 467.627 291.889 466.731 292.412C465.835 292.916 464.706 293.168 463.343 293.168ZM480.833 293.168C479.34 293.168 478.183 292.767 477.361 291.964C476.54 291.161 476.129 290.013 476.129 288.52V274.912H478.817V288.408C478.817 289.211 479.013 289.827 479.405 290.256C479.816 290.685 480.395 290.9 481.141 290.9C481.981 290.9 482.681 290.667 483.241 290.2L484.081 292.132C483.671 292.487 483.176 292.748 482.597 292.916C482.037 293.084 481.449 293.168 480.833 293.168ZM473.609 280.372V278.16H483.073V280.372H473.609ZM487.331 293V278.16H490.019V293H487.331ZM488.675 275.304C488.153 275.304 487.714 275.136 487.359 274.8C487.023 274.464 486.855 274.053 486.855 273.568C486.855 273.064 487.023 272.644 487.359 272.308C487.714 271.972 488.153 271.804 488.675 271.804C489.198 271.804 489.627 271.972 489.963 272.308C490.318 272.625 490.495 273.027 490.495 273.512C490.495 274.016 490.327 274.445 489.991 274.8C489.655 275.136 489.217 275.304 488.675 275.304ZM501.508 293.168C500.014 293.168 498.689 292.841 497.532 292.188C496.374 291.535 495.46 290.639 494.788 289.5C494.116 288.343 493.78 287.036 493.78 285.58C493.78 284.105 494.116 282.799 494.788 281.66C495.46 280.521 496.374 279.635 497.532 279C498.689 278.347 500.014 278.02 501.508 278.02C502.982 278.02 504.298 278.347 505.456 279C506.632 279.635 507.546 280.521 508.2 281.66C508.872 282.78 509.208 284.087 509.208 285.58C509.208 287.055 508.872 288.361 508.2 289.5C507.546 290.639 506.632 291.535 505.456 292.188C504.298 292.841 502.982 293.168 501.508 293.168ZM501.508 290.816C502.46 290.816 503.309 290.601 504.056 290.172C504.821 289.743 505.418 289.136 505.848 288.352C506.277 287.549 506.492 286.625 506.492 285.58C506.492 284.516 506.277 283.601 505.848 282.836C505.418 282.052 504.821 281.445 504.056 281.016C503.309 280.587 502.46 280.372 501.508 280.372C500.556 280.372 499.706 280.587 498.96 281.016C498.213 281.445 497.616 282.052 497.168 282.836C496.72 283.601 496.496 284.516 496.496 285.58C496.496 286.625 496.72 287.549 497.168 288.352C497.616 289.136 498.213 289.743 498.96 290.172C499.706 290.601 500.556 290.816 501.508 290.816ZM520.849 278.02C522.062 278.02 523.126 278.253 524.041 278.72C524.974 279.187 525.702 279.896 526.225 280.848C526.748 281.8 527.009 283.004 527.009 284.46V293H524.321V284.768C524.321 283.331 523.966 282.248 523.257 281.52C522.566 280.792 521.586 280.428 520.317 280.428C519.365 280.428 518.534 280.615 517.825 280.988C517.116 281.361 516.565 281.912 516.173 282.64C515.8 283.368 515.613 284.273 515.613 285.356V293H512.925V278.16H515.501V282.164L515.081 281.1C515.566 280.129 516.313 279.373 517.321 278.832C518.329 278.291 519.505 278.02 520.849 278.02ZM539.503 293V272.224H542.191V293H539.503ZM547.323 293V278.16H550.011V293H547.323ZM548.667 275.304C548.145 275.304 547.706 275.136 547.351 274.8C547.015 274.464 546.847 274.053 546.847 273.568C546.847 273.064 547.015 272.644 547.351 272.308C547.706 271.972 548.145 271.804 548.667 271.804C549.19 271.804 549.619 271.972 549.955 272.308C550.31 272.625 550.487 273.027 550.487 273.512C550.487 274.016 550.319 274.445 549.983 274.8C549.647 275.136 549.209 275.304 548.667 275.304ZM563.012 293.168C561.742 293.168 560.594 292.888 559.568 292.328C558.56 291.749 557.757 290.9 557.16 289.78C556.581 288.66 556.292 287.26 556.292 285.58C556.292 283.9 556.59 282.5 557.188 281.38C557.804 280.26 558.616 279.42 559.624 278.86C560.65 278.3 561.78 278.02 563.012 278.02C564.468 278.02 565.756 278.337 566.876 278.972C567.996 279.607 568.882 280.493 569.536 281.632C570.189 282.752 570.516 284.068 570.516 285.58C570.516 287.092 570.189 288.417 569.536 289.556C568.882 290.695 567.996 291.581 566.876 292.216C565.756 292.851 564.468 293.168 563.012 293.168ZM555.144 293V272.224H557.832V282.108L557.552 285.552L557.72 288.996V293H555.144ZM562.788 290.816C563.74 290.816 564.589 290.601 565.336 290.172C566.101 289.743 566.698 289.136 567.128 288.352C567.576 287.549 567.8 286.625 567.8 285.58C567.8 284.516 567.576 283.601 567.128 282.836C566.698 282.052 566.101 281.445 565.336 281.016C564.589 280.587 563.74 280.372 562.788 280.372C561.854 280.372 561.005 280.587 560.24 281.016C559.493 281.445 558.896 282.052 558.448 282.836C558.018 283.601 557.804 284.516 557.804 285.58C557.804 286.625 558.018 287.549 558.448 288.352C558.896 289.136 559.493 289.743 560.24 290.172C561.005 290.601 561.854 290.816 562.788 290.816ZM574.23 293V278.16H576.806V282.192L576.554 281.184C576.964 280.157 577.655 279.373 578.626 278.832C579.596 278.291 580.791 278.02 582.21 278.02V280.624C582.098 280.605 581.986 280.596 581.874 280.596C581.78 280.596 581.687 280.596 581.594 280.596C580.156 280.596 579.018 281.025 578.178 281.884C577.338 282.743 576.918 283.984 576.918 285.608V293H574.23ZM593.641 293V289.864L593.501 289.276V283.928C593.501 282.789 593.165 281.912 592.493 281.296C591.84 280.661 590.85 280.344 589.525 280.344C588.648 280.344 587.789 280.493 586.949 280.792C586.109 281.072 585.4 281.455 584.821 281.94L583.701 279.924C584.466 279.308 585.381 278.841 586.445 278.524C587.528 278.188 588.657 278.02 589.833 278.02C591.868 278.02 593.436 278.515 594.537 279.504C595.638 280.493 596.189 282.005 596.189 284.04V293H593.641ZM588.769 293.168C587.668 293.168 586.697 292.981 585.857 292.608C585.036 292.235 584.401 291.721 583.953 291.068C583.505 290.396 583.281 289.64 583.281 288.8C583.281 287.997 583.468 287.269 583.841 286.616C584.233 285.963 584.858 285.44 585.717 285.048C586.594 284.656 587.77 284.46 589.245 284.46H593.949V286.392H589.357C588.013 286.392 587.108 286.616 586.641 287.064C586.174 287.512 585.941 288.053 585.941 288.688C585.941 289.416 586.23 290.004 586.809 290.452C587.388 290.881 588.19 291.096 589.217 291.096C590.225 291.096 591.102 290.872 591.849 290.424C592.614 289.976 593.165 289.323 593.501 288.464L594.033 290.312C593.678 291.189 593.053 291.889 592.157 292.412C591.261 292.916 590.132 293.168 588.769 293.168ZM601.163 293V278.16H603.739V282.192L603.487 281.184C603.898 280.157 604.589 279.373 605.559 278.832C606.53 278.291 607.725 278.02 609.143 278.02V280.624C609.031 280.605 608.919 280.596 608.807 280.596C608.714 280.596 608.621 280.596 608.527 280.596C607.09 280.596 605.951 281.025 605.111 281.884C604.271 282.743 603.851 283.984 603.851 285.608V293H601.163ZM613.702 298.6C612.992 298.6 612.302 298.479 611.63 298.236C610.958 298.012 610.379 297.676 609.894 297.228L611.042 295.212C611.415 295.567 611.826 295.837 612.274 296.024C612.722 296.211 613.198 296.304 613.702 296.304C614.355 296.304 614.896 296.136 615.326 295.8C615.755 295.464 616.156 294.867 616.53 294.008L617.454 291.964L617.734 291.628L623.558 278.16H626.19L618.994 294.484C618.564 295.529 618.079 296.351 617.538 296.948C617.015 297.545 616.436 297.965 615.802 298.208C615.167 298.469 614.467 298.6 613.702 298.6ZM617.23 293.476L610.454 278.16H613.254L619.022 291.376L617.23 293.476Z" fill="#1C6FA6"/>
</svg>
