<svg width="811" height="346" viewBox="0 0 811 346" fill="none" xmlns="http://www.w3.org/2000/svg">
<rect width="811" height="346" fill="#1E1E1F"/>
<path d="M202.162 183.36H223.666V191.68H202.162V183.36ZM202.93 208H192.562V163.2H226.418V171.52H202.93V208ZM248.305 208.512C244.635 208.512 241.371 207.744 238.513 206.208C235.697 204.672 233.457 202.581 231.793 199.936C230.171 197.248 229.361 194.197 229.361 190.784C229.361 187.328 230.171 184.277 231.793 181.632C233.457 178.944 235.697 176.853 238.513 175.36C241.371 173.824 244.635 173.056 248.305 173.056C251.931 173.056 255.174 173.824 258.033 175.36C260.891 176.853 263.131 178.923 264.753 181.568C266.374 184.213 267.185 187.285 267.185 190.784C267.185 194.197 266.374 197.248 264.753 199.936C263.131 202.581 260.891 204.672 258.033 206.208C255.174 207.744 251.931 208.512 248.305 208.512ZM248.305 200.32C249.969 200.32 251.462 199.936 252.785 199.168C254.107 198.4 255.153 197.312 255.921 195.904C256.689 194.453 257.073 192.747 257.073 190.784C257.073 188.779 256.689 187.072 255.921 185.664C255.153 184.256 254.107 183.168 252.785 182.4C251.462 181.632 249.969 181.248 248.305 181.248C246.641 181.248 245.147 181.632 243.825 182.4C242.502 183.168 241.435 184.256 240.625 185.664C239.857 187.072 239.473 188.779 239.473 190.784C239.473 192.747 239.857 194.453 240.625 195.904C241.435 197.312 242.502 198.4 243.825 199.168C245.147 199.936 246.641 200.32 248.305 200.32ZM273.858 208V173.568H283.394V183.296L282.05 180.48C283.074 178.048 284.717 176.213 286.978 174.976C289.239 173.696 291.991 173.056 295.234 173.056V182.272C294.807 182.229 294.423 182.208 294.082 182.208C293.741 182.165 293.378 182.144 292.994 182.144C290.263 182.144 288.045 182.933 286.338 184.512C284.674 186.048 283.842 188.459 283.842 191.744V208H273.858ZM345.329 173.056C348.06 173.056 350.47 173.611 352.561 174.72C354.694 175.787 356.358 177.451 357.553 179.712C358.79 181.931 359.409 184.789 359.409 188.288V208H349.425V189.824C349.425 187.051 348.849 185.003 347.697 183.68C346.545 182.357 344.924 181.696 342.833 181.696C341.382 181.696 340.081 182.037 338.929 182.72C337.777 183.36 336.881 184.341 336.241 185.664C335.601 186.987 335.281 188.672 335.281 190.72V208H325.297V189.824C325.297 187.051 324.721 185.003 323.569 183.68C322.46 182.357 320.86 181.696 318.769 181.696C317.318 181.696 316.017 182.037 314.865 182.72C313.713 183.36 312.817 184.341 312.177 185.664C311.537 186.987 311.217 188.672 311.217 190.72V208H301.233V173.568H310.769V182.976L308.977 180.224C310.172 177.877 311.857 176.107 314.033 174.912C316.252 173.675 318.769 173.056 321.585 173.056C324.742 173.056 327.494 173.867 329.841 175.488C332.23 177.067 333.809 179.499 334.577 182.784L331.057 181.824C332.209 179.136 334.044 177.003 336.561 175.424C339.121 173.845 342.044 173.056 345.329 173.056ZM401.907 208.768C398.323 208.768 394.888 208.299 391.603 207.36C388.318 206.379 385.672 205.12 383.667 203.584L387.187 195.776C389.107 197.141 391.368 198.272 393.971 199.168C396.616 200.021 399.283 200.448 401.971 200.448C404.019 200.448 405.662 200.256 406.899 199.872C408.179 199.445 409.118 198.869 409.715 198.144C410.312 197.419 410.611 196.587 410.611 195.648C410.611 194.453 410.142 193.515 409.203 192.832C408.264 192.107 407.027 191.531 405.491 191.104C403.955 190.635 402.248 190.208 400.371 189.824C398.536 189.397 396.68 188.885 394.803 188.288C392.968 187.691 391.283 186.923 389.747 185.984C388.211 185.045 386.952 183.808 385.971 182.272C385.032 180.736 384.563 178.773 384.563 176.384C384.563 173.824 385.246 171.499 386.611 169.408C388.019 167.275 390.11 165.589 392.883 164.352C395.699 163.072 399.219 162.432 403.443 162.432C406.259 162.432 409.032 162.773 411.763 163.456C414.494 164.096 416.904 165.077 418.995 166.4L415.795 174.272C413.704 173.077 411.614 172.203 409.523 171.648C407.432 171.051 405.384 170.752 403.379 170.752C401.374 170.752 399.731 170.987 398.451 171.456C397.171 171.925 396.254 172.544 395.699 173.312C395.144 174.037 394.867 174.891 394.867 175.872C394.867 177.024 395.336 177.963 396.275 178.688C397.214 179.371 398.451 179.925 399.987 180.352C401.523 180.779 403.208 181.205 405.043 181.632C406.92 182.059 408.776 182.549 410.611 183.104C412.488 183.659 414.195 184.405 415.731 185.344C417.267 186.283 418.504 187.52 419.443 189.056C420.424 190.592 420.915 192.533 420.915 194.88C420.915 197.397 420.211 199.701 418.803 201.792C417.395 203.883 415.283 205.568 412.467 206.848C409.694 208.128 406.174 208.768 401.907 208.768ZM427.296 208V173.568H437.28V208H427.296ZM432.288 168.768C430.453 168.768 428.96 168.235 427.808 167.168C426.656 166.101 426.08 164.779 426.08 163.2C426.08 161.621 426.656 160.299 427.808 159.232C428.96 158.165 430.453 157.632 432.288 157.632C434.122 157.632 435.616 158.144 436.768 159.168C437.92 160.149 438.496 161.429 438.496 163.008C438.496 164.672 437.92 166.059 436.768 167.168C435.658 168.235 434.165 168.768 432.288 168.768ZM462.738 220.928C459.495 220.928 456.359 220.523 453.33 219.712C450.343 218.944 447.847 217.771 445.842 216.192L449.81 209.024C451.26 210.219 453.095 211.157 455.314 211.84C457.575 212.565 459.794 212.928 461.97 212.928C465.511 212.928 468.071 212.139 469.65 210.56C471.271 208.981 472.082 206.635 472.082 203.52V198.336L472.722 189.696L472.594 180.992V173.568H482.066V202.24C482.066 208.64 480.402 213.355 477.074 216.384C473.746 219.413 468.967 220.928 462.738 220.928ZM461.202 206.336C458.002 206.336 455.1 205.653 452.498 204.288C449.938 202.88 447.868 200.939 446.29 198.464C444.754 195.947 443.986 193.024 443.986 189.696C443.986 186.325 444.754 183.403 446.29 180.928C447.868 178.411 449.938 176.469 452.498 175.104C455.1 173.739 458.002 173.056 461.202 173.056C464.103 173.056 466.663 173.653 468.882 174.848C471.1 176 472.828 177.813 474.066 180.288C475.303 182.72 475.922 185.856 475.922 189.696C475.922 193.493 475.303 196.629 474.066 199.104C472.828 201.536 471.1 203.349 468.882 204.544C466.663 205.739 464.103 206.336 461.202 206.336ZM463.186 198.144C464.935 198.144 466.492 197.803 467.858 197.12C469.223 196.395 470.29 195.392 471.058 194.112C471.826 192.832 472.21 191.36 472.21 189.696C472.21 187.989 471.826 186.517 471.058 185.28C470.29 184 469.223 183.019 467.858 182.336C466.492 181.611 464.935 181.248 463.186 181.248C461.436 181.248 459.879 181.611 458.514 182.336C457.148 183.019 456.06 184 455.25 185.28C454.482 186.517 454.098 187.989 454.098 189.696C454.098 191.36 454.482 192.832 455.25 194.112C456.06 195.392 457.148 196.395 458.514 197.12C459.879 197.803 461.436 198.144 463.186 198.144ZM512.286 173.056C515.017 173.056 517.449 173.611 519.582 174.72C521.758 175.787 523.465 177.451 524.702 179.712C525.939 181.931 526.558 184.789 526.558 188.288V208H516.574V189.824C516.574 187.051 515.955 185.003 514.718 183.68C513.523 182.357 511.817 181.696 509.598 181.696C508.019 181.696 506.59 182.037 505.31 182.72C504.073 183.36 503.091 184.363 502.366 185.728C501.683 187.093 501.342 188.843 501.342 190.976V208H491.358V173.568H500.894V183.104L499.102 180.224C500.339 177.92 502.11 176.149 504.414 174.912C506.718 173.675 509.342 173.056 512.286 173.056ZM556.728 208V201.28L556.088 199.808V187.776C556.088 185.643 555.427 183.979 554.104 182.784C552.824 181.589 550.84 180.992 548.152 180.992C546.317 180.992 544.504 181.291 542.712 181.888C540.963 182.443 539.469 183.211 538.232 184.192L534.648 177.216C536.525 175.893 538.787 174.869 541.432 174.144C544.077 173.419 546.765 173.056 549.496 173.056C554.744 173.056 558.819 174.293 561.72 176.768C564.621 179.243 566.072 183.104 566.072 188.352V208H556.728ZM546.232 208.512C543.544 208.512 541.24 208.064 539.32 207.168C537.4 206.229 535.928 204.971 534.904 203.392C533.88 201.813 533.368 200.043 533.368 198.08C533.368 196.032 533.859 194.24 534.84 192.704C535.864 191.168 537.464 189.973 539.64 189.12C541.816 188.224 544.653 187.776 548.152 187.776H557.304V193.6H549.24C546.893 193.6 545.272 193.984 544.376 194.752C543.523 195.52 543.096 196.48 543.096 197.632C543.096 198.912 543.587 199.936 544.568 200.704C545.592 201.429 546.979 201.792 548.728 201.792C550.392 201.792 551.885 201.408 553.208 200.64C554.531 199.829 555.491 198.656 556.088 197.12L557.624 201.728C556.899 203.947 555.576 205.632 553.656 206.784C551.736 207.936 549.261 208.512 546.232 208.512ZM575.108 208V160.512H585.092V208H575.108ZM605.942 208.512C602.998 208.512 600.161 208.171 597.43 207.488C594.742 206.763 592.609 205.867 591.03 204.8L594.358 197.632C595.937 198.613 597.793 199.424 599.926 200.064C602.102 200.661 604.235 200.96 606.326 200.96C608.63 200.96 610.251 200.683 611.19 200.128C612.171 199.573 612.662 198.805 612.662 197.824C612.662 197.013 612.278 196.416 611.51 196.032C610.785 195.605 609.803 195.285 608.566 195.072C607.329 194.859 605.963 194.645 604.47 194.432C603.019 194.219 601.547 193.941 600.054 193.6C598.561 193.216 597.195 192.661 595.958 191.936C594.721 191.211 593.718 190.229 592.95 188.992C592.225 187.755 591.862 186.155 591.862 184.192C591.862 182.016 592.481 180.096 593.718 178.432C594.998 176.768 596.833 175.467 599.222 174.528C601.611 173.547 604.47 173.056 607.798 173.056C610.145 173.056 612.534 173.312 614.966 173.824C617.398 174.336 619.425 175.083 621.046 176.064L617.718 183.168C616.054 182.187 614.369 181.525 612.662 181.184C610.998 180.8 609.377 180.608 607.798 180.608C605.579 180.608 603.958 180.907 602.934 181.504C601.91 182.101 601.398 182.869 601.398 183.808C601.398 184.661 601.761 185.301 602.486 185.728C603.254 186.155 604.257 186.496 605.494 186.752C606.731 187.008 608.075 187.243 609.526 187.456C611.019 187.627 612.513 187.904 614.006 188.288C615.499 188.672 616.843 189.227 618.038 189.952C619.275 190.635 620.278 191.595 621.046 192.832C621.814 194.027 622.198 195.605 622.198 197.568C622.198 199.701 621.558 201.6 620.278 203.264C618.998 204.885 617.142 206.165 614.71 207.104C612.321 208.043 609.398 208.512 605.942 208.512Z" fill="#F0F9FF"/>
<rect x="378.833" y="69.3333" width="53.3333" height="13.3333" rx="2" fill="#1C6FA6"/>
<rect x="378.833" y="88" width="13.3333" height="13.3333" rx="2" fill="#1C6FA6"/>
<rect x="394.833" y="88" width="37.3333" height="13.3333" rx="2" fill="#1C6FA6"/>
<rect x="378.833" y="106.667" width="32" height="13.3333" rx="2" fill="#E11D48"/>
<rect x="413.5" y="106.667" width="18.6667" height="13.3333" rx="2" fill="#1C6FA6"/>
<path d="M372.213 129C368.487 129 365.681 128.066 363.793 126.199C361.905 124.38 360.961 121.677 360.961 118.09V101.135C360.961 99.8568 360.663 98.9231 360.067 98.3333C359.471 97.7436 358.651 97.4487 357.608 97.4487H356C355.448 97.4487 355 97.001 355 96.4487V92.5513C355 91.999 355.448 91.5513 356 91.5513H357.608C358.651 91.5513 359.471 91.2564 360.067 90.6667C360.663 90.0769 360.961 89.1432 360.961 87.8654V70.9103C360.961 67.2735 361.905 64.5459 363.793 62.7276C365.681 60.9092 368.487 60 372.213 60H374.492C375.044 60 375.492 60.4477 375.492 61V64.8237C375.492 65.376 375.044 65.8237 374.492 65.8237H373.629C371.791 65.8237 370.4 66.3152 369.456 67.2981C368.562 68.281 368.115 69.7062 368.115 71.5737V87.7179C368.115 89.438 367.891 90.7895 367.444 91.7724C366.997 92.7062 366.326 93.4188 365.432 93.9103C364.679 94.3047 363.709 94.6209 362.521 94.859C362.291 94.9051 362.079 94.727 362.079 94.4923V94.4923C362.079 94.2628 362.282 94.086 362.509 94.1246C363.702 94.3282 364.676 94.65 365.432 95.0897C366.326 95.5812 366.997 96.3184 367.444 97.3013C367.891 98.235 368.115 99.562 368.115 101.282V117.426C368.115 119.294 368.562 120.719 369.456 121.702C370.4 122.685 371.791 123.176 373.629 123.176H374.492C375.044 123.176 375.492 123.624 375.492 124.176V128C375.492 128.552 375.044 129 374.492 129H372.213Z" fill="#1C6FA6"/>
<path d="M438.861 129H436.583C436.03 129 435.583 128.552 435.583 128V124.176C435.583 123.624 436.03 123.176 436.583 123.176H437.371C439.308 123.176 440.724 122.685 441.618 121.702C442.562 120.719 443.034 119.294 443.034 117.426V101.282C443.034 99.562 443.233 98.235 443.63 97.3013C444.077 96.3184 444.748 95.5812 445.642 95.0897C446.439 94.6516 447.414 94.3307 448.567 94.1269C448.792 94.0871 448.995 94.2631 448.995 94.492V94.492C448.995 94.7264 448.783 94.9037 448.553 94.8561C447.407 94.6183 446.436 94.303 445.642 93.9103C444.748 93.4188 444.077 92.7062 443.63 91.7724C443.233 90.7895 443.034 89.438 443.034 87.7179V71.5737C443.034 69.7062 442.562 68.281 441.618 67.2981C440.724 66.3152 439.308 65.8237 437.371 65.8237H436.583C436.03 65.8237 435.583 65.376 435.583 64.8237V61C435.583 60.4477 436.03 60 436.583 60H438.861C442.587 60 445.394 60.9092 447.282 62.7276C449.219 64.5459 450.188 67.2735 450.188 70.9103V87.8654C450.188 89.1432 450.486 90.0769 451.082 90.6667C451.678 91.2564 452.473 91.5513 453.466 91.5513H455C455.552 91.5513 456 91.999 456 92.5513V96.4487C456 97.001 455.552 97.4487 455 97.4487H453.466C452.473 97.4487 451.678 97.7436 451.082 98.3333C450.486 98.9231 450.188 99.8568 450.188 101.135V118.09C450.188 121.677 449.219 124.38 447.282 126.199C445.394 128.066 442.587 129 438.861 129Z" fill="#1C6FA6"/>
<path d="M135.932 259V239.4H143.576C145.294 239.4 146.759 239.671 147.972 240.212C149.186 240.753 150.119 241.537 150.772 242.564C151.426 243.591 151.752 244.813 151.752 246.232C151.752 247.651 151.426 248.873 150.772 249.9C150.119 250.908 149.186 251.683 147.972 252.224C146.759 252.765 145.294 253.036 143.576 253.036H137.472L138.732 251.748V259H135.932ZM149.036 259L144.052 251.888H147.048L152.088 259H149.036ZM138.732 252.028L137.472 250.656H143.492C145.284 250.656 146.638 250.273 147.552 249.508C148.486 248.724 148.952 247.632 148.952 246.232C148.952 244.832 148.486 243.749 147.552 242.984C146.638 242.219 145.284 241.836 143.492 241.836H137.472L138.732 240.436V252.028ZM162.492 259.168C160.905 259.168 159.505 258.841 158.292 258.188C157.097 257.535 156.164 256.639 155.492 255.5C154.839 254.361 154.512 253.055 154.512 251.58C154.512 250.105 154.829 248.799 155.464 247.66C156.117 246.521 157.004 245.635 158.124 245C159.263 244.347 160.541 244.02 161.96 244.02C163.397 244.02 164.667 244.337 165.768 244.972C166.869 245.607 167.728 246.503 168.344 247.66C168.979 248.799 169.296 250.133 169.296 251.664C169.296 251.776 169.287 251.907 169.268 252.056C169.268 252.205 169.259 252.345 169.24 252.476H156.612V250.544H167.84L166.748 251.216C166.767 250.264 166.571 249.415 166.16 248.668C165.749 247.921 165.18 247.343 164.452 246.932C163.743 246.503 162.912 246.288 161.96 246.288C161.027 246.288 160.196 246.503 159.468 246.932C158.74 247.343 158.171 247.931 157.76 248.696C157.349 249.443 157.144 250.301 157.144 251.272V251.72C157.144 252.709 157.368 253.596 157.816 254.38C158.283 255.145 158.927 255.743 159.748 256.172C160.569 256.601 161.512 256.816 162.576 256.816C163.453 256.816 164.247 256.667 164.956 256.368C165.684 256.069 166.319 255.621 166.86 255.024L168.344 256.76C167.672 257.544 166.832 258.141 165.824 258.552C164.835 258.963 163.724 259.168 162.492 259.168ZM181.83 259V255.864L181.69 255.276V249.928C181.69 248.789 181.354 247.912 180.682 247.296C180.029 246.661 179.04 246.344 177.714 246.344C176.837 246.344 175.978 246.493 175.138 246.792C174.298 247.072 173.589 247.455 173.01 247.94L171.89 245.924C172.656 245.308 173.57 244.841 174.634 244.524C175.717 244.188 176.846 244.02 178.022 244.02C180.057 244.02 181.625 244.515 182.726 245.504C183.828 246.493 184.378 248.005 184.378 250.04V259H181.83ZM176.958 259.168C175.857 259.168 174.886 258.981 174.046 258.608C173.225 258.235 172.59 257.721 172.142 257.068C171.694 256.396 171.47 255.64 171.47 254.8C171.47 253.997 171.657 253.269 172.03 252.616C172.422 251.963 173.048 251.44 173.906 251.048C174.784 250.656 175.96 250.46 177.434 250.46H182.138V252.392H177.546C176.202 252.392 175.297 252.616 174.83 253.064C174.364 253.512 174.13 254.053 174.13 254.688C174.13 255.416 174.42 256.004 174.998 256.452C175.577 256.881 176.38 257.096 177.406 257.096C178.414 257.096 179.292 256.872 180.038 256.424C180.804 255.976 181.354 255.323 181.69 254.464L182.222 256.312C181.868 257.189 181.242 257.889 180.346 258.412C179.45 258.916 178.321 259.168 176.958 259.168ZM195.821 259.168C194.309 259.168 192.955 258.841 191.761 258.188C190.585 257.535 189.661 256.639 188.989 255.5C188.317 254.361 187.981 253.055 187.981 251.58C187.981 250.105 188.317 248.799 188.989 247.66C189.661 246.521 190.585 245.635 191.761 245C192.955 244.347 194.309 244.02 195.821 244.02C197.165 244.02 198.359 244.291 199.405 244.832C200.469 245.355 201.29 246.139 201.869 247.184L199.825 248.5C199.339 247.772 198.742 247.24 198.033 246.904C197.342 246.549 196.595 246.372 195.793 246.372C194.822 246.372 193.954 246.587 193.189 247.016C192.423 247.445 191.817 248.052 191.369 248.836C190.921 249.601 190.697 250.516 190.697 251.58C190.697 252.644 190.921 253.568 191.369 254.352C191.817 255.136 192.423 255.743 193.189 256.172C193.954 256.601 194.822 256.816 195.793 256.816C196.595 256.816 197.342 256.648 198.033 256.312C198.742 255.957 199.339 255.416 199.825 254.688L201.869 255.976C201.29 257.003 200.469 257.796 199.405 258.356C198.359 258.897 197.165 259.168 195.821 259.168ZM210.636 259.168C209.143 259.168 207.986 258.767 207.164 257.964C206.343 257.161 205.932 256.013 205.932 254.52V240.912H208.62V254.408C208.62 255.211 208.816 255.827 209.208 256.256C209.619 256.685 210.198 256.9 210.944 256.9C211.784 256.9 212.484 256.667 213.044 256.2L213.884 258.132C213.474 258.487 212.979 258.748 212.4 258.916C211.84 259.084 211.252 259.168 210.636 259.168ZM203.412 246.372V244.16H212.876V246.372H203.412ZM217.134 259V244.16H219.822V259H217.134ZM218.478 241.304C217.955 241.304 217.517 241.136 217.162 240.8C216.826 240.464 216.658 240.053 216.658 239.568C216.658 239.064 216.826 238.644 217.162 238.308C217.517 237.972 217.955 237.804 218.478 237.804C219.001 237.804 219.43 237.972 219.766 238.308C220.121 238.625 220.298 239.027 220.298 239.512C220.298 240.016 220.13 240.445 219.794 240.8C219.458 241.136 219.019 241.304 218.478 241.304ZM228.846 259L222.35 244.16H225.15L230.918 257.6H229.574L235.454 244.16H238.086L231.59 259H228.846ZM246.793 259.168C245.206 259.168 243.806 258.841 242.593 258.188C241.398 257.535 240.465 256.639 239.793 255.5C239.139 254.361 238.813 253.055 238.813 251.58C238.813 250.105 239.13 248.799 239.765 247.66C240.418 246.521 241.305 245.635 242.425 245C243.563 244.347 244.842 244.02 246.261 244.02C247.698 244.02 248.967 244.337 250.069 244.972C251.17 245.607 252.029 246.503 252.645 247.66C253.279 248.799 253.597 250.133 253.597 251.664C253.597 251.776 253.587 251.907 253.569 252.056C253.569 252.205 253.559 252.345 253.541 252.476H240.913V250.544H252.141L251.049 251.216C251.067 250.264 250.871 249.415 250.461 248.668C250.05 247.921 249.481 247.343 248.753 246.932C248.043 246.503 247.213 246.288 246.261 246.288C245.327 246.288 244.497 246.503 243.769 246.932C243.041 247.343 242.471 247.931 242.061 248.696C241.65 249.443 241.445 250.301 241.445 251.272V251.72C241.445 252.709 241.669 253.596 242.117 254.38C242.583 255.145 243.227 255.743 244.049 256.172C244.87 256.601 245.813 256.816 246.877 256.816C247.754 256.816 248.547 256.667 249.257 256.368C249.985 256.069 250.619 255.621 251.161 255.024L252.645 256.76C251.973 257.544 251.133 258.141 250.125 258.552C249.135 258.963 248.025 259.168 246.793 259.168ZM274.061 259V255.864L273.921 255.276V249.928C273.921 248.789 273.585 247.912 272.913 247.296C272.259 246.661 271.27 246.344 269.945 246.344C269.067 246.344 268.209 246.493 267.369 246.792C266.529 247.072 265.819 247.455 265.241 247.94L264.121 245.924C264.886 245.308 265.801 244.841 266.865 244.524C267.947 244.188 269.077 244.02 270.253 244.02C272.287 244.02 273.855 244.515 274.957 245.504C276.058 246.493 276.609 248.005 276.609 250.04V259H274.061ZM269.189 259.168C268.087 259.168 267.117 258.981 266.277 258.608C265.455 258.235 264.821 257.721 264.373 257.068C263.925 256.396 263.701 255.64 263.701 254.8C263.701 253.997 263.887 253.269 264.261 252.616C264.653 251.963 265.278 251.44 266.137 251.048C267.014 250.656 268.19 250.46 269.665 250.46H274.369V252.392H269.777C268.433 252.392 267.527 252.616 267.061 253.064C266.594 253.512 266.361 254.053 266.361 254.688C266.361 255.416 266.65 256.004 267.229 256.452C267.807 256.881 268.61 257.096 269.637 257.096C270.645 257.096 271.522 256.872 272.269 256.424C273.034 255.976 273.585 255.323 273.921 254.464L274.453 256.312C274.098 257.189 273.473 257.889 272.577 258.412C271.681 258.916 270.551 259.168 269.189 259.168ZM289.507 244.02C290.72 244.02 291.784 244.253 292.699 244.72C293.632 245.187 294.36 245.896 294.883 246.848C295.406 247.8 295.667 249.004 295.667 250.46V259H292.979V250.768C292.979 249.331 292.624 248.248 291.915 247.52C291.224 246.792 290.244 246.428 288.975 246.428C288.023 246.428 287.192 246.615 286.483 246.988C285.774 247.361 285.223 247.912 284.831 248.64C284.458 249.368 284.271 250.273 284.271 251.356V259H281.583V244.16H284.159V248.164L283.739 247.1C284.224 246.129 284.971 245.373 285.979 244.832C286.987 244.291 288.163 244.02 289.507 244.02ZM306.774 259.168C305.336 259.168 304.048 258.851 302.91 258.216C301.79 257.581 300.903 256.695 300.25 255.556C299.596 254.417 299.27 253.092 299.27 251.58C299.27 250.068 299.596 248.752 300.25 247.632C300.903 246.493 301.79 245.607 302.91 244.972C304.048 244.337 305.336 244.02 306.774 244.02C308.024 244.02 309.154 244.3 310.162 244.86C311.17 245.42 311.972 246.26 312.57 247.38C313.186 248.5 313.494 249.9 313.494 251.58C313.494 253.26 313.195 254.66 312.598 255.78C312.019 256.9 311.226 257.749 310.218 258.328C309.21 258.888 308.062 259.168 306.774 259.168ZM306.998 256.816C307.931 256.816 308.771 256.601 309.518 256.172C310.283 255.743 310.88 255.136 311.31 254.352C311.758 253.549 311.982 252.625 311.982 251.58C311.982 250.516 311.758 249.601 311.31 248.836C310.88 248.052 310.283 247.445 309.518 247.016C308.771 246.587 307.931 246.372 306.998 246.372C306.046 246.372 305.196 246.587 304.45 247.016C303.703 247.445 303.106 248.052 302.658 248.836C302.21 249.601 301.986 250.516 301.986 251.58C301.986 252.625 302.21 253.549 302.658 254.352C303.106 255.136 303.703 255.743 304.45 256.172C305.196 256.601 306.046 256.816 306.998 256.816ZM312.066 259V254.996L312.234 251.552L311.954 248.108V238.224H314.642V259H312.066ZM327.639 259V242.844C327.639 241.388 328.059 240.231 328.899 239.372C329.758 238.495 330.971 238.056 332.539 238.056C333.118 238.056 333.669 238.131 334.191 238.28C334.733 238.411 335.19 238.625 335.563 238.924L334.751 240.968C334.471 240.744 334.154 240.576 333.799 240.464C333.445 240.333 333.071 240.268 332.679 240.268C331.895 240.268 331.298 240.492 330.887 240.94C330.477 241.369 330.271 242.013 330.271 242.872V244.86L330.327 246.092V259H327.639ZM325.119 246.372V244.16H334.583V246.372H325.119ZM343.362 259.168C342.093 259.168 340.973 258.935 340.002 258.468C339.05 258.001 338.304 257.292 337.762 256.34C337.24 255.369 336.978 254.156 336.978 252.7V244.16H339.666V252.392C339.666 253.848 340.012 254.94 340.702 255.668C341.412 256.396 342.401 256.76 343.67 256.76C344.604 256.76 345.416 256.573 346.106 256.2C346.797 255.808 347.329 255.248 347.702 254.52C348.076 253.773 348.262 252.877 348.262 251.832V244.16H350.95V259H348.402V254.996L348.822 256.06C348.337 257.049 347.609 257.815 346.638 258.356C345.668 258.897 344.576 259.168 343.362 259.168ZM356.068 259V238.224H358.756V259H356.068ZM363.888 259V238.224H366.576V259H363.888ZM372.352 264.6C371.643 264.6 370.952 264.479 370.28 264.236C369.608 264.012 369.029 263.676 368.544 263.228L369.692 261.212C370.065 261.567 370.476 261.837 370.924 262.024C371.372 262.211 371.848 262.304 372.352 262.304C373.005 262.304 373.547 262.136 373.976 261.8C374.405 261.464 374.807 260.867 375.18 260.008L376.104 257.964L376.384 257.628L382.208 244.16H384.84L377.644 260.484C377.215 261.529 376.729 262.351 376.188 262.948C375.665 263.545 375.087 263.965 374.452 264.208C373.817 264.469 373.117 264.6 372.352 264.6ZM375.88 259.476L369.104 244.16H371.904L377.672 257.376L375.88 259.476ZM399.964 259.168C398.471 259.168 397.314 258.767 396.492 257.964C395.671 257.161 395.26 256.013 395.26 254.52V240.912H397.948V254.408C397.948 255.211 398.144 255.827 398.536 256.256C398.947 256.685 399.526 256.9 400.272 256.9C401.112 256.9 401.812 256.667 402.372 256.2L403.212 258.132C402.802 258.487 402.307 258.748 401.728 258.916C401.168 259.084 400.58 259.168 399.964 259.168ZM392.74 246.372V244.16H402.204V246.372H392.74ZM406.833 264.6C406.123 264.6 405.433 264.479 404.761 264.236C404.089 264.012 403.51 263.676 403.025 263.228L404.173 261.212C404.546 261.567 404.957 261.837 405.405 262.024C405.853 262.211 406.329 262.304 406.833 262.304C407.486 262.304 408.027 262.136 408.457 261.8C408.886 261.464 409.287 260.867 409.661 260.008L410.585 257.964L410.865 257.628L416.689 244.16H419.321L412.125 260.484C411.695 261.529 411.21 262.351 410.669 262.948C410.146 263.545 409.567 263.965 408.933 264.208C408.298 264.469 407.598 264.6 406.833 264.6ZM410.361 259.476L403.585 244.16H406.385L412.153 257.376L410.361 259.476ZM429.697 259.168C428.465 259.168 427.336 258.888 426.309 258.328C425.301 257.749 424.489 256.9 423.873 255.78C423.276 254.66 422.977 253.26 422.977 251.58C422.977 249.9 423.267 248.5 423.845 247.38C424.443 246.26 425.245 245.42 426.253 244.86C427.28 244.3 428.428 244.02 429.697 244.02C431.153 244.02 432.441 244.337 433.561 244.972C434.681 245.607 435.568 246.493 436.221 247.632C436.875 248.752 437.201 250.068 437.201 251.58C437.201 253.092 436.875 254.417 436.221 255.556C435.568 256.695 434.681 257.581 433.561 258.216C432.441 258.851 431.153 259.168 429.697 259.168ZM421.829 264.432V244.16H424.405V248.164L424.237 251.608L424.517 255.052V264.432H421.829ZM429.473 256.816C430.425 256.816 431.275 256.601 432.021 256.172C432.787 255.743 433.384 255.136 433.813 254.352C434.261 253.549 434.485 252.625 434.485 251.58C434.485 250.516 434.261 249.601 433.813 248.836C433.384 248.052 432.787 247.445 432.021 247.016C431.275 246.587 430.425 246.372 429.473 246.372C428.54 246.372 427.691 246.587 426.925 247.016C426.179 247.445 425.581 248.052 425.133 248.836C424.704 249.601 424.489 250.516 424.489 251.58C424.489 252.625 424.704 253.549 425.133 254.352C425.581 255.136 426.179 255.743 426.925 256.172C427.691 256.601 428.54 256.816 429.473 256.816ZM447.523 259.168C445.937 259.168 444.537 258.841 443.323 258.188C442.129 257.535 441.195 256.639 440.523 255.5C439.87 254.361 439.543 253.055 439.543 251.58C439.543 250.105 439.861 248.799 440.495 247.66C441.149 246.521 442.035 245.635 443.155 245C444.294 244.347 445.573 244.02 446.991 244.02C448.429 244.02 449.698 244.337 450.799 244.972C451.901 245.607 452.759 246.503 453.375 247.66C454.01 248.799 454.327 250.133 454.327 251.664C454.327 251.776 454.318 251.907 454.299 252.056C454.299 252.205 454.29 252.345 454.271 252.476H441.643V250.544H452.871L451.779 251.216C451.798 250.264 451.602 249.415 451.191 248.668C450.781 247.921 450.211 247.343 449.483 246.932C448.774 246.503 447.943 246.288 446.991 246.288C446.058 246.288 445.227 246.503 444.499 246.932C443.771 247.343 443.202 247.931 442.791 248.696C442.381 249.443 442.175 250.301 442.175 251.272V251.72C442.175 252.709 442.399 253.596 442.847 254.38C443.314 255.145 443.958 255.743 444.779 256.172C445.601 256.601 446.543 256.816 447.607 256.816C448.485 256.816 449.278 256.667 449.987 256.368C450.715 256.069 451.35 255.621 451.891 255.024L453.375 256.76C452.703 257.544 451.863 258.141 450.855 258.552C449.866 258.963 448.755 259.168 447.523 259.168ZM457.381 252.476V250.152H464.913V252.476H457.381ZM473.308 259.168C472.076 259.168 470.9 259 469.78 258.664C468.679 258.328 467.811 257.917 467.176 257.432L468.296 255.304C468.931 255.733 469.715 256.097 470.648 256.396C471.581 256.695 472.533 256.844 473.504 256.844C474.755 256.844 475.651 256.667 476.192 256.312C476.752 255.957 477.032 255.463 477.032 254.828C477.032 254.361 476.864 253.997 476.528 253.736C476.192 253.475 475.744 253.279 475.184 253.148C474.643 253.017 474.036 252.905 473.364 252.812C472.692 252.7 472.02 252.569 471.348 252.42C470.676 252.252 470.06 252.028 469.5 251.748C468.94 251.449 468.492 251.048 468.156 250.544C467.82 250.021 467.652 249.331 467.652 248.472C467.652 247.576 467.904 246.792 468.408 246.12C468.912 245.448 469.621 244.935 470.536 244.58C471.469 244.207 472.571 244.02 473.84 244.02C474.811 244.02 475.791 244.141 476.78 244.384C477.788 244.608 478.609 244.935 479.244 245.364L478.096 247.492C477.424 247.044 476.724 246.736 475.996 246.568C475.268 246.4 474.54 246.316 473.812 246.316C472.636 246.316 471.759 246.512 471.18 246.904C470.601 247.277 470.312 247.763 470.312 248.36C470.312 248.864 470.48 249.256 470.816 249.536C471.171 249.797 471.619 250.003 472.16 250.152C472.72 250.301 473.336 250.432 474.008 250.544C474.68 250.637 475.352 250.768 476.024 250.936C476.696 251.085 477.303 251.3 477.844 251.58C478.404 251.86 478.852 252.252 479.188 252.756C479.543 253.26 479.72 253.932 479.72 254.772C479.72 255.668 479.459 256.443 478.936 257.096C478.413 257.749 477.676 258.263 476.724 258.636C475.772 258.991 474.633 259.168 473.308 259.168ZM492.291 259V255.864L492.151 255.276V249.928C492.151 248.789 491.815 247.912 491.143 247.296C490.49 246.661 489.501 246.344 488.175 246.344C487.298 246.344 486.439 246.493 485.599 246.792C484.759 247.072 484.05 247.455 483.471 247.94L482.351 245.924C483.117 245.308 484.031 244.841 485.095 244.524C486.178 244.188 487.307 244.02 488.483 244.02C490.518 244.02 492.086 244.515 493.187 245.504C494.289 246.493 494.839 248.005 494.839 250.04V259H492.291ZM487.419 259.168C486.318 259.168 485.347 258.981 484.507 258.608C483.686 258.235 483.051 257.721 482.603 257.068C482.155 256.396 481.931 255.64 481.931 254.8C481.931 253.997 482.118 253.269 482.491 252.616C482.883 251.963 483.509 251.44 484.367 251.048C485.245 250.656 486.421 250.46 487.895 250.46H492.599V252.392H488.007C486.663 252.392 485.758 252.616 485.291 253.064C484.825 253.512 484.591 254.053 484.591 254.688C484.591 255.416 484.881 256.004 485.459 256.452C486.038 256.881 486.841 257.096 487.867 257.096C488.875 257.096 489.753 256.872 490.499 256.424C491.265 255.976 491.815 255.323 492.151 254.464L492.683 256.312C492.329 257.189 491.703 257.889 490.807 258.412C489.911 258.916 488.782 259.168 487.419 259.168ZM500.206 259V242.844C500.206 241.388 500.626 240.231 501.466 239.372C502.324 238.495 503.538 238.056 505.106 238.056C505.684 238.056 506.235 238.131 506.758 238.28C507.299 238.411 507.756 238.625 508.13 238.924L507.318 240.968C507.038 240.744 506.72 240.576 506.366 240.464C506.011 240.333 505.638 240.268 505.246 240.268C504.462 240.268 503.864 240.492 503.454 240.94C503.043 241.369 502.838 242.013 502.838 242.872V244.86L502.894 246.092V259H500.206ZM497.686 246.372V244.16H507.15V246.372H497.686ZM516.074 259.168C514.487 259.168 513.087 258.841 511.874 258.188C510.679 257.535 509.746 256.639 509.074 255.5C508.421 254.361 508.094 253.055 508.094 251.58C508.094 250.105 508.411 248.799 509.046 247.66C509.699 246.521 510.586 245.635 511.706 245C512.845 244.347 514.123 244.02 515.542 244.02C516.979 244.02 518.249 244.337 519.35 244.972C520.451 245.607 521.31 246.503 521.926 247.66C522.561 248.799 522.878 250.133 522.878 251.664C522.878 251.776 522.869 251.907 522.85 252.056C522.85 252.205 522.841 252.345 522.822 252.476H510.194V250.544H521.422L520.33 251.216C520.349 250.264 520.153 249.415 519.742 248.668C519.331 247.921 518.762 247.343 518.034 246.932C517.325 246.503 516.494 246.288 515.542 246.288C514.609 246.288 513.778 246.503 513.05 246.932C512.322 247.343 511.753 247.931 511.342 248.696C510.931 249.443 510.726 250.301 510.726 251.272V251.72C510.726 252.709 510.95 253.596 511.398 254.38C511.865 255.145 512.509 255.743 513.33 256.172C514.151 256.601 515.094 256.816 516.158 256.816C517.035 256.816 517.829 256.667 518.538 256.368C519.266 256.069 519.901 255.621 520.442 255.024L521.926 256.76C521.254 257.544 520.414 258.141 519.406 258.552C518.417 258.963 517.306 259.168 516.074 259.168ZM534.522 259V242.844C534.522 241.388 534.942 240.231 535.782 239.372C536.641 238.495 537.854 238.056 539.422 238.056C540.001 238.056 540.551 238.131 541.074 238.28C541.615 238.411 542.073 238.625 542.446 238.924L541.634 240.968C541.354 240.744 541.037 240.576 540.682 240.464C540.327 240.333 539.954 240.268 539.562 240.268C538.778 240.268 538.181 240.492 537.77 240.94C537.359 241.369 537.154 242.013 537.154 242.872V244.86L537.21 246.092V259H534.522ZM532.002 246.372V244.16H541.466V246.372H532.002ZM550.138 259.168C548.645 259.168 547.32 258.841 546.162 258.188C545.005 257.535 544.09 256.639 543.418 255.5C542.746 254.343 542.41 253.036 542.41 251.58C542.41 250.105 542.746 248.799 543.418 247.66C544.09 246.521 545.005 245.635 546.162 245C547.32 244.347 548.645 244.02 550.138 244.02C551.613 244.02 552.929 244.347 554.086 245C555.262 245.635 556.177 246.521 556.83 247.66C557.502 248.78 557.838 250.087 557.838 251.58C557.838 253.055 557.502 254.361 556.83 255.5C556.177 256.639 555.262 257.535 554.086 258.188C552.929 258.841 551.613 259.168 550.138 259.168ZM550.138 256.816C551.09 256.816 551.94 256.601 552.686 256.172C553.452 255.743 554.049 255.136 554.478 254.352C554.908 253.549 555.122 252.625 555.122 251.58C555.122 250.516 554.908 249.601 554.478 248.836C554.049 248.052 553.452 247.445 552.686 247.016C551.94 246.587 551.09 246.372 550.138 246.372C549.186 246.372 548.337 246.587 547.59 247.016C546.844 247.445 546.246 248.052 545.798 248.836C545.35 249.601 545.126 250.516 545.126 251.58C545.126 252.625 545.35 253.549 545.798 254.352C546.246 255.136 546.844 255.743 547.59 256.172C548.337 256.601 549.186 256.816 550.138 256.816ZM561.556 259V244.16H564.132V248.192L563.88 247.184C564.29 246.157 564.981 245.373 565.952 244.832C566.922 244.291 568.117 244.02 569.536 244.02V246.624C569.424 246.605 569.312 246.596 569.2 246.596C569.106 246.596 569.013 246.596 568.92 246.596C567.482 246.596 566.344 247.025 565.504 247.884C564.664 248.743 564.244 249.984 564.244 251.608V259H561.556ZM591.413 244.02C592.607 244.02 593.662 244.253 594.577 244.72C595.491 245.187 596.201 245.896 596.705 246.848C597.227 247.8 597.489 249.004 597.489 250.46V259H594.801V250.768C594.801 249.331 594.465 248.248 593.793 247.52C593.121 246.792 592.178 246.428 590.965 246.428C590.069 246.428 589.285 246.615 588.613 246.988C587.941 247.361 587.418 247.912 587.045 248.64C586.69 249.368 586.513 250.273 586.513 251.356V259H583.825V250.768C583.825 249.331 583.489 248.248 582.817 247.52C582.163 246.792 581.221 246.428 579.989 246.428C579.111 246.428 578.337 246.615 577.665 246.988C576.993 247.361 576.47 247.912 576.097 248.64C575.723 249.368 575.537 250.273 575.537 251.356V259H572.849V244.16H575.425V248.108L575.005 247.1C575.471 246.129 576.19 245.373 577.161 244.832C578.131 244.291 579.261 244.02 580.549 244.02C581.967 244.02 583.19 244.375 584.217 245.084C585.243 245.775 585.915 246.829 586.233 248.248L585.141 247.8C585.589 246.661 586.373 245.747 587.493 245.056C588.613 244.365 589.919 244.02 591.413 244.02ZM614.21 259.168C612.978 259.168 611.802 259 610.682 258.664C609.581 258.328 608.713 257.917 608.078 257.432L609.198 255.304C609.833 255.733 610.617 256.097 611.55 256.396C612.484 256.695 613.436 256.844 614.406 256.844C615.657 256.844 616.553 256.667 617.094 256.312C617.654 255.957 617.934 255.463 617.934 254.828C617.934 254.361 617.766 253.997 617.43 253.736C617.094 253.475 616.646 253.279 616.086 253.148C615.545 253.017 614.938 252.905 614.266 252.812C613.594 252.7 612.922 252.569 612.25 252.42C611.578 252.252 610.962 252.028 610.402 251.748C609.842 251.449 609.394 251.048 609.058 250.544C608.722 250.021 608.554 249.331 608.554 248.472C608.554 247.576 608.806 246.792 609.31 246.12C609.814 245.448 610.524 244.935 611.438 244.58C612.372 244.207 613.473 244.02 614.742 244.02C615.713 244.02 616.693 244.141 617.682 244.384C618.69 244.608 619.512 244.935 620.146 245.364L618.998 247.492C618.326 247.044 617.626 246.736 616.898 246.568C616.17 246.4 615.442 246.316 614.714 246.316C613.538 246.316 612.661 246.512 612.082 246.904C611.504 247.277 611.214 247.763 611.214 248.36C611.214 248.864 611.382 249.256 611.718 249.536C612.073 249.797 612.521 250.003 613.062 250.152C613.622 250.301 614.238 250.432 614.91 250.544C615.582 250.637 616.254 250.768 616.926 250.936C617.598 251.085 618.205 251.3 618.746 251.58C619.306 251.86 619.754 252.252 620.09 252.756C620.445 253.26 620.622 253.932 620.622 254.772C620.622 255.668 620.361 256.443 619.838 257.096C619.316 257.749 618.578 258.263 617.626 258.636C616.674 258.991 615.536 259.168 614.21 259.168ZM629.078 259.168C627.584 259.168 626.427 258.767 625.606 257.964C624.784 257.161 624.374 256.013 624.374 254.52V240.912H627.062V254.408C627.062 255.211 627.258 255.827 627.65 256.256C628.06 256.685 628.639 256.9 629.386 256.9C630.226 256.9 630.926 256.667 631.486 256.2L632.326 258.132C631.915 258.487 631.42 258.748 630.842 258.916C630.282 259.084 629.694 259.168 629.078 259.168ZM621.854 246.372V244.16H631.318V246.372H621.854ZM644.787 259V255.864L644.647 255.276V249.928C644.647 248.789 644.311 247.912 643.639 247.296C642.986 246.661 641.997 246.344 640.671 246.344C639.794 246.344 638.935 246.493 638.095 246.792C637.255 247.072 636.546 247.455 635.967 247.94L634.847 245.924C635.613 245.308 636.527 244.841 637.591 244.524C638.674 244.188 639.803 244.02 640.979 244.02C643.014 244.02 644.582 244.515 645.683 245.504C646.785 246.493 647.335 248.005 647.335 250.04V259H644.787ZM639.915 259.168C638.814 259.168 637.843 258.981 637.003 258.608C636.182 258.235 635.547 257.721 635.099 257.068C634.651 256.396 634.427 255.64 634.427 254.8C634.427 253.997 634.614 253.269 634.987 252.616C635.379 251.963 636.005 251.44 636.863 251.048C637.741 250.656 638.917 250.46 640.391 250.46H645.095V252.392H640.503C639.159 252.392 638.254 252.616 637.787 253.064C637.321 253.512 637.087 254.053 637.087 254.688C637.087 255.416 637.377 256.004 637.955 256.452C638.534 256.881 639.337 257.096 640.363 257.096C641.371 257.096 642.249 256.872 642.995 256.424C643.761 255.976 644.311 255.323 644.647 254.464L645.179 256.312C644.825 257.189 644.199 257.889 643.303 258.412C642.407 258.916 641.278 259.168 639.915 259.168ZM657.406 259.168C655.912 259.168 654.755 258.767 653.934 257.964C653.112 257.161 652.702 256.013 652.702 254.52V240.912H655.39V254.408C655.39 255.211 655.586 255.827 655.978 256.256C656.388 256.685 656.967 256.9 657.714 256.9C658.554 256.9 659.254 256.667 659.814 256.2L660.654 258.132C660.243 258.487 659.748 258.748 659.17 258.916C658.61 259.084 658.022 259.168 657.406 259.168ZM650.182 246.372V244.16H659.646V246.372H650.182ZM670.019 259.168C668.433 259.168 667.033 258.841 665.819 258.188C664.625 257.535 663.691 256.639 663.019 255.5C662.366 254.361 662.039 253.055 662.039 251.58C662.039 250.105 662.357 248.799 662.991 247.66C663.645 246.521 664.531 245.635 665.651 245C666.79 244.347 668.069 244.02 669.487 244.02C670.925 244.02 672.194 244.337 673.295 244.972C674.397 245.607 675.255 246.503 675.871 247.66C676.506 248.799 676.823 250.133 676.823 251.664C676.823 251.776 676.814 251.907 676.795 252.056C676.795 252.205 676.786 252.345 676.767 252.476H664.139V250.544H675.367L674.275 251.216C674.294 250.264 674.098 249.415 673.687 248.668C673.277 247.921 672.707 247.343 671.979 246.932C671.27 246.503 670.439 246.288 669.487 246.288C668.554 246.288 667.723 246.503 666.995 246.932C666.267 247.343 665.698 247.931 665.287 248.696C664.877 249.443 664.671 250.301 664.671 251.272V251.72C664.671 252.709 664.895 253.596 665.343 254.38C665.81 255.145 666.454 255.743 667.275 256.172C668.097 256.601 669.039 256.816 670.103 256.816C670.981 256.816 671.774 256.667 672.483 256.368C673.211 256.069 673.846 255.621 674.387 255.024L675.871 256.76C675.199 257.544 674.359 258.141 673.351 258.552C672.362 258.963 671.251 259.168 670.019 259.168ZM205.962 277.02C207.156 277.02 208.211 277.253 209.126 277.72C210.04 278.187 210.75 278.896 211.254 279.848C211.776 280.8 212.038 282.004 212.038 283.46V292H209.35V283.768C209.35 282.331 209.014 281.248 208.342 280.52C207.67 279.792 206.727 279.428 205.514 279.428C204.618 279.428 203.834 279.615 203.162 279.988C202.49 280.361 201.967 280.912 201.594 281.64C201.239 282.368 201.062 283.273 201.062 284.356V292H198.374V283.768C198.374 282.331 198.038 281.248 197.366 280.52C196.712 279.792 195.77 279.428 194.538 279.428C193.66 279.428 192.886 279.615 192.214 279.988C191.542 280.361 191.019 280.912 190.646 281.64C190.272 282.368 190.086 283.273 190.086 284.356V292H187.398V277.16H189.974V281.108L189.554 280.1C190.02 279.129 190.739 278.373 191.71 277.832C192.68 277.291 193.81 277.02 195.098 277.02C196.516 277.02 197.739 277.375 198.766 278.084C199.792 278.775 200.464 279.829 200.782 281.248L199.69 280.8C200.138 279.661 200.922 278.747 202.042 278.056C203.162 277.365 204.468 277.02 205.962 277.02ZM226.196 292V288.864L226.056 288.276V282.928C226.056 281.789 225.72 280.912 225.048 280.296C224.394 279.661 223.405 279.344 222.08 279.344C221.202 279.344 220.344 279.493 219.504 279.792C218.664 280.072 217.954 280.455 217.376 280.94L216.256 278.924C217.021 278.308 217.936 277.841 219 277.524C220.082 277.188 221.212 277.02 222.388 277.02C224.422 277.02 225.99 277.515 227.092 278.504C228.193 279.493 228.744 281.005 228.744 283.04V292H226.196ZM221.324 292.168C220.222 292.168 219.252 291.981 218.412 291.608C217.59 291.235 216.956 290.721 216.508 290.068C216.06 289.396 215.836 288.64 215.836 287.8C215.836 286.997 216.022 286.269 216.396 285.616C216.788 284.963 217.413 284.44 218.272 284.048C219.149 283.656 220.325 283.46 221.8 283.46H226.504V285.392H221.912C220.568 285.392 219.662 285.616 219.196 286.064C218.729 286.512 218.496 287.053 218.496 287.688C218.496 288.416 218.785 289.004 219.364 289.452C219.942 289.881 220.745 290.096 221.772 290.096C222.78 290.096 223.657 289.872 224.404 289.424C225.169 288.976 225.72 288.323 226.056 287.464L226.588 289.312C226.233 290.189 225.608 290.889 224.712 291.412C223.816 291.916 222.686 292.168 221.324 292.168ZM241.642 277.02C242.855 277.02 243.919 277.253 244.834 277.72C245.767 278.187 246.495 278.896 247.018 279.848C247.541 280.8 247.802 282.004 247.802 283.46V292H245.114V283.768C245.114 282.331 244.759 281.248 244.05 280.52C243.359 279.792 242.379 279.428 241.11 279.428C240.158 279.428 239.327 279.615 238.618 279.988C237.909 280.361 237.358 280.912 236.966 281.64C236.593 282.368 236.406 283.273 236.406 284.356V292H233.718V277.16H236.294V281.164L235.874 280.1C236.359 279.129 237.106 278.373 238.114 277.832C239.122 277.291 240.298 277.02 241.642 277.02ZM261.989 292V288.864L261.849 288.276V282.928C261.849 281.789 261.513 280.912 260.841 280.296C260.187 279.661 259.198 279.344 257.873 279.344C256.995 279.344 256.137 279.493 255.297 279.792C254.457 280.072 253.747 280.455 253.169 280.94L252.049 278.924C252.814 278.308 253.729 277.841 254.793 277.524C255.875 277.188 257.005 277.02 258.181 277.02C260.215 277.02 261.783 277.515 262.885 278.504C263.986 279.493 264.537 281.005 264.537 283.04V292H261.989ZM257.117 292.168C256.015 292.168 255.045 291.981 254.205 291.608C253.383 291.235 252.749 290.721 252.301 290.068C251.853 289.396 251.629 288.64 251.629 287.8C251.629 286.997 251.815 286.269 252.189 285.616C252.581 284.963 253.206 284.44 254.065 284.048C254.942 283.656 256.118 283.46 257.593 283.46H262.297V285.392H257.705C256.361 285.392 255.455 285.616 254.989 286.064C254.522 286.512 254.289 287.053 254.289 287.688C254.289 288.416 254.578 289.004 255.157 289.452C255.735 289.881 256.538 290.096 257.565 290.096C258.573 290.096 259.45 289.872 260.197 289.424C260.962 288.976 261.513 288.323 261.849 287.464L262.381 289.312C262.026 290.189 261.401 290.889 260.505 291.412C259.609 291.916 258.479 292.168 257.117 292.168ZM276.007 297.6C274.644 297.6 273.319 297.404 272.031 297.012C270.762 296.639 269.726 296.097 268.923 295.388L270.211 293.316C270.902 293.913 271.751 294.38 272.759 294.716C273.767 295.071 274.822 295.248 275.923 295.248C277.678 295.248 278.966 294.837 279.787 294.016C280.608 293.195 281.019 291.944 281.019 290.264V287.128L281.299 284.188L281.159 281.22V277.16H283.707V289.984C283.707 292.597 283.054 294.52 281.747 295.752C280.44 296.984 278.527 297.6 276.007 297.6ZM275.671 291.384C274.234 291.384 272.946 291.085 271.807 290.488C270.687 289.872 269.791 289.023 269.119 287.94C268.466 286.857 268.139 285.607 268.139 284.188C268.139 282.751 268.466 281.5 269.119 280.436C269.791 279.353 270.687 278.513 271.807 277.916C272.946 277.319 274.234 277.02 275.671 277.02C276.94 277.02 278.098 277.281 279.143 277.804C280.188 278.308 281.019 279.092 281.635 280.156C282.27 281.22 282.587 282.564 282.587 284.188C282.587 285.793 282.27 287.128 281.635 288.192C281.019 289.256 280.188 290.059 279.143 290.6C278.098 291.123 276.94 291.384 275.671 291.384ZM275.979 289.032C276.968 289.032 277.846 288.827 278.611 288.416C279.376 288.005 279.974 287.436 280.403 286.708C280.851 285.98 281.075 285.14 281.075 284.188C281.075 283.236 280.851 282.396 280.403 281.668C279.974 280.94 279.376 280.38 278.611 279.988C277.846 279.577 276.968 279.372 275.979 279.372C274.99 279.372 274.103 279.577 273.319 279.988C272.554 280.38 271.947 280.94 271.499 281.668C271.07 282.396 270.855 283.236 270.855 284.188C270.855 285.14 271.07 285.98 271.499 286.708C271.947 287.436 272.554 288.005 273.319 288.416C274.103 288.827 274.99 289.032 275.979 289.032ZM295.451 292.168C293.864 292.168 292.464 291.841 291.251 291.188C290.056 290.535 289.123 289.639 288.451 288.5C287.798 287.361 287.471 286.055 287.471 284.58C287.471 283.105 287.788 281.799 288.423 280.66C289.076 279.521 289.963 278.635 291.083 278C292.222 277.347 293.5 277.02 294.919 277.02C296.356 277.02 297.626 277.337 298.727 277.972C299.828 278.607 300.687 279.503 301.303 280.66C301.938 281.799 302.255 283.133 302.255 284.664C302.255 284.776 302.246 284.907 302.227 285.056C302.227 285.205 302.218 285.345 302.199 285.476H289.571V283.544H300.799L299.707 284.216C299.726 283.264 299.53 282.415 299.119 281.668C298.708 280.921 298.139 280.343 297.411 279.932C296.702 279.503 295.871 279.288 294.919 279.288C293.986 279.288 293.155 279.503 292.427 279.932C291.699 280.343 291.13 280.931 290.719 281.696C290.308 282.443 290.103 283.301 290.103 284.272V284.72C290.103 285.709 290.327 286.596 290.775 287.38C291.242 288.145 291.886 288.743 292.707 289.172C293.528 289.601 294.471 289.816 295.535 289.816C296.412 289.816 297.206 289.667 297.915 289.368C298.643 289.069 299.278 288.621 299.819 288.024L301.303 289.76C300.631 290.544 299.791 291.141 298.783 291.552C297.794 291.963 296.683 292.168 295.451 292.168ZM324.551 277.02C325.746 277.02 326.801 277.253 327.715 277.72C328.63 278.187 329.339 278.896 329.843 279.848C330.366 280.8 330.627 282.004 330.627 283.46V292H327.939V283.768C327.939 282.331 327.603 281.248 326.931 280.52C326.259 279.792 325.317 279.428 324.103 279.428C323.207 279.428 322.423 279.615 321.751 279.988C321.079 280.361 320.557 280.912 320.183 281.64C319.829 282.368 319.651 283.273 319.651 284.356V292H316.963V283.768C316.963 282.331 316.627 281.248 315.955 280.52C315.302 279.792 314.359 279.428 313.127 279.428C312.25 279.428 311.475 279.615 310.803 279.988C310.131 280.361 309.609 280.912 309.235 281.64C308.862 282.368 308.675 283.273 308.675 284.356V292H305.987V277.16H308.563V281.108L308.143 280.1C308.61 279.129 309.329 278.373 310.299 277.832C311.27 277.291 312.399 277.02 313.687 277.02C315.106 277.02 316.329 277.375 317.355 278.084C318.382 278.775 319.054 279.829 319.371 281.248L318.279 280.8C318.727 279.661 319.511 278.747 320.631 278.056C321.751 277.365 323.058 277.02 324.551 277.02ZM342.181 292.168C340.595 292.168 339.195 291.841 337.981 291.188C336.787 290.535 335.853 289.639 335.181 288.5C334.528 287.361 334.201 286.055 334.201 284.58C334.201 283.105 334.519 281.799 335.153 280.66C335.807 279.521 336.693 278.635 337.813 278C338.952 277.347 340.231 277.02 341.649 277.02C343.087 277.02 344.356 277.337 345.457 277.972C346.559 278.607 347.417 279.503 348.033 280.66C348.668 281.799 348.985 283.133 348.985 284.664C348.985 284.776 348.976 284.907 348.957 285.056C348.957 285.205 348.948 285.345 348.929 285.476H336.301V283.544H347.529L346.437 284.216C346.456 283.264 346.26 282.415 345.849 281.668C345.439 280.921 344.869 280.343 344.141 279.932C343.432 279.503 342.601 279.288 341.649 279.288C340.716 279.288 339.885 279.503 339.157 279.932C338.429 280.343 337.86 280.931 337.449 281.696C337.039 282.443 336.833 283.301 336.833 284.272V284.72C336.833 285.709 337.057 286.596 337.505 287.38C337.972 288.145 338.616 288.743 339.437 289.172C340.259 289.601 341.201 289.816 342.265 289.816C343.143 289.816 343.936 289.667 344.645 289.368C345.373 289.069 346.008 288.621 346.549 288.024L348.033 289.76C347.361 290.544 346.521 291.141 345.513 291.552C344.524 291.963 343.413 292.168 342.181 292.168ZM360.642 277.02C361.855 277.02 362.919 277.253 363.834 277.72C364.767 278.187 365.495 278.896 366.018 279.848C366.541 280.8 366.802 282.004 366.802 283.46V292H364.114V283.768C364.114 282.331 363.759 281.248 363.05 280.52C362.359 279.792 361.379 279.428 360.11 279.428C359.158 279.428 358.327 279.615 357.618 279.988C356.909 280.361 356.358 280.912 355.966 281.64C355.593 282.368 355.406 283.273 355.406 284.356V292H352.718V277.16H355.294V281.164L354.874 280.1C355.359 279.129 356.106 278.373 357.114 277.832C358.122 277.291 359.298 277.02 360.642 277.02ZM376.873 292.168C375.379 292.168 374.222 291.767 373.401 290.964C372.579 290.161 372.169 289.013 372.169 287.52V273.912H374.857V287.408C374.857 288.211 375.053 288.827 375.445 289.256C375.855 289.685 376.434 289.9 377.181 289.9C378.021 289.9 378.721 289.667 379.281 289.2L380.121 291.132C379.71 291.487 379.215 291.748 378.637 291.916C378.077 292.084 377.489 292.168 376.873 292.168ZM369.649 279.372V277.16H379.113V279.372H369.649ZM380.038 294.8L389.278 268.424H391.714L382.474 294.8H380.038ZM396.258 292L389.762 277.16H392.562L398.33 290.6H396.986L402.866 277.16H405.498L399.002 292H396.258ZM416.754 292V288.864L416.614 288.276V282.928C416.614 281.789 416.278 280.912 415.606 280.296C414.953 279.661 413.963 279.344 412.638 279.344C411.761 279.344 410.902 279.493 410.062 279.792C409.222 280.072 408.513 280.455 407.934 280.94L406.814 278.924C407.579 278.308 408.494 277.841 409.558 277.524C410.641 277.188 411.77 277.02 412.946 277.02C414.981 277.02 416.549 277.515 417.65 278.504C418.751 279.493 419.302 281.005 419.302 283.04V292H416.754ZM411.882 292.168C410.781 292.168 409.81 291.981 408.97 291.608C408.149 291.235 407.514 290.721 407.066 290.068C406.618 289.396 406.394 288.64 406.394 287.8C406.394 286.997 406.581 286.269 406.954 285.616C407.346 284.963 407.971 284.44 408.83 284.048C409.707 283.656 410.883 283.46 412.358 283.46H417.062V285.392H412.47C411.126 285.392 410.221 285.616 409.754 286.064C409.287 286.512 409.054 287.053 409.054 287.688C409.054 288.416 409.343 289.004 409.922 289.452C410.501 289.881 411.303 290.096 412.33 290.096C413.338 290.096 414.215 289.872 414.962 289.424C415.727 288.976 416.278 288.323 416.614 287.464L417.146 289.312C416.791 290.189 416.166 290.889 415.27 291.412C414.374 291.916 413.245 292.168 411.882 292.168ZM424.277 292V271.224H426.965V292H424.277ZM432.097 292V277.16H434.785V292H432.097ZM433.441 274.304C432.918 274.304 432.479 274.136 432.125 273.8C431.789 273.464 431.621 273.053 431.621 272.568C431.621 272.064 431.789 271.644 432.125 271.308C432.479 270.972 432.918 270.804 433.441 270.804C433.963 270.804 434.393 270.972 434.729 271.308C435.083 271.625 435.261 272.027 435.261 272.512C435.261 273.016 435.093 273.445 434.757 273.8C434.421 274.136 433.982 274.304 433.441 274.304ZM446.049 292.168C444.612 292.168 443.324 291.851 442.185 291.216C441.065 290.581 440.178 289.695 439.525 288.556C438.872 287.417 438.545 286.092 438.545 284.58C438.545 283.068 438.872 281.752 439.525 280.632C440.178 279.493 441.065 278.607 442.185 277.972C443.324 277.337 444.612 277.02 446.049 277.02C447.3 277.02 448.429 277.3 449.437 277.86C450.445 278.42 451.248 279.26 451.845 280.38C452.461 281.5 452.769 282.9 452.769 284.58C452.769 286.26 452.47 287.66 451.873 288.78C451.294 289.9 450.501 290.749 449.493 291.328C448.485 291.888 447.337 292.168 446.049 292.168ZM446.273 289.816C447.206 289.816 448.046 289.601 448.793 289.172C449.558 288.743 450.156 288.136 450.585 287.352C451.033 286.549 451.257 285.625 451.257 284.58C451.257 283.516 451.033 282.601 450.585 281.836C450.156 281.052 449.558 280.445 448.793 280.016C448.046 279.587 447.206 279.372 446.273 279.372C445.321 279.372 444.472 279.587 443.725 280.016C442.978 280.445 442.381 281.052 441.933 281.836C441.485 282.601 441.261 283.516 441.261 284.58C441.261 285.625 441.485 286.549 441.933 287.352C442.381 288.136 442.978 288.743 443.725 289.172C444.472 289.601 445.321 289.816 446.273 289.816ZM451.341 292V287.996L451.509 284.552L451.229 281.108V271.224H453.917V292H451.341ZM468.215 292V288.864L468.075 288.276V282.928C468.075 281.789 467.739 280.912 467.067 280.296C466.414 279.661 465.424 279.344 464.099 279.344C463.222 279.344 462.363 279.493 461.523 279.792C460.683 280.072 459.974 280.455 459.395 280.94L458.275 278.924C459.04 278.308 459.955 277.841 461.019 277.524C462.102 277.188 463.231 277.02 464.407 277.02C466.442 277.02 468.01 277.515 469.111 278.504C470.212 279.493 470.763 281.005 470.763 283.04V292H468.215ZM463.343 292.168C462.242 292.168 461.271 291.981 460.431 291.608C459.61 291.235 458.975 290.721 458.527 290.068C458.079 289.396 457.855 288.64 457.855 287.8C457.855 286.997 458.042 286.269 458.415 285.616C458.807 284.963 459.432 284.44 460.291 284.048C461.168 283.656 462.344 283.46 463.819 283.46H468.523V285.392H463.931C462.587 285.392 461.682 285.616 461.215 286.064C460.748 286.512 460.515 287.053 460.515 287.688C460.515 288.416 460.804 289.004 461.383 289.452C461.962 289.881 462.764 290.096 463.791 290.096C464.799 290.096 465.676 289.872 466.423 289.424C467.188 288.976 467.739 288.323 468.075 287.464L468.607 289.312C468.252 290.189 467.627 290.889 466.731 291.412C465.835 291.916 464.706 292.168 463.343 292.168ZM480.833 292.168C479.34 292.168 478.183 291.767 477.361 290.964C476.54 290.161 476.129 289.013 476.129 287.52V273.912H478.817V287.408C478.817 288.211 479.013 288.827 479.405 289.256C479.816 289.685 480.395 289.9 481.141 289.9C481.981 289.9 482.681 289.667 483.241 289.2L484.081 291.132C483.671 291.487 483.176 291.748 482.597 291.916C482.037 292.084 481.449 292.168 480.833 292.168ZM473.609 279.372V277.16H483.073V279.372H473.609ZM487.331 292V277.16H490.019V292H487.331ZM488.675 274.304C488.153 274.304 487.714 274.136 487.359 273.8C487.023 273.464 486.855 273.053 486.855 272.568C486.855 272.064 487.023 271.644 487.359 271.308C487.714 270.972 488.153 270.804 488.675 270.804C489.198 270.804 489.627 270.972 489.963 271.308C490.318 271.625 490.495 272.027 490.495 272.512C490.495 273.016 490.327 273.445 489.991 273.8C489.655 274.136 489.217 274.304 488.675 274.304ZM501.508 292.168C500.014 292.168 498.689 291.841 497.532 291.188C496.374 290.535 495.46 289.639 494.788 288.5C494.116 287.343 493.78 286.036 493.78 284.58C493.78 283.105 494.116 281.799 494.788 280.66C495.46 279.521 496.374 278.635 497.532 278C498.689 277.347 500.014 277.02 501.508 277.02C502.982 277.02 504.298 277.347 505.456 278C506.632 278.635 507.546 279.521 508.2 280.66C508.872 281.78 509.208 283.087 509.208 284.58C509.208 286.055 508.872 287.361 508.2 288.5C507.546 289.639 506.632 290.535 505.456 291.188C504.298 291.841 502.982 292.168 501.508 292.168ZM501.508 289.816C502.46 289.816 503.309 289.601 504.056 289.172C504.821 288.743 505.418 288.136 505.848 287.352C506.277 286.549 506.492 285.625 506.492 284.58C506.492 283.516 506.277 282.601 505.848 281.836C505.418 281.052 504.821 280.445 504.056 280.016C503.309 279.587 502.46 279.372 501.508 279.372C500.556 279.372 499.706 279.587 498.96 280.016C498.213 280.445 497.616 281.052 497.168 281.836C496.72 282.601 496.496 283.516 496.496 284.58C496.496 285.625 496.72 286.549 497.168 287.352C497.616 288.136 498.213 288.743 498.96 289.172C499.706 289.601 500.556 289.816 501.508 289.816ZM520.849 277.02C522.062 277.02 523.126 277.253 524.041 277.72C524.974 278.187 525.702 278.896 526.225 279.848C526.748 280.8 527.009 282.004 527.009 283.46V292H524.321V283.768C524.321 282.331 523.966 281.248 523.257 280.52C522.566 279.792 521.586 279.428 520.317 279.428C519.365 279.428 518.534 279.615 517.825 279.988C517.116 280.361 516.565 280.912 516.173 281.64C515.8 282.368 515.613 283.273 515.613 284.356V292H512.925V277.16H515.501V281.164L515.081 280.1C515.566 279.129 516.313 278.373 517.321 277.832C518.329 277.291 519.505 277.02 520.849 277.02ZM539.503 292V271.224H542.191V292H539.503ZM547.323 292V277.16H550.011V292H547.323ZM548.667 274.304C548.145 274.304 547.706 274.136 547.351 273.8C547.015 273.464 546.847 273.053 546.847 272.568C546.847 272.064 547.015 271.644 547.351 271.308C547.706 270.972 548.145 270.804 548.667 270.804C549.19 270.804 549.619 270.972 549.955 271.308C550.31 271.625 550.487 272.027 550.487 272.512C550.487 273.016 550.319 273.445 549.983 273.8C549.647 274.136 549.209 274.304 548.667 274.304ZM563.012 292.168C561.742 292.168 560.594 291.888 559.568 291.328C558.56 290.749 557.757 289.9 557.16 288.78C556.581 287.66 556.292 286.26 556.292 284.58C556.292 282.9 556.59 281.5 557.188 280.38C557.804 279.26 558.616 278.42 559.624 277.86C560.65 277.3 561.78 277.02 563.012 277.02C564.468 277.02 565.756 277.337 566.876 277.972C567.996 278.607 568.882 279.493 569.536 280.632C570.189 281.752 570.516 283.068 570.516 284.58C570.516 286.092 570.189 287.417 569.536 288.556C568.882 289.695 567.996 290.581 566.876 291.216C565.756 291.851 564.468 292.168 563.012 292.168ZM555.144 292V271.224H557.832V281.108L557.552 284.552L557.72 287.996V292H555.144ZM562.788 289.816C563.74 289.816 564.589 289.601 565.336 289.172C566.101 288.743 566.698 288.136 567.128 287.352C567.576 286.549 567.8 285.625 567.8 284.58C567.8 283.516 567.576 282.601 567.128 281.836C566.698 281.052 566.101 280.445 565.336 280.016C564.589 279.587 563.74 279.372 562.788 279.372C561.854 279.372 561.005 279.587 560.24 280.016C559.493 280.445 558.896 281.052 558.448 281.836C558.018 282.601 557.804 283.516 557.804 284.58C557.804 285.625 558.018 286.549 558.448 287.352C558.896 288.136 559.493 288.743 560.24 289.172C561.005 289.601 561.854 289.816 562.788 289.816ZM574.23 292V277.16H576.806V281.192L576.554 280.184C576.964 279.157 577.655 278.373 578.626 277.832C579.596 277.291 580.791 277.02 582.21 277.02V279.624C582.098 279.605 581.986 279.596 581.874 279.596C581.78 279.596 581.687 279.596 581.594 279.596C580.156 279.596 579.018 280.025 578.178 280.884C577.338 281.743 576.918 282.984 576.918 284.608V292H574.23ZM593.641 292V288.864L593.501 288.276V282.928C593.501 281.789 593.165 280.912 592.493 280.296C591.84 279.661 590.85 279.344 589.525 279.344C588.648 279.344 587.789 279.493 586.949 279.792C586.109 280.072 585.4 280.455 584.821 280.94L583.701 278.924C584.466 278.308 585.381 277.841 586.445 277.524C587.528 277.188 588.657 277.02 589.833 277.02C591.868 277.02 593.436 277.515 594.537 278.504C595.638 279.493 596.189 281.005 596.189 283.04V292H593.641ZM588.769 292.168C587.668 292.168 586.697 291.981 585.857 291.608C585.036 291.235 584.401 290.721 583.953 290.068C583.505 289.396 583.281 288.64 583.281 287.8C583.281 286.997 583.468 286.269 583.841 285.616C584.233 284.963 584.858 284.44 585.717 284.048C586.594 283.656 587.77 283.46 589.245 283.46H593.949V285.392H589.357C588.013 285.392 587.108 285.616 586.641 286.064C586.174 286.512 585.941 287.053 585.941 287.688C585.941 288.416 586.23 289.004 586.809 289.452C587.388 289.881 588.19 290.096 589.217 290.096C590.225 290.096 591.102 289.872 591.849 289.424C592.614 288.976 593.165 288.323 593.501 287.464L594.033 289.312C593.678 290.189 593.053 290.889 592.157 291.412C591.261 291.916 590.132 292.168 588.769 292.168ZM601.163 292V277.16H603.739V281.192L603.487 280.184C603.898 279.157 604.589 278.373 605.559 277.832C606.53 277.291 607.725 277.02 609.143 277.02V279.624C609.031 279.605 608.919 279.596 608.807 279.596C608.714 279.596 608.621 279.596 608.527 279.596C607.09 279.596 605.951 280.025 605.111 280.884C604.271 281.743 603.851 282.984 603.851 284.608V292H601.163ZM613.702 297.6C612.992 297.6 612.302 297.479 611.63 297.236C610.958 297.012 610.379 296.676 609.894 296.228L611.042 294.212C611.415 294.567 611.826 294.837 612.274 295.024C612.722 295.211 613.198 295.304 613.702 295.304C614.355 295.304 614.896 295.136 615.326 294.8C615.755 294.464 616.156 293.867 616.53 293.008L617.454 290.964L617.734 290.628L623.558 277.16H626.19L618.994 293.484C618.564 294.529 618.079 295.351 617.538 295.948C617.015 296.545 616.436 296.965 615.802 297.208C615.167 297.469 614.467 297.6 613.702 297.6ZM617.23 292.476L610.454 277.16H613.254L619.022 290.376L617.23 292.476Z" fill="#1C6FA6"/>
</svg>
